<ttFont>
    <TTGlyph name=".notdef" xMin="193" yMin="0" xMax="1034" yMax="1462">
      <contour>
        <pt x="193" y="1462" on="1"/>
        <pt x="1034" y="1462" on="1"/>
        <pt x="1034" y="0" on="1"/>
        <pt x="193" y="0" on="1"/>
      </contour>
      <contour>
        <pt x="297" y="104" on="1"/>
        <pt x="930" y="104" on="1"/>
        <pt x="930" y="1358" on="1"/>
        <pt x="297" y="1358" on="1"/>
      </contour>
    </TTGlyph>
    <TTGlyph name="eight" xMin="120" yMin="-29" xMax="1349" yMax="936">
      <contour>
        <pt x="1235" y="791" on="1"/>
        <pt x="1023" y="791" on="1"/>
        <pt x="813" y="791" on="0"/>
        <pt x="503" y="688" on="0"/>
        <pt x="340" y="503" on="0"/>
        <pt x="340" y="386" on="1"/>
        <pt x="340" y="277" on="0"/>
        <pt x="478" y="145" on="0"/>
        <pt x="595" y="145" on="1"/>
        <pt x="688" y="145" on="0"/>
        <pt x="792" y="204" on="1"/>
        <pt x="895" y="262" on="0"/>
        <pt x="977" y="262" on="1"/>
        <pt x="1058" y="262" on="0"/>
        <pt x="1221" y="185" on="0"/>
        <pt x="1349" y="71" on="1"/>
        <pt x="1266" y="-29" on="1"/>
        <pt x="1194" y="28" on="1"/>
        <pt x="1135" y="75" on="0"/>
        <pt x="1037" y="117" on="0"/>
        <pt x="987" y="117" on="1"/>
        <pt x="949" y="117" on="0"/>
        <pt x="874" y="91" on="0"/>
        <pt x="817" y="59" on="1"/>
        <pt x="713" y="0" on="0"/>
        <pt x="605" y="0" on="1"/>
        <pt x="487" y="0" on="0"/>
        <pt x="288" y="104" on="0"/>
        <pt x="175" y="289" on="0"/>
        <pt x="175" y="404" on="1"/>
        <pt x="175" y="536" on="0"/>
        <pt x="316" y="733" on="0"/>
        <pt x="437" y="793" on="1"/>
        <pt x="435" y="798" on="1"/>
        <pt x="372" y="791" on="0"/>
        <pt x="279" y="791" on="1"/>
        <pt x="130" y="791" on="1"/>
        <pt x="120" y="936" on="1"/>
        <pt x="1225" y="936" on="1"/>
      </contour>
    </TTGlyph>
    <TTGlyph name="five" xMin="160" yMin="0" xMax="971" yMax="1274">
      <contour>
        <pt x="325" y="1274" on="1"/>
        <pt x="325" y="934" on="0"/>
        <pt x="364" y="673" on="0"/>
        <pt x="458" y="558" on="0"/>
        <pt x="544" y="558" on="1"/>
        <pt x="634" y="558" on="0"/>
        <pt x="741" y="686" on="0"/>
        <pt x="799" y="951" on="0"/>
        <pt x="817" y="1274" on="1"/>
        <pt x="971" y="1274" on="1"/>
        <pt x="971" y="0" on="1"/>
        <pt x="806" y="0" on="1"/>
        <pt x="806" y="528" on="1"/>
        <pt x="711" y="413" on="0"/>
        <pt x="554" y="413" on="1"/>
        <pt x="406" y="413" on="0"/>
        <pt x="236" y="577" on="0"/>
        <pt x="160" y="912" on="0"/>
        <pt x="160" y="1274" on="1"/>
      </contour>
    </TTGlyph>
    <TTGlyph name="four" xMin="65" yMin="-10" xMax="1134" yMax="1284">
      <contour>
        <pt x="174" y="1284" on="1"/>
        <pt x="467" y="999" on="0"/>
        <pt x="584" y="866" on="1"/>
        <pt x="694" y="979" on="0"/>
        <pt x="1026" y="1284" on="1"/>
        <pt x="1134" y="1162" on="1"/>
        <pt x="807" y="880" on="0"/>
        <pt x="681" y="750" on="1"/>
        <pt x="772" y="633" on="0"/>
        <pt x="878" y="411" on="0"/>
        <pt x="878" y="303" on="1"/>
        <pt x="878" y="171" on="0"/>
        <pt x="706" y="-10" on="0"/>
        <pt x="576" y="-10" on="1"/>
        <pt x="446" y="-10" on="0"/>
        <pt x="267" y="165" on="0"/>
        <pt x="267" y="302" on="1"/>
        <pt x="267" y="414" on="0"/>
        <pt x="380" y="635" on="0"/>
        <pt x="487" y="759" on="1"/>
        <pt x="367" y="897" on="0"/>
        <pt x="65" y="1185" on="1"/>
      </contour>
      <contour>
        <pt x="713" y="313" on="1"/>
        <pt x="713" y="461" on="0"/>
        <pt x="583" y="640" on="1"/>
        <pt x="506" y="546" on="0"/>
        <pt x="432" y="379" on="0"/>
        <pt x="432" y="292" on="1"/>
        <pt x="432" y="223" on="0"/>
        <pt x="505" y="135" on="0"/>
        <pt x="566" y="135" on="1"/>
        <pt x="631" y="135" on="0"/>
        <pt x="713" y="235" on="0"/>
      </contour>
    </TTGlyph>
    <TTGlyph name="glyph00004" xMin="-743" yMin="1400" xMax="51" yMax="1946">
      <contour>
        <pt x="51" y="1665" on="1"/>
        <pt x="-24" y="1540" on="0"/>
        <pt x="-196" y="1437" on="0"/>
        <pt x="-309" y="1437" on="1"/>
        <pt x="-420" y="1437" on="0"/>
        <pt x="-645" y="1563" on="0"/>
        <pt x="-743" y="1678" on="1"/>
        <pt x="-656" y="1759" on="1"/>
        <pt x="-550" y="1658" on="0"/>
        <pt x="-408" y="1582" on="0"/>
        <pt x="-335" y="1582" on="1"/>
        <pt x="-281" y="1582" on="0"/>
        <pt x="-199" y="1616" on="0"/>
        <pt x="-133" y="1678" on="0"/>
        <pt x="-88" y="1750" on="1"/>
      </contour>
      <contour>
        <pt x="-452" y="1841" on="1"/>
        <pt x="-452" y="1891" on="0"/>
        <pt x="-397" y="1946" on="0"/>
        <pt x="-348" y="1946" on="1"/>
        <pt x="-302" y="1946" on="0"/>
        <pt x="-245" y="1891" on="0"/>
        <pt x="-245" y="1841" on="1"/>
        <pt x="-245" y="1794" on="0"/>
        <pt x="-302" y="1738" on="0"/>
        <pt x="-348" y="1738" on="1"/>
        <pt x="-397" y="1738" on="0"/>
        <pt x="-452" y="1794" on="0"/>
      </contour>
      <contour>
        <pt x="-320" y="1400" on="1"/>
      </contour>
    </TTGlyph>
    <TTGlyph name="glyph00005" xMin="-330" yMin="1440" xMax="-107" yMax="1743">
      <contour>
        <pt x="-330" y="1623" on="1"/>
        <pt x="-330" y="1681" on="0"/>
        <pt x="-273" y="1743" on="0"/>
        <pt x="-220" y="1743" on="1"/>
        <pt x="-166" y="1743" on="0"/>
        <pt x="-107" y="1681" on="0"/>
        <pt x="-107" y="1623" on="1"/>
        <pt x="-107" y="1565" on="0"/>
        <pt x="-166" y="1500" on="0"/>
        <pt x="-220" y="1500" on="1"/>
        <pt x="-272" y="1500" on="0"/>
        <pt x="-330" y="1565" on="0"/>
      </contour>
      <contour>
        <pt x="-220" y="1440" on="1"/>
      </contour>
    </TTGlyph>
    <TTGlyph name="glyph00006" xMin="100" yMin="220" xMax="323" yMax="1083">
      <contour>
        <pt x="100" y="963" on="1"/>
        <pt x="100" y="1021" on="0"/>
        <pt x="157" y="1083" on="0"/>
        <pt x="210" y="1083" on="1"/>
        <pt x="264" y="1083" on="0"/>
        <pt x="323" y="1021" on="0"/>
        <pt x="323" y="963" on="1"/>
        <pt x="323" y="905" on="0"/>
        <pt x="264" y="840" on="0"/>
        <pt x="210" y="840" on="1"/>
        <pt x="158" y="840" on="0"/>
        <pt x="100" y="905" on="0"/>
      </contour>
      <contour>
        <pt x="100" y="343" on="1"/>
        <pt x="100" y="401" on="0"/>
        <pt x="157" y="463" on="0"/>
        <pt x="210" y="463" on="1"/>
        <pt x="264" y="463" on="0"/>
        <pt x="323" y="401" on="0"/>
        <pt x="323" y="343" on="1"/>
        <pt x="323" y="285" on="0"/>
        <pt x="264" y="220" on="0"/>
        <pt x="210" y="220" on="1"/>
        <pt x="158" y="220" on="0"/>
        <pt x="100" y="285" on="0"/>
      </contour>
    </TTGlyph>
    <TTGlyph name="glyph00007" xMin="80" yMin="0" xMax="1097" yMax="1284">
      <contour>
        <pt x="382" y="1000" on="1"/>
        <pt x="382" y="894" on="0"/>
        <pt x="468" y="786" on="1"/>
        <pt x="588" y="889" on="0"/>
        <pt x="588" y="1015" on="1"/>
        <pt x="588" y="1066" on="0"/>
        <pt x="538" y="1139" on="0"/>
        <pt x="490" y="1139" on="1"/>
        <pt x="440" y="1139" on="0"/>
        <pt x="382" y="1060" on="0"/>
      </contour>
      <contour>
        <pt x="403" y="80" on="1"/>
        <pt x="315" y="210" on="1"/>
        <pt x="689" y="431" on="1"/>
        <pt x="565" y="525" on="0"/>
        <pt x="481" y="598" on="1"/>
        <pt x="377" y="530" on="0"/>
        <pt x="153" y="427" on="1"/>
        <pt x="80" y="572" on="1"/>
        <pt x="263" y="649" on="0"/>
        <pt x="365" y="711" on="1"/>
        <pt x="217" y="874" on="0"/>
        <pt x="217" y="1031" on="1"/>
        <pt x="217" y="1142" on="0"/>
        <pt x="358" y="1284" on="0"/>
        <pt x="470" y="1284" on="1"/>
        <pt x="554" y="1284" on="0"/>
        <pt x="682" y="1205" on="0"/>
        <pt x="753" y="1070" on="0"/>
        <pt x="753" y="995" on="1"/>
        <pt x="753" y="818" on="0"/>
        <pt x="580" y="671" on="1"/>
        <pt x="659" y="601" on="0"/>
        <pt x="798" y="496" on="1"/>
        <pt x="932" y="576" on="1"/>
        <pt x="932" y="1274" on="1"/>
        <pt x="1097" y="1274" on="1"/>
        <pt x="1097" y="0" on="1"/>
        <pt x="932" y="0" on="1"/>
        <pt x="932" y="303" on="1"/>
        <pt x="932" y="402" on="0"/>
        <pt x="937" y="419" on="1"/>
        <pt x="932" y="419" on="1"/>
      </contour>
    </TTGlyph>
    <TTGlyph name="glyph00008" xMin="80" yMin="0" xMax="1602" yMax="1284">
      <contour>
        <pt x="932" y="303" on="1"/>
        <pt x="932" y="402" on="0"/>
        <pt x="937" y="419" on="1"/>
        <pt x="932" y="419" on="1"/>
        <pt x="403" y="80" on="1"/>
        <pt x="315" y="210" on="1"/>
        <pt x="689" y="431" on="1"/>
        <pt x="565" y="525" on="0"/>
        <pt x="481" y="598" on="1"/>
        <pt x="377" y="530" on="0"/>
        <pt x="153" y="427" on="1"/>
        <pt x="80" y="572" on="1"/>
        <pt x="263" y="649" on="0"/>
        <pt x="365" y="711" on="1"/>
        <pt x="217" y="874" on="0"/>
        <pt x="217" y="1031" on="1"/>
        <pt x="217" y="1142" on="0"/>
        <pt x="358" y="1284" on="0"/>
        <pt x="470" y="1284" on="1"/>
        <pt x="554" y="1284" on="0"/>
        <pt x="682" y="1205" on="0"/>
        <pt x="753" y="1070" on="0"/>
        <pt x="753" y="995" on="1"/>
        <pt x="753" y="818" on="0"/>
        <pt x="580" y="671" on="1"/>
        <pt x="659" y="601" on="0"/>
        <pt x="798" y="496" on="1"/>
        <pt x="932" y="576" on="1"/>
        <pt x="932" y="1274" on="1"/>
        <pt x="1097" y="1274" on="1"/>
        <pt x="1097" y="0" on="1"/>
        <pt x="932" y="0" on="1"/>
      </contour>
      <contour>
        <pt x="1437" y="1274" on="1"/>
        <pt x="1602" y="1274" on="1"/>
        <pt x="1602" y="0" on="1"/>
        <pt x="1437" y="0" on="1"/>
      </contour>
      <contour>
        <pt x="382" y="1000" on="1"/>
        <pt x="382" y="894" on="0"/>
        <pt x="468" y="786" on="1"/>
        <pt x="588" y="889" on="0"/>
        <pt x="588" y="1015" on="1"/>
        <pt x="588" y="1066" on="0"/>
        <pt x="538" y="1139" on="0"/>
        <pt x="490" y="1139" on="1"/>
        <pt x="440" y="1139" on="0"/>
        <pt x="382" y="1060" on="0"/>
      </contour>
    </TTGlyph>
    <TTGlyph name="glyph00009" xMin="120" yMin="-357" xMax="946" yMax="1284">
      <contour>
        <pt x="783" y="-357" on="1"/>
        <pt x="696" y="-137" on="0"/>
        <pt x="623" y="2" on="1"/>
        <pt x="563" y="-10" on="0"/>
        <pt x="499" y="-10" on="1"/>
        <pt x="341" y="-10" on="0"/>
        <pt x="120" y="141" on="0"/>
        <pt x="120" y="256" on="1"/>
        <pt x="120" y="340" on="0"/>
        <pt x="238" y="449" on="0"/>
        <pt x="325" y="449" on="1"/>
        <pt x="519" y="449" on="0"/>
        <pt x="686" y="184" on="1"/>
        <pt x="781" y="244" on="0"/>
        <pt x="781" y="356" on="1"/>
        <pt x="781" y="418" on="0"/>
        <pt x="696" y="522" on="0"/>
        <pt x="609" y="568" on="1"/>
        <pt x="509" y="622" on="1"/>
        <pt x="395" y="682" on="0"/>
        <pt x="293" y="776" on="0"/>
        <pt x="236" y="892" on="0"/>
        <pt x="236" y="967" on="1"/>
        <pt x="236" y="1119" on="0"/>
        <pt x="490" y="1284" on="0"/>
        <pt x="716" y="1284" on="1"/>
        <pt x="727" y="1139" on="1"/>
        <pt x="573" y="1139" on="0"/>
        <pt x="401" y="1041" on="0"/>
        <pt x="401" y="952" on="1"/>
        <pt x="401" y="906" on="0"/>
        <pt x="448" y="834" on="0"/>
        <pt x="524" y="773" on="0"/>
        <pt x="622" y="718" on="0"/>
        <pt x="725" y="661" on="0"/>
        <pt x="823" y="596" on="0"/>
        <pt x="899" y="515" on="0"/>
        <pt x="946" y="412" on="0"/>
        <pt x="946" y="346" on="1"/>
        <pt x="946" y="246" on="0"/>
        <pt x="844" y="97" on="0"/>
        <pt x="761" y="52" on="1"/>
        <pt x="821" y="-64" on="0"/>
        <pt x="915" y="-302" on="1"/>
      </contour>
      <contour>
        <pt x="489" y="135" on="1"/>
        <pt x="544" y="138" on="1"/>
        <pt x="438" y="294" on="0"/>
        <pt x="346" y="294" on="1"/>
        <pt x="316" y="294" on="0"/>
        <pt x="285" y="259" on="0"/>
        <pt x="285" y="236" on="1"/>
        <pt x="285" y="191" on="0"/>
        <pt x="398" y="135" on="0"/>
      </contour>
    </TTGlyph>
    <TTGlyph name="glyph00010" xMin="120" yMin="-357" xMax="946" yMax="1810">
      <contour>
        <pt x="236" y="967" on="1"/>
        <pt x="236" y="1082" on="0"/>
        <pt x="383" y="1234" on="0"/>
        <pt x="523" y="1265" on="1"/>
        <pt x="419" y="1333" on="0"/>
        <pt x="305" y="1498" on="0"/>
        <pt x="305" y="1581" on="1"/>
        <pt x="305" y="1684" on="0"/>
        <pt x="455" y="1810" on="0"/>
        <pt x="568" y="1810" on="1"/>
        <pt x="642" y="1810" on="0"/>
        <pt x="793" y="1751" on="0"/>
        <pt x="857" y="1694" on="1"/>
        <pt x="788" y="1602" on="1"/>
        <pt x="681" y="1665" on="0"/>
        <pt x="598" y="1665" on="1"/>
        <pt x="538" y="1665" on="0"/>
        <pt x="470" y="1603" on="0"/>
        <pt x="470" y="1552" on="1"/>
        <pt x="470" y="1478" on="0"/>
        <pt x="586" y="1344" on="0"/>
        <pt x="713" y="1281" on="1"/>
        <pt x="727" y="1139" on="1"/>
        <pt x="573" y="1139" on="0"/>
        <pt x="401" y="1041" on="0"/>
        <pt x="401" y="952" on="1"/>
        <pt x="401" y="906" on="0"/>
        <pt x="448" y="834" on="0"/>
        <pt x="524" y="773" on="0"/>
        <pt x="622" y="718" on="0"/>
        <pt x="725" y="661" on="0"/>
        <pt x="823" y="596" on="0"/>
        <pt x="899" y="515" on="0"/>
        <pt x="946" y="412" on="0"/>
        <pt x="946" y="346" on="1"/>
        <pt x="946" y="246" on="0"/>
        <pt x="844" y="97" on="0"/>
        <pt x="761" y="52" on="1"/>
        <pt x="821" y="-64" on="0"/>
        <pt x="915" y="-302" on="1"/>
        <pt x="783" y="-357" on="1"/>
        <pt x="696" y="-137" on="0"/>
        <pt x="623" y="2" on="1"/>
        <pt x="563" y="-10" on="0"/>
        <pt x="499" y="-10" on="1"/>
        <pt x="341" y="-10" on="0"/>
        <pt x="120" y="141" on="0"/>
        <pt x="120" y="256" on="1"/>
        <pt x="120" y="340" on="0"/>
        <pt x="238" y="449" on="0"/>
        <pt x="325" y="449" on="1"/>
        <pt x="519" y="449" on="0"/>
        <pt x="686" y="184" on="1"/>
        <pt x="781" y="244" on="0"/>
        <pt x="781" y="356" on="1"/>
        <pt x="781" y="418" on="0"/>
        <pt x="696" y="522" on="0"/>
        <pt x="609" y="568" on="1"/>
        <pt x="509" y="622" on="1"/>
        <pt x="395" y="682" on="0"/>
        <pt x="293" y="776" on="0"/>
        <pt x="236" y="892" on="0"/>
      </contour>
      <contour>
        <pt x="489" y="135" on="1"/>
        <pt x="544" y="138" on="1"/>
        <pt x="438" y="294" on="0"/>
        <pt x="346" y="294" on="1"/>
        <pt x="316" y="294" on="0"/>
        <pt x="285" y="259" on="0"/>
        <pt x="285" y="236" on="1"/>
        <pt x="285" y="191" on="0"/>
        <pt x="398" y="135" on="0"/>
      </contour>
    </TTGlyph>
    <TTGlyph name="glyph00011" xMin="70" yMin="-10" xMax="948" yMax="1284">
      <contour>
        <pt x="316" y="703" on="1"/>
        <pt x="510" y="740" on="0"/>
        <pt x="655" y="806" on="0"/>
        <pt x="728" y="905" on="0"/>
        <pt x="728" y="984" on="1"/>
        <pt x="728" y="1058" on="0"/>
        <pt x="631" y="1148" on="0"/>
        <pt x="551" y="1148" on="1"/>
        <pt x="495" y="1148" on="0"/>
        <pt x="394" y="1110" on="0"/>
        <pt x="302" y="1048" on="1"/>
        <pt x="227" y="1168" on="1"/>
        <pt x="389" y="1284" on="0"/>
        <pt x="539" y="1284" on="1"/>
        <pt x="697" y="1284" on="0"/>
        <pt x="893" y="1100" on="0"/>
        <pt x="893" y="959" on="1"/>
        <pt x="893" y="792" on="0"/>
        <pt x="742" y="695" on="1"/>
        <pt x="852" y="613" on="0"/>
        <pt x="948" y="440" on="0"/>
        <pt x="948" y="335" on="1"/>
        <pt x="948" y="185" on="0"/>
        <pt x="735" y="-10" on="0"/>
        <pt x="573" y="-10" on="1"/>
        <pt x="466" y="-10" on="0"/>
        <pt x="292" y="77" on="0"/>
        <pt x="145" y="225" on="0"/>
        <pt x="70" y="352" on="1"/>
        <pt x="173" y="419" on="1"/>
        <pt x="258" y="296" on="0"/>
        <pt x="362" y="195" on="0"/>
        <pt x="481" y="135" on="0"/>
        <pt x="553" y="135" on="1"/>
        <pt x="651" y="135" on="0"/>
        <pt x="782" y="258" on="0"/>
        <pt x="782" y="355" on="1"/>
        <pt x="782" y="436" on="0"/>
        <pt x="711" y="573" on="0"/>
        <pt x="623" y="636" on="1"/>
        <pt x="513" y="596" on="0"/>
        <pt x="360" y="568" on="1"/>
      </contour>
    </TTGlyph>
    <TTGlyph name="glyph00012" xMin="70" yMin="-10" xMax="1387" yMax="1284">
      <contour>
        <pt x="316" y="703" on="1"/>
        <pt x="510" y="740" on="0"/>
        <pt x="655" y="806" on="0"/>
        <pt x="728" y="905" on="0"/>
        <pt x="728" y="984" on="1"/>
        <pt x="728" y="1058" on="0"/>
        <pt x="631" y="1148" on="0"/>
        <pt x="551" y="1148" on="1"/>
        <pt x="495" y="1148" on="0"/>
        <pt x="394" y="1110" on="0"/>
        <pt x="302" y="1048" on="1"/>
        <pt x="227" y="1168" on="1"/>
        <pt x="389" y="1284" on="0"/>
        <pt x="539" y="1284" on="1"/>
        <pt x="697" y="1284" on="0"/>
        <pt x="893" y="1100" on="0"/>
        <pt x="893" y="959" on="1"/>
        <pt x="893" y="880" on="0"/>
        <pt x="860" y="818" on="1"/>
        <pt x="939" y="845" on="0"/>
        <pt x="1014" y="845" on="1"/>
        <pt x="1186" y="845" on="0"/>
        <pt x="1387" y="644" on="0"/>
        <pt x="1387" y="482" on="1"/>
        <pt x="1387" y="359" on="0"/>
        <pt x="1311" y="125" on="0"/>
        <pt x="1251" y="5" on="1"/>
        <pt x="1088" y="56" on="1"/>
        <pt x="1222" y="314" on="0"/>
        <pt x="1222" y="490" on="1"/>
        <pt x="1222" y="593" on="0"/>
        <pt x="1118" y="700" on="0"/>
        <pt x="1024" y="700" on="1"/>
        <pt x="914" y="700" on="0"/>
        <pt x="783" y="663" on="1"/>
        <pt x="863" y="596" on="0"/>
        <pt x="948" y="439" on="0"/>
        <pt x="948" y="335" on="1"/>
        <pt x="948" y="185" on="0"/>
        <pt x="735" y="-10" on="0"/>
        <pt x="573" y="-10" on="1"/>
        <pt x="466" y="-10" on="0"/>
        <pt x="292" y="77" on="0"/>
        <pt x="145" y="225" on="0"/>
        <pt x="70" y="352" on="1"/>
        <pt x="173" y="419" on="1"/>
        <pt x="258" y="296" on="0"/>
        <pt x="362" y="195" on="0"/>
        <pt x="481" y="135" on="0"/>
        <pt x="553" y="135" on="1"/>
        <pt x="651" y="135" on="0"/>
        <pt x="782" y="258" on="0"/>
        <pt x="782" y="355" on="1"/>
        <pt x="782" y="436" on="0"/>
        <pt x="711" y="573" on="0"/>
        <pt x="623" y="636" on="1"/>
        <pt x="513" y="596" on="0"/>
        <pt x="360" y="568" on="1"/>
      </contour>
    </TTGlyph>
    <TTGlyph name="glyph00013" xMin="150" yMin="-303" xMax="1125" yMax="1274">
      <contour>
        <pt x="995" y="690" on="1"/>
        <pt x="995" y="548" on="0"/>
        <pt x="833" y="384" on="0"/>
        <pt x="697" y="384" on="1"/>
        <pt x="588" y="384" on="0"/>
        <pt x="405" y="470" on="0"/>
        <pt x="315" y="548" on="1"/>
        <pt x="319" y="456" on="0"/>
        <pt x="374" y="307" on="0"/>
        <pt x="474" y="182" on="0"/>
        <pt x="623" y="71" on="0"/>
        <pt x="835" y="-44" on="0"/>
        <pt x="1125" y="-175" on="1"/>
        <pt x="1061" y="-303" on="1"/>
        <pt x="742" y="-162" on="0"/>
        <pt x="507" y="-32" on="0"/>
        <pt x="332" y="106" on="0"/>
        <pt x="214" y="270" on="0"/>
        <pt x="150" y="471" on="0"/>
        <pt x="150" y="601" on="1"/>
        <pt x="150" y="1274" on="1"/>
        <pt x="315" y="1274" on="1"/>
        <pt x="315" y="720" on="1"/>
        <pt x="506" y="529" on="0"/>
        <pt x="671" y="529" on="1"/>
        <pt x="830" y="529" on="0"/>
        <pt x="830" y="717" on="1"/>
        <pt x="830" y="1274" on="1"/>
        <pt x="995" y="1274" on="1"/>
      </contour>
    </TTGlyph>
    <TTGlyph name="glyph00014" xMin="60" yMin="-303" xMax="1121" yMax="1856">
      <contour>
        <pt x="991" y="690" on="1"/>
        <pt x="991" y="548" on="0"/>
        <pt x="829" y="384" on="0"/>
        <pt x="693" y="384" on="1"/>
        <pt x="584" y="384" on="0"/>
        <pt x="401" y="470" on="0"/>
        <pt x="311" y="548" on="1"/>
        <pt x="315" y="456" on="0"/>
        <pt x="370" y="307" on="0"/>
        <pt x="470" y="182" on="0"/>
        <pt x="619" y="71" on="0"/>
        <pt x="831" y="-44" on="0"/>
        <pt x="1121" y="-175" on="1"/>
        <pt x="1057" y="-303" on="1"/>
        <pt x="738" y="-162" on="0"/>
        <pt x="503" y="-32" on="0"/>
        <pt x="328" y="106" on="0"/>
        <pt x="210" y="270" on="0"/>
        <pt x="146" y="471" on="0"/>
        <pt x="146" y="601" on="1"/>
        <pt x="146" y="1274" on="1"/>
        <pt x="311" y="1274" on="1"/>
        <pt x="311" y="720" on="1"/>
        <pt x="502" y="529" on="0"/>
        <pt x="667" y="529" on="1"/>
        <pt x="826" y="529" on="0"/>
        <pt x="826" y="717" on="1"/>
        <pt x="826" y="1274" on="1"/>
        <pt x="991" y="1274" on="1"/>
      </contour>
      <contour>
        <pt x="131" y="1856" on="1"/>
        <pt x="989" y="1489" on="1"/>
        <pt x="936" y="1380" on="1"/>
        <pt x="60" y="1708" on="1"/>
      </contour>
    </TTGlyph>
    <TTGlyph name="glyph00015" xMin="80" yMin="0" xMax="1602" yMax="1856">
      <contour>
        <pt x="1437" y="1274" on="1"/>
        <pt x="1602" y="1274" on="1"/>
        <pt x="1602" y="0" on="1"/>
        <pt x="1437" y="0" on="1"/>
      </contour>
      <contour>
        <pt x="692" y="1856" on="1"/>
        <pt x="1550" y="1489" on="1"/>
        <pt x="1497" y="1380" on="1"/>
        <pt x="621" y="1708" on="1"/>
      </contour>
      <contour>
        <pt x="382" y="1000" on="1"/>
        <pt x="382" y="894" on="0"/>
        <pt x="468" y="786" on="1"/>
        <pt x="588" y="889" on="0"/>
        <pt x="588" y="1015" on="1"/>
        <pt x="588" y="1066" on="0"/>
        <pt x="538" y="1139" on="0"/>
        <pt x="490" y="1139" on="1"/>
        <pt x="440" y="1139" on="0"/>
        <pt x="382" y="1060" on="0"/>
      </contour>
      <contour>
        <pt x="403" y="80" on="1"/>
        <pt x="315" y="210" on="1"/>
        <pt x="689" y="431" on="1"/>
        <pt x="565" y="525" on="0"/>
        <pt x="481" y="598" on="1"/>
        <pt x="377" y="530" on="0"/>
        <pt x="153" y="427" on="1"/>
        <pt x="80" y="572" on="1"/>
        <pt x="263" y="649" on="0"/>
        <pt x="365" y="711" on="1"/>
        <pt x="217" y="874" on="0"/>
        <pt x="217" y="1031" on="1"/>
        <pt x="217" y="1142" on="0"/>
        <pt x="358" y="1284" on="0"/>
        <pt x="470" y="1284" on="1"/>
        <pt x="554" y="1284" on="0"/>
        <pt x="682" y="1205" on="0"/>
        <pt x="753" y="1070" on="0"/>
        <pt x="753" y="995" on="1"/>
        <pt x="753" y="818" on="0"/>
        <pt x="580" y="671" on="1"/>
        <pt x="659" y="601" on="0"/>
        <pt x="798" y="496" on="1"/>
        <pt x="932" y="576" on="1"/>
        <pt x="932" y="1274" on="1"/>
        <pt x="1097" y="1274" on="1"/>
        <pt x="1097" y="0" on="1"/>
        <pt x="932" y="0" on="1"/>
        <pt x="932" y="303" on="1"/>
        <pt x="932" y="402" on="0"/>
        <pt x="937" y="419" on="1"/>
        <pt x="932" y="419" on="1"/>
      </contour>
    </TTGlyph>
    <TTGlyph name="glyph00016" xMin="80" yMin="0" xMax="1602" yMax="2097">
      <contour>
        <pt x="1503" y="1380" on="1"/>
        <pt x="627" y="1708" on="1"/>
        <pt x="698" y="1856" on="1"/>
        <pt x="1252" y="1619" on="1"/>
        <pt x="1328" y="1586" on="0"/>
        <pt x="1423" y="1527" on="1"/>
        <pt x="1431" y="1535" on="1"/>
        <pt x="1401" y="1593" on="0"/>
        <pt x="1300" y="1713" on="0"/>
        <pt x="1168" y="1840" on="1"/>
        <pt x="1015" y="1989" on="1"/>
        <pt x="1127" y="2097" on="1"/>
        <pt x="1316" y="1908" on="0"/>
        <pt x="1518" y="1627" on="0"/>
        <pt x="1556" y="1489" on="1"/>
      </contour>
      <contour>
        <pt x="1437" y="1274" on="1"/>
        <pt x="1602" y="1274" on="1"/>
        <pt x="1602" y="0" on="1"/>
        <pt x="1437" y="0" on="1"/>
      </contour>
      <contour>
        <pt x="382" y="1000" on="1"/>
        <pt x="382" y="894" on="0"/>
        <pt x="468" y="786" on="1"/>
        <pt x="588" y="889" on="0"/>
        <pt x="588" y="1015" on="1"/>
        <pt x="588" y="1066" on="0"/>
        <pt x="538" y="1139" on="0"/>
        <pt x="490" y="1139" on="1"/>
        <pt x="440" y="1139" on="0"/>
        <pt x="382" y="1060" on="0"/>
      </contour>
      <contour>
        <pt x="403" y="80" on="1"/>
        <pt x="315" y="210" on="1"/>
        <pt x="689" y="431" on="1"/>
        <pt x="565" y="525" on="0"/>
        <pt x="481" y="598" on="1"/>
        <pt x="377" y="530" on="0"/>
        <pt x="153" y="427" on="1"/>
        <pt x="80" y="572" on="1"/>
        <pt x="263" y="649" on="0"/>
        <pt x="365" y="711" on="1"/>
        <pt x="217" y="874" on="0"/>
        <pt x="217" y="1031" on="1"/>
        <pt x="217" y="1142" on="0"/>
        <pt x="358" y="1284" on="0"/>
        <pt x="470" y="1284" on="1"/>
        <pt x="554" y="1284" on="0"/>
        <pt x="682" y="1205" on="0"/>
        <pt x="753" y="1070" on="0"/>
        <pt x="753" y="995" on="1"/>
        <pt x="753" y="818" on="0"/>
        <pt x="580" y="671" on="1"/>
        <pt x="659" y="601" on="0"/>
        <pt x="798" y="496" on="1"/>
        <pt x="932" y="576" on="1"/>
        <pt x="932" y="1274" on="1"/>
        <pt x="1097" y="1274" on="1"/>
        <pt x="1097" y="0" on="1"/>
        <pt x="932" y="0" on="1"/>
        <pt x="932" y="303" on="1"/>
        <pt x="932" y="402" on="0"/>
        <pt x="937" y="419" on="1"/>
        <pt x="932" y="419" on="1"/>
      </contour>
    </TTGlyph>
    <TTGlyph name="glyph00017" xMin="95" yMin="0" xMax="1429" yMax="1400">
      <contour>
        <pt x="727" y="322" on="1"/>
        <pt x="727" y="421" on="0"/>
        <pt x="732" y="438" on="1"/>
        <pt x="727" y="438" on="1"/>
        <pt x="602" y="340" on="0"/>
        <pt x="459" y="340" on="1"/>
        <pt x="303" y="340" on="0"/>
        <pt x="95" y="533" on="0"/>
        <pt x="95" y="678" on="1"/>
        <pt x="95" y="814" on="0"/>
        <pt x="299" y="991" on="0"/>
        <pt x="452" y="991" on="1"/>
        <pt x="598" y="991" on="0"/>
        <pt x="727" y="904" on="1"/>
        <pt x="727" y="1274" on="1"/>
        <pt x="892" y="1274" on="1"/>
        <pt x="892" y="951" on="1"/>
        <pt x="892" y="855" on="0"/>
        <pt x="887" y="815" on="1"/>
        <pt x="892" y="815" on="1"/>
        <pt x="999" y="911" on="0"/>
        <pt x="1131" y="911" on="1"/>
        <pt x="1266" y="911" on="0"/>
        <pt x="1429" y="735" on="0"/>
        <pt x="1429" y="591" on="1"/>
        <pt x="1429" y="391" on="0"/>
        <pt x="1320" y="151" on="1"/>
        <pt x="1163" y="202" on="1"/>
        <pt x="1264" y="432" on="0"/>
        <pt x="1264" y="611" on="1"/>
        <pt x="1264" y="766" on="0"/>
        <pt x="1146" y="766" on="1"/>
        <pt x="1089" y="766" on="0"/>
        <pt x="969" y="691" on="0"/>
        <pt x="892" y="603" on="1"/>
        <pt x="892" y="0" on="1"/>
        <pt x="727" y="0" on="1"/>
      </contour>
      <contour>
        <pt x="439" y="484" on="1"/>
        <pt x="584" y="484" on="0"/>
        <pt x="727" y="637" on="1"/>
        <pt x="727" y="779" on="1"/>
        <pt x="598" y="846" on="0"/>
        <pt x="472" y="846" on="1"/>
        <pt x="384" y="846" on="0"/>
        <pt x="260" y="741" on="0"/>
        <pt x="260" y="658" on="1"/>
        <pt x="260" y="578" on="0"/>
        <pt x="359" y="484" on="0"/>
      </contour>
      <contour>
        <pt x="820" y="1400" on="1"/>
      </contour>
      <contour>
        <pt x="810" y="0" on="1"/>
      </contour>
    </TTGlyph>
    <TTGlyph name="glyph00018" xMin="130" yMin="0" xMax="1327" yMax="1400">
      <contour>
        <pt x="467" y="435" on="1"/>
        <pt x="311" y="435" on="0"/>
        <pt x="130" y="618" on="0"/>
        <pt x="130" y="772" on="1"/>
        <pt x="130" y="1274" on="1"/>
        <pt x="295" y="1274" on="1"/>
        <pt x="295" y="756" on="1"/>
        <pt x="295" y="579" on="0"/>
        <pt x="432" y="579" on="1"/>
        <pt x="548" y="579" on="0"/>
        <pt x="644" y="680" on="1"/>
        <pt x="630" y="745" on="0"/>
        <pt x="630" y="821" on="1"/>
        <pt x="630" y="1274" on="1"/>
        <pt x="795" y="1274" on="1"/>
        <pt x="795" y="756" on="1"/>
        <pt x="795" y="661" on="0"/>
        <pt x="855" y="579" on="0"/>
        <pt x="932" y="579" on="1"/>
        <pt x="1056" y="579" on="0"/>
        <pt x="1162" y="701" on="1"/>
        <pt x="1162" y="1274" on="1"/>
        <pt x="1327" y="1274" on="1"/>
        <pt x="1327" y="0" on="1"/>
        <pt x="1162" y="0" on="1"/>
        <pt x="1162" y="332" on="1"/>
        <pt x="1162" y="468" on="0"/>
        <pt x="1167" y="503" on="1"/>
        <pt x="1162" y="503" on="1"/>
        <pt x="1130" y="475" on="0"/>
        <pt x="1027" y="435" on="0"/>
        <pt x="967" y="435" on="1"/>
        <pt x="810" y="435" on="0"/>
        <pt x="725" y="522" on="1"/>
        <pt x="720" y="522" on="1"/>
        <pt x="678" y="484" on="0"/>
        <pt x="542" y="435" on="0"/>
      </contour>
      <contour>
        <pt x="1240" y="1400" on="1"/>
      </contour>
      <contour>
        <pt x="1240" y="0" on="1"/>
      </contour>
    </TTGlyph>
    <TTGlyph name="glyph00019" xMin="80" yMin="0" xMax="1075" yMax="1400">
      <contour>
        <pt x="578" y="640" on="1"/>
        <pt x="578" y="735" on="0"/>
        <pt x="531" y="917" on="0"/>
        <pt x="455" y="1086" on="0"/>
        <pt x="375" y="1212" on="1"/>
        <pt x="506" y="1287" on="1"/>
        <pt x="742" y="929" on="0"/>
        <pt x="742" y="605" on="1"/>
        <pt x="742" y="504" on="0"/>
        <pt x="666" y="350" on="0"/>
        <pt x="532" y="268" on="0"/>
        <pt x="453" y="268" on="1"/>
        <pt x="352" y="268" on="0"/>
        <pt x="154" y="416" on="0"/>
        <pt x="80" y="542" on="1"/>
        <pt x="190" y="614" on="1"/>
        <pt x="322" y="413" on="0"/>
        <pt x="436" y="413" on="1"/>
        <pt x="505" y="413" on="0"/>
        <pt x="578" y="536" on="0"/>
      </contour>
      <contour>
        <pt x="910" y="1274" on="1"/>
        <pt x="1075" y="1274" on="1"/>
        <pt x="1075" y="0" on="1"/>
        <pt x="910" y="0" on="1"/>
      </contour>
      <contour>
        <pt x="1000" y="1400" on="1"/>
      </contour>
      <contour>
        <pt x="980" y="0" on="1"/>
      </contour>
    </TTGlyph>
    <TTGlyph name="glyph00020" xMin="140" yMin="0" xMax="1068" yMax="1400">
      <contour>
        <pt x="903" y="161" on="1"/>
        <pt x="903" y="260" on="0"/>
        <pt x="908" y="277" on="1"/>
        <pt x="903" y="277" on="1"/>
        <pt x="759" y="200" on="0"/>
        <pt x="580" y="200" on="1"/>
        <pt x="387" y="200" on="0"/>
        <pt x="140" y="380" on="0"/>
        <pt x="140" y="525" on="1"/>
        <pt x="140" y="682" on="0"/>
        <pt x="305" y="776" on="1"/>
        <pt x="173" y="883" on="0"/>
        <pt x="173" y="1003" on="1"/>
        <pt x="173" y="1284" on="0"/>
        <pt x="646" y="1284" on="1"/>
        <pt x="657" y="1139" on="1"/>
        <pt x="494" y="1139" on="0"/>
        <pt x="339" y="1058" on="0"/>
        <pt x="339" y="973" on="1"/>
        <pt x="339" y="898" on="0"/>
        <pt x="420" y="824" on="1"/>
        <pt x="542" y="862" on="0"/>
        <pt x="692" y="862" on="1"/>
        <pt x="712" y="697" on="1"/>
        <pt x="517" y="697" on="0"/>
        <pt x="305" y="598" on="0"/>
        <pt x="305" y="504" on="1"/>
        <pt x="305" y="429" on="0"/>
        <pt x="446" y="344" on="0"/>
        <pt x="558" y="344" on="1"/>
        <pt x="747" y="344" on="0"/>
        <pt x="903" y="452" on="1"/>
        <pt x="903" y="1274" on="1"/>
        <pt x="1068" y="1274" on="1"/>
        <pt x="1068" y="0" on="1"/>
        <pt x="903" y="0" on="1"/>
      </contour>
      <contour>
        <pt x="1000" y="1400" on="1"/>
      </contour>
      <contour>
        <pt x="980" y="0" on="1"/>
      </contour>
    </TTGlyph>
    <TTGlyph name="glyph00021" xMin="150" yMin="-10" xMax="1125" yMax="1400">
      <contour>
        <pt x="943" y="1245" on="1"/>
        <pt x="785" y="790" on="1"/>
        <pt x="960" y="712" on="0"/>
        <pt x="1125" y="498" on="0"/>
        <pt x="1125" y="358" on="1"/>
        <pt x="1125" y="256" on="0"/>
        <pt x="1018" y="85" on="0"/>
        <pt x="828" y="-10" on="0"/>
        <pt x="713" y="-10" on="1"/>
        <pt x="556" y="-10" on="0"/>
        <pt x="298" y="147" on="0"/>
        <pt x="150" y="428" on="0"/>
        <pt x="150" y="597" on="1"/>
        <pt x="150" y="762" on="0"/>
        <pt x="237" y="1068" on="0"/>
        <pt x="351" y="1284" on="1"/>
        <pt x="508" y="1248" on="1"/>
        <pt x="392" y="1011" on="0"/>
        <pt x="315" y="728" on="0"/>
        <pt x="315" y="587" on="1"/>
        <pt x="315" y="459" on="0"/>
        <pt x="413" y="251" on="0"/>
        <pt x="591" y="135" on="0"/>
        <pt x="703" y="135" on="1"/>
        <pt x="819" y="135" on="0"/>
        <pt x="960" y="262" on="0"/>
        <pt x="960" y="368" on="1"/>
        <pt x="960" y="479" on="0"/>
        <pt x="786" y="666" on="0"/>
        <pt x="599" y="739" on="1"/>
        <pt x="775" y="1284" on="1"/>
      </contour>
      <contour>
        <pt x="830" y="1400" on="1"/>
      </contour>
      <contour>
        <pt x="700" y="0" on="1"/>
      </contour>
    </TTGlyph>
    <TTGlyph name="glyph00022" xMin="60" yMin="0" xMax="979" yMax="1400">
      <contour>
        <pt x="814" y="202" on="1"/>
        <pt x="814" y="301" on="0"/>
        <pt x="819" y="318" on="1"/>
        <pt x="814" y="318" on="1"/>
        <pt x="710" y="268" on="0"/>
        <pt x="570" y="268" on="1"/>
        <pt x="436" y="268" on="0"/>
        <pt x="179" y="414" on="0"/>
        <pt x="60" y="571" on="1"/>
        <pt x="174" y="663" on="1"/>
        <pt x="280" y="747" on="0"/>
        <pt x="382" y="892" on="0"/>
        <pt x="382" y="959" on="1"/>
        <pt x="382" y="1029" on="0"/>
        <pt x="303" y="1135" on="0"/>
        <pt x="236" y="1186" on="1"/>
        <pt x="323" y="1284" on="1"/>
        <pt x="447" y="1196" on="0"/>
        <pt x="547" y="1035" on="0"/>
        <pt x="547" y="942" on="1"/>
        <pt x="547" y="873" on="0"/>
        <pt x="489" y="749" on="0"/>
        <pt x="386" y="628" on="0"/>
        <pt x="274" y="533" on="1"/>
        <pt x="388" y="413" on="0"/>
        <pt x="549" y="413" on="1"/>
        <pt x="706" y="413" on="0"/>
        <pt x="814" y="495" on="1"/>
        <pt x="814" y="1274" on="1"/>
        <pt x="979" y="1274" on="1"/>
        <pt x="979" y="0" on="1"/>
        <pt x="814" y="0" on="1"/>
      </contour>
      <contour>
        <pt x="900" y="1400" on="1"/>
      </contour>
      <contour>
        <pt x="900" y="0" on="1"/>
      </contour>
    </TTGlyph>
    <TTGlyph name="glyph00023" xMin="130" yMin="-11" xMax="1423" yMax="1400">
      <contour>
        <pt x="598" y="134" on="1"/>
        <pt x="852" y="134" on="0"/>
        <pt x="1023" y="301" on="1"/>
        <pt x="768" y="621" on="0"/>
        <pt x="768" y="914" on="1"/>
        <pt x="768" y="1090" on="0"/>
        <pt x="928" y="1284" on="0"/>
        <pt x="1069" y="1284" on="1"/>
        <pt x="1167" y="1284" on="0"/>
        <pt x="1319" y="1173" on="0"/>
        <pt x="1402" y="979" on="0"/>
        <pt x="1402" y="863" on="1"/>
        <pt x="1402" y="710" on="0"/>
        <pt x="1306" y="408" on="0"/>
        <pt x="1217" y="289" on="1"/>
        <pt x="1302" y="195" on="0"/>
        <pt x="1423" y="88" on="1"/>
        <pt x="1331" y="-11" on="1"/>
        <pt x="1227" y="76" on="0"/>
        <pt x="1124" y="184" on="1"/>
        <pt x="917" y="-10" on="0"/>
        <pt x="620" y="-10" on="1"/>
        <pt x="405" y="-10" on="0"/>
        <pt x="130" y="206" on="0"/>
        <pt x="130" y="385" on="1"/>
        <pt x="130" y="559" on="0"/>
        <pt x="287" y="665" on="1"/>
        <pt x="224" y="723" on="0"/>
        <pt x="153" y="866" on="0"/>
        <pt x="153" y="943" on="1"/>
        <pt x="153" y="1104" on="0"/>
        <pt x="389" y="1284" on="0"/>
        <pt x="606" y="1284" on="1"/>
        <pt x="617" y="1139" on="1"/>
        <pt x="470" y="1139" on="0"/>
        <pt x="319" y="1024" on="0"/>
        <pt x="319" y="913" on="1"/>
        <pt x="319" y="803" on="0"/>
        <pt x="400" y="722" on="1"/>
        <pt x="512" y="762" on="0"/>
        <pt x="652" y="762" on="1"/>
        <pt x="672" y="597" on="1"/>
        <pt x="489" y="597" on="0"/>
        <pt x="295" y="475" on="0"/>
        <pt x="295" y="364" on="1"/>
        <pt x="295" y="259" on="0"/>
        <pt x="461" y="134" on="0"/>
      </contour>
      <contour>
        <pt x="933" y="904" on="1"/>
        <pt x="933" y="774" on="0"/>
        <pt x="1023" y="534" on="0"/>
        <pt x="1114" y="412" on="1"/>
        <pt x="1237" y="603" on="0"/>
        <pt x="1237" y="863" on="1"/>
        <pt x="1237" y="996" on="0"/>
        <pt x="1154" y="1139" on="0"/>
        <pt x="1079" y="1139" on="1"/>
        <pt x="1010" y="1139" on="0"/>
        <pt x="933" y="1017" on="0"/>
      </contour>
      <contour>
        <pt x="1080" y="1400" on="1"/>
      </contour>
      <contour>
        <pt x="615" y="0" on="1"/>
      </contour>
    </TTGlyph>
    <TTGlyph name="glyph00024" xMin="131" yMin="0" xMax="1257" yMax="1400">
      <contour>
        <pt x="296" y="1274" on="1"/>
        <pt x="296" y="467" on="1"/>
        <pt x="296" y="240" on="0"/>
        <pt x="443" y="240" on="1"/>
        <pt x="522" y="240" on="0"/>
        <pt x="608" y="353" on="0"/>
        <pt x="608" y="468" on="1"/>
        <pt x="608" y="913" on="1"/>
        <pt x="608" y="1284" on="0"/>
        <pt x="917" y="1284" on="1"/>
        <pt x="1067" y="1284" on="0"/>
        <pt x="1257" y="1051" on="0"/>
        <pt x="1257" y="872" on="1"/>
        <pt x="1257" y="0" on="1"/>
        <pt x="1092" y="0" on="1"/>
        <pt x="1092" y="882" on="1"/>
        <pt x="1092" y="1017" on="0"/>
        <pt x="1008" y="1139" on="0"/>
        <pt x="927" y="1139" on="1"/>
        <pt x="853" y="1139" on="0"/>
        <pt x="773" y="1017" on="0"/>
        <pt x="773" y="903" on="1"/>
        <pt x="773" y="458" on="1"/>
        <pt x="773" y="291" on="0"/>
        <pt x="601" y="95" on="0"/>
        <pt x="453" y="95" on="1"/>
        <pt x="303" y="95" on="0"/>
        <pt x="131" y="299" on="0"/>
        <pt x="131" y="477" on="1"/>
        <pt x="131" y="1274" on="1"/>
      </contour>
      <contour>
        <pt x="920" y="1400" on="1"/>
      </contour>
      <contour>
        <pt x="1160" y="0" on="1"/>
      </contour>
    </TTGlyph>
    <TTGlyph name="glyph00025" xMin="85" yMin="-405" xMax="1159" yMax="1400">
      <contour>
        <pt x="250" y="128" on="1"/>
        <pt x="250" y="-43" on="0"/>
        <pt x="496" y="-260" on="0"/>
        <pt x="700" y="-260" on="1"/>
        <pt x="796" y="-260" on="0"/>
        <pt x="1009" y="-211" on="0"/>
        <pt x="1110" y="-161" on="1"/>
        <pt x="1159" y="-300" on="1"/>
        <pt x="1036" y="-357" on="0"/>
        <pt x="816" y="-405" on="0"/>
        <pt x="710" y="-405" on="1"/>
        <pt x="538" y="-405" on="0"/>
        <pt x="250" y="-263" on="0"/>
        <pt x="85" y="-12" on="0"/>
        <pt x="85" y="138" on="1"/>
        <pt x="85" y="306" on="0"/>
        <pt x="322" y="596" on="0"/>
        <pt x="525" y="678" on="1"/>
        <pt x="404" y="799" on="0"/>
        <pt x="404" y="943" on="1"/>
        <pt x="404" y="1109" on="0"/>
        <pt x="670" y="1284" on="0"/>
        <pt x="927" y="1284" on="1"/>
        <pt x="938" y="1139" on="1"/>
        <pt x="758" y="1139" on="0"/>
        <pt x="570" y="1030" on="0"/>
        <pt x="570" y="913" on="1"/>
        <pt x="570" y="801" on="0"/>
        <pt x="652" y="721" on="1"/>
        <pt x="804" y="762" on="0"/>
        <pt x="973" y="762" on="1"/>
        <pt x="993" y="597" on="1"/>
        <pt x="746" y="597" on="0"/>
        <pt x="536" y="481" on="0"/>
        <pt x="536" y="354" on="1"/>
        <pt x="536" y="253" on="0"/>
        <pt x="670" y="134" on="0"/>
        <pt x="779" y="134" on="1"/>
        <pt x="940" y="134" on="0"/>
        <pt x="1090" y="234" on="1"/>
        <pt x="1140" y="87" on="1"/>
        <pt x="982" y="-10" on="0"/>
        <pt x="801" y="-10" on="1"/>
        <pt x="615" y="-10" on="0"/>
        <pt x="381" y="201" on="0"/>
        <pt x="381" y="374" on="1"/>
        <pt x="381" y="417" on="0"/>
        <pt x="392" y="446" on="1"/>
        <pt x="389" y="448" on="1"/>
        <pt x="309" y="374" on="0"/>
        <pt x="250" y="225" on="0"/>
      </contour>
      <contour>
        <pt x="820" y="1400" on="1"/>
      </contour>
      <contour>
        <pt x="720" y="-380" on="1"/>
      </contour>
    </TTGlyph>
    <TTGlyph name="glyph00026" xMin="50" yMin="0" xMax="1149" yMax="1400">
      <contour>
        <pt x="984" y="484" on="1"/>
        <pt x="984" y="583" on="0"/>
        <pt x="989" y="600" on="1"/>
        <pt x="984" y="600" on="1"/>
        <pt x="898" y="595" on="1"/>
        <pt x="840" y="595" on="0"/>
        <pt x="790" y="605" on="1"/>
        <pt x="763" y="450" on="0"/>
        <pt x="558" y="269" on="0"/>
        <pt x="411" y="269" on="1"/>
        <pt x="303" y="269" on="0"/>
        <pt x="120" y="371" on="0"/>
        <pt x="50" y="454" on="1"/>
        <pt x="138" y="539" on="1"/>
        <pt x="211" y="469" on="0"/>
        <pt x="324" y="414" on="0"/>
        <pt x="397" y="414" on="1"/>
        <pt x="507" y="414" on="0"/>
        <pt x="634" y="576" on="0"/>
        <pt x="634" y="716" on="1"/>
        <pt x="634" y="833" on="0"/>
        <pt x="509" y="983" on="0"/>
        <pt x="402" y="983" on="1"/>
        <pt x="285" y="983" on="0"/>
        <pt x="172" y="885" on="1"/>
        <pt x="76" y="1000" on="1"/>
        <pt x="225" y="1128" on="0"/>
        <pt x="392" y="1128" on="1"/>
        <pt x="501" y="1128" on="0"/>
        <pt x="680" y="1026" on="0"/>
        <pt x="789" y="847" on="0"/>
        <pt x="798" y="739" on="1"/>
        <pt x="838" y="735" on="0"/>
        <pt x="883" y="735" on="1"/>
        <pt x="937" y="735" on="0"/>
        <pt x="984" y="744" on="1"/>
        <pt x="984" y="1274" on="1"/>
        <pt x="1149" y="1274" on="1"/>
        <pt x="1149" y="0" on="1"/>
        <pt x="984" y="0" on="1"/>
      </contour>
      <contour>
        <pt x="1060" y="1400" on="1"/>
      </contour>
      <contour>
        <pt x="1060" y="0" on="1"/>
      </contour>
    </TTGlyph>
    <TTGlyph name="glyph00027" xMin="100" yMin="-10" xMax="1081" yMax="1400">
      <contour>
        <pt x="739" y="1274" on="1"/>
        <pt x="739" y="1032" on="1"/>
        <pt x="739" y="938" on="0"/>
        <pt x="623" y="764" on="0"/>
        <pt x="502" y="668" on="1"/>
        <pt x="374" y="566" on="0"/>
        <pt x="265" y="416" on="0"/>
        <pt x="265" y="339" on="1"/>
        <pt x="265" y="244" on="0"/>
        <pt x="411" y="135" on="0"/>
        <pt x="533" y="135" on="1"/>
        <pt x="638" y="135" on="0"/>
        <pt x="850" y="223" on="0"/>
        <pt x="976" y="331" on="1"/>
        <pt x="1081" y="206" on="1"/>
        <pt x="833" y="-10" on="0"/>
        <pt x="548" y="-10" on="1"/>
        <pt x="428" y="-10" on="0"/>
        <pt x="221" y="89" on="0"/>
        <pt x="100" y="263" on="0"/>
        <pt x="100" y="364" on="1"/>
        <pt x="100" y="460" on="0"/>
        <pt x="214" y="637" on="0"/>
        <pt x="337" y="736" on="1"/>
        <pt x="468" y="841" on="0"/>
        <pt x="574" y="986" on="0"/>
        <pt x="574" y="1062" on="1"/>
        <pt x="574" y="1274" on="1"/>
      </contour>
      <contour>
        <pt x="650" y="1400" on="1"/>
      </contour>
      <contour>
        <pt x="570" y="0" on="1"/>
      </contour>
    </TTGlyph>
    <TTGlyph name="glyph00028" xMin="100" yMin="-10" xMax="994" yMax="1400">
      <contour>
        <pt x="485" y="303" on="1"/>
        <pt x="424" y="398" on="0"/>
        <pt x="351" y="398" on="1"/>
        <pt x="308" y="398" on="0"/>
        <pt x="265" y="352" on="0"/>
        <pt x="265" y="317" on="1"/>
        <pt x="265" y="238" on="0"/>
        <pt x="440" y="135" on="0"/>
        <pt x="557" y="135" on="1"/>
        <pt x="683" y="135" on="0"/>
        <pt x="829" y="250" on="0"/>
        <pt x="829" y="346" on="1"/>
        <pt x="829" y="408" on="0"/>
        <pt x="738" y="512" on="0"/>
        <pt x="647" y="559" on="1"/>
        <pt x="454" y="659" on="0"/>
        <pt x="350" y="736" on="0"/>
        <pt x="285" y="821" on="0"/>
        <pt x="254" y="912" on="0"/>
        <pt x="254" y="967" on="1"/>
        <pt x="254" y="1114" on="0"/>
        <pt x="513" y="1284" on="0"/>
        <pt x="734" y="1284" on="1"/>
        <pt x="745" y="1139" on="1"/>
        <pt x="578" y="1139" on="0"/>
        <pt x="419" y="1040" on="0"/>
        <pt x="419" y="952" on="1"/>
        <pt x="419" y="903" on="0"/>
        <pt x="470" y="826" on="0"/>
        <pt x="557" y="760" on="0"/>
        <pt x="707" y="679" on="1"/>
        <pt x="828" y="613" on="0"/>
        <pt x="936" y="518" on="0"/>
        <pt x="994" y="407" on="0"/>
        <pt x="994" y="336" on="1"/>
        <pt x="994" y="231" on="0"/>
        <pt x="885" y="74" on="0"/>
        <pt x="689" y="-10" on="0"/>
        <pt x="567" y="-10" on="1"/>
        <pt x="441" y="-10" on="0"/>
        <pt x="226" y="81" on="0"/>
        <pt x="100" y="242" on="0"/>
        <pt x="100" y="337" on="1"/>
        <pt x="100" y="427" on="0"/>
        <pt x="232" y="543" on="0"/>
        <pt x="331" y="543" on="1"/>
        <pt x="414" y="543" on="0"/>
        <pt x="547" y="464" on="0"/>
        <pt x="600" y="374" on="1"/>
      </contour>
      <contour>
        <pt x="600" y="1400" on="1"/>
      </contour>
      <contour>
        <pt x="560" y="0" on="1"/>
      </contour>
    </TTGlyph>
    <TTGlyph name="glyph00029" xMin="100" yMin="-10" xMax="1116" yMax="1400">
      <contour>
        <pt x="809" y="1139" on="1"/>
        <pt x="615" y="1139" on="0"/>
        <pt x="409" y="989" on="0"/>
        <pt x="409" y="842" on="1"/>
        <pt x="409" y="765" on="0"/>
        <pt x="433" y="710" on="1"/>
        <pt x="505" y="710" on="0"/>
        <pt x="630" y="734" on="1"/>
        <pt x="755" y="758" on="0"/>
        <pt x="806" y="758" on="1"/>
        <pt x="940" y="758" on="0"/>
        <pt x="1116" y="539" on="0"/>
        <pt x="1116" y="378" on="1"/>
        <pt x="1116" y="207" on="0"/>
        <pt x="892" y="-10" on="0"/>
        <pt x="706" y="-10" on="1"/>
        <pt x="537" y="-10" on="0"/>
        <pt x="246" y="188" on="0"/>
        <pt x="100" y="427" on="1"/>
        <pt x="218" y="502" on="1"/>
        <pt x="356" y="294" on="0"/>
        <pt x="566" y="135" on="0"/>
        <pt x="685" y="135" on="1"/>
        <pt x="808" y="135" on="0"/>
        <pt x="951" y="275" on="0"/>
        <pt x="951" y="398" on="1"/>
        <pt x="951" y="537" on="0"/>
        <pt x="857" y="603" on="1"/>
        <pt x="808" y="603" on="0"/>
        <pt x="697" y="584" on="1"/>
        <pt x="586" y="565" on="0"/>
        <pt x="543" y="565" on="1"/>
        <pt x="409" y="565" on="0"/>
        <pt x="244" y="725" on="0"/>
        <pt x="244" y="852" on="1"/>
        <pt x="244" y="1053" on="0"/>
        <pt x="541" y="1284" on="0"/>
        <pt x="798" y="1284" on="1"/>
      </contour>
      <contour>
        <pt x="660" y="1400" on="1"/>
      </contour>
      <contour>
        <pt x="700" y="0" on="1"/>
      </contour>
    </TTGlyph>
    <TTGlyph name="glyph00030" xMin="100" yMin="-410" xMax="1116" yMax="1400">
      <contour>
        <pt x="809" y="1139" on="1"/>
        <pt x="615" y="1139" on="0"/>
        <pt x="409" y="989" on="0"/>
        <pt x="409" y="842" on="1"/>
        <pt x="409" y="765" on="0"/>
        <pt x="433" y="710" on="1"/>
        <pt x="505" y="710" on="0"/>
        <pt x="630" y="734" on="1"/>
        <pt x="755" y="758" on="0"/>
        <pt x="806" y="758" on="1"/>
        <pt x="940" y="758" on="0"/>
        <pt x="1116" y="539" on="0"/>
        <pt x="1116" y="378" on="1"/>
        <pt x="1116" y="207" on="0"/>
        <pt x="892" y="-10" on="0"/>
        <pt x="706" y="-10" on="1"/>
        <pt x="537" y="-10" on="0"/>
        <pt x="246" y="188" on="0"/>
        <pt x="100" y="427" on="1"/>
        <pt x="218" y="502" on="1"/>
        <pt x="356" y="294" on="0"/>
        <pt x="566" y="135" on="0"/>
        <pt x="685" y="135" on="1"/>
        <pt x="808" y="135" on="0"/>
        <pt x="951" y="275" on="0"/>
        <pt x="951" y="398" on="1"/>
        <pt x="951" y="537" on="0"/>
        <pt x="857" y="603" on="1"/>
        <pt x="808" y="603" on="0"/>
        <pt x="697" y="584" on="1"/>
        <pt x="586" y="565" on="0"/>
        <pt x="543" y="565" on="1"/>
        <pt x="409" y="565" on="0"/>
        <pt x="244" y="725" on="0"/>
        <pt x="244" y="852" on="1"/>
        <pt x="244" y="1053" on="0"/>
        <pt x="541" y="1284" on="0"/>
        <pt x="798" y="1284" on="1"/>
      </contour>
      <contour>
        <pt x="526" y="-287" on="1"/>
        <pt x="526" y="-229" on="0"/>
        <pt x="583" y="-167" on="0"/>
        <pt x="636" y="-167" on="1"/>
        <pt x="690" y="-167" on="0"/>
        <pt x="749" y="-229" on="0"/>
        <pt x="749" y="-287" on="1"/>
        <pt x="749" y="-345" on="0"/>
        <pt x="690" y="-410" on="0"/>
        <pt x="636" y="-410" on="1"/>
        <pt x="584" y="-410" on="0"/>
        <pt x="526" y="-345" on="0"/>
      </contour>
      <contour>
        <pt x="660" y="1400" on="1"/>
      </contour>
      <contour>
        <pt x="640" y="-400" on="1"/>
      </contour>
    </TTGlyph>
    <TTGlyph name="glyph00031" xMin="100" yMin="-10" xMax="1091" yMax="1400">
      <contour>
        <pt x="1091" y="321" on="1"/>
        <pt x="1091" y="225" on="0"/>
        <pt x="964" y="74" on="0"/>
        <pt x="744" y="-10" on="0"/>
        <pt x="613" y="-10" on="1"/>
        <pt x="474" y="-10" on="0"/>
        <pt x="236" y="95" on="0"/>
        <pt x="100" y="278" on="0"/>
        <pt x="100" y="389" on="1"/>
        <pt x="100" y="486" on="0"/>
        <pt x="213" y="655" on="0"/>
        <pt x="337" y="751" on="1"/>
        <pt x="460" y="846" on="0"/>
        <pt x="574" y="1010" on="0"/>
        <pt x="574" y="1102" on="1"/>
        <pt x="574" y="1274" on="1"/>
        <pt x="739" y="1274" on="1"/>
        <pt x="739" y="1062" on="1"/>
        <pt x="739" y="959" on="0"/>
        <pt x="622" y="779" on="0"/>
        <pt x="502" y="688" on="1"/>
        <pt x="371" y="588" on="0"/>
        <pt x="265" y="447" on="0"/>
        <pt x="265" y="369" on="1"/>
        <pt x="265" y="261" on="0"/>
        <pt x="446" y="135" on="0"/>
        <pt x="593" y="135" on="1"/>
        <pt x="674" y="140" on="1"/>
        <pt x="557" y="236" on="0"/>
        <pt x="557" y="347" on="1"/>
        <pt x="557" y="444" on="0"/>
        <pt x="707" y="572" on="0"/>
        <pt x="819" y="572" on="1"/>
        <pt x="896" y="572" on="0"/>
        <pt x="1020" y="504" on="0"/>
        <pt x="1091" y="386" on="0"/>
      </contour>
      <contour>
        <pt x="722" y="318" on="1"/>
        <pt x="722" y="241" on="0"/>
        <pt x="787" y="169" on="1"/>
        <pt x="850" y="193" on="0"/>
        <pt x="926" y="275" on="0"/>
        <pt x="926" y="331" on="1"/>
        <pt x="926" y="370" on="0"/>
        <pt x="874" y="427" on="0"/>
        <pt x="829" y="427" on="1"/>
        <pt x="783" y="427" on="0"/>
        <pt x="722" y="364" on="0"/>
      </contour>
      <contour>
        <pt x="660" y="1400" on="1"/>
      </contour>
      <contour>
        <pt x="570" y="0" on="1"/>
      </contour>
    </TTGlyph>
    <TTGlyph name="glyph00032" xMin="100" yMin="-400" xMax="1091" yMax="1400">
      <contour>
        <pt x="1091" y="321" on="1"/>
        <pt x="1091" y="225" on="0"/>
        <pt x="964" y="74" on="0"/>
        <pt x="744" y="-10" on="0"/>
        <pt x="613" y="-10" on="1"/>
        <pt x="474" y="-10" on="0"/>
        <pt x="236" y="95" on="0"/>
        <pt x="100" y="278" on="0"/>
        <pt x="100" y="389" on="1"/>
        <pt x="100" y="486" on="0"/>
        <pt x="213" y="655" on="0"/>
        <pt x="337" y="751" on="1"/>
        <pt x="460" y="846" on="0"/>
        <pt x="574" y="1010" on="0"/>
        <pt x="574" y="1102" on="1"/>
        <pt x="574" y="1274" on="1"/>
        <pt x="739" y="1274" on="1"/>
        <pt x="739" y="1062" on="1"/>
        <pt x="739" y="959" on="0"/>
        <pt x="622" y="779" on="0"/>
        <pt x="502" y="688" on="1"/>
        <pt x="371" y="588" on="0"/>
        <pt x="265" y="447" on="0"/>
        <pt x="265" y="369" on="1"/>
        <pt x="265" y="261" on="0"/>
        <pt x="446" y="135" on="0"/>
        <pt x="593" y="135" on="1"/>
        <pt x="674" y="140" on="1"/>
        <pt x="557" y="236" on="0"/>
        <pt x="557" y="347" on="1"/>
        <pt x="557" y="444" on="0"/>
        <pt x="707" y="572" on="0"/>
        <pt x="819" y="572" on="1"/>
        <pt x="896" y="572" on="0"/>
        <pt x="1020" y="504" on="0"/>
        <pt x="1091" y="386" on="0"/>
      </contour>
      <contour>
        <pt x="520" y="-269" on="1"/>
        <pt x="520" y="-211" on="0"/>
        <pt x="577" y="-149" on="0"/>
        <pt x="630" y="-149" on="1"/>
        <pt x="684" y="-149" on="0"/>
        <pt x="743" y="-211" on="0"/>
        <pt x="743" y="-269" on="1"/>
        <pt x="743" y="-327" on="0"/>
        <pt x="684" y="-392" on="0"/>
        <pt x="630" y="-392" on="1"/>
        <pt x="578" y="-392" on="0"/>
        <pt x="520" y="-327" on="0"/>
      </contour>
      <contour>
        <pt x="722" y="318" on="1"/>
        <pt x="722" y="241" on="0"/>
        <pt x="787" y="169" on="1"/>
        <pt x="850" y="193" on="0"/>
        <pt x="926" y="275" on="0"/>
        <pt x="926" y="331" on="1"/>
        <pt x="926" y="370" on="0"/>
        <pt x="874" y="427" on="0"/>
        <pt x="829" y="427" on="1"/>
        <pt x="783" y="427" on="0"/>
        <pt x="722" y="364" on="0"/>
      </contour>
      <contour>
        <pt x="660" y="1400" on="1"/>
      </contour>
      <contour>
        <pt x="630" y="-400" on="1"/>
      </contour>
    </TTGlyph>
    <TTGlyph name="glyph00033" xMin="180" yMin="0" xMax="1355" yMax="1400">
      <contour>
        <pt x="685" y="562" on="1"/>
        <pt x="345" y="562" on="1"/>
        <pt x="345" y="0" on="1"/>
        <pt x="180" y="0" on="1"/>
        <pt x="180" y="1274" on="1"/>
        <pt x="345" y="1274" on="1"/>
        <pt x="345" y="707" on="1"/>
        <pt x="685" y="707" on="1"/>
        <pt x="685" y="1274" on="1"/>
        <pt x="850" y="1274" on="1"/>
        <pt x="850" y="707" on="1"/>
        <pt x="1190" y="707" on="1"/>
        <pt x="1190" y="1274" on="1"/>
        <pt x="1355" y="1274" on="1"/>
        <pt x="1355" y="0" on="1"/>
        <pt x="1190" y="0" on="1"/>
        <pt x="1190" y="562" on="1"/>
        <pt x="850" y="562" on="1"/>
        <pt x="850" y="0" on="1"/>
        <pt x="685" y="0" on="1"/>
      </contour>
      <contour>
        <pt x="1240" y="1400" on="1"/>
      </contour>
      <contour>
        <pt x="1240" y="0" on="1"/>
      </contour>
    </TTGlyph>
    <TTGlyph name="glyph00034" xMin="120" yMin="0" xMax="982" yMax="1400">
      <contour>
        <pt x="982" y="1274" on="1"/>
        <pt x="982" y="0" on="1"/>
        <pt x="817" y="0" on="1"/>
        <pt x="817" y="944" on="1"/>
        <pt x="817" y="1059" on="0"/>
        <pt x="822" y="1079" on="1"/>
        <pt x="819" y="1082" on="1"/>
        <pt x="707" y="1048" on="0"/>
        <pt x="512" y="982" on="0"/>
        <pt x="368" y="895" on="0"/>
        <pt x="285" y="777" on="0"/>
        <pt x="285" y="691" on="1"/>
        <pt x="285" y="633" on="0"/>
        <pt x="314" y="526" on="0"/>
        <pt x="368" y="414" on="0"/>
        <pt x="457" y="273" on="1"/>
        <pt x="342" y="199" on="1"/>
        <pt x="120" y="515" on="0"/>
        <pt x="120" y="718" on="1"/>
        <pt x="120" y="839" on="0"/>
        <pt x="249" y="1016" on="0"/>
        <pt x="525" y="1164" on="0"/>
        <pt x="862" y="1274" on="1"/>
      </contour>
      <contour>
        <pt x="900" y="1400" on="1"/>
      </contour>
      <contour>
        <pt x="890" y="0" on="1"/>
      </contour>
    </TTGlyph>
    <TTGlyph name="glyph00035" xMin="90" yMin="0" xMax="1029" yMax="1400">
      <contour>
        <pt x="864" y="212" on="1"/>
        <pt x="864" y="310" on="0"/>
        <pt x="869" y="327" on="1"/>
        <pt x="864" y="327" on="1"/>
        <pt x="754" y="268" on="0"/>
        <pt x="610" y="268" on="1"/>
        <pt x="471" y="268" on="0"/>
        <pt x="207" y="417" on="0"/>
        <pt x="90" y="571" on="1"/>
        <pt x="160" y="616" on="1"/>
        <pt x="308" y="709" on="0"/>
        <pt x="383" y="779" on="1"/>
        <pt x="289" y="851" on="0"/>
        <pt x="198" y="994" on="0"/>
        <pt x="198" y="1077" on="1"/>
        <pt x="198" y="1168" on="0"/>
        <pt x="319" y="1284" on="0"/>
        <pt x="416" y="1284" on="1"/>
        <pt x="534" y="1284" on="0"/>
        <pt x="687" y="1134" on="0"/>
        <pt x="687" y="1022" on="1"/>
        <pt x="687" y="907" on="0"/>
        <pt x="545" y="700" on="0"/>
        <pt x="381" y="587" on="1"/>
        <pt x="304" y="533" on="1"/>
        <pt x="355" y="478" on="0"/>
        <pt x="504" y="413" on="0"/>
        <pt x="589" y="413" on="1"/>
        <pt x="754" y="413" on="0"/>
        <pt x="864" y="507" on="1"/>
        <pt x="864" y="1274" on="1"/>
        <pt x="1029" y="1274" on="1"/>
        <pt x="1029" y="0" on="1"/>
        <pt x="864" y="0" on="1"/>
      </contour>
      <contour>
        <pt x="353" y="1057" on="1"/>
        <pt x="353" y="1007" on="0"/>
        <pt x="407" y="917" on="0"/>
        <pt x="464" y="869" on="1"/>
        <pt x="522" y="954" on="0"/>
        <pt x="522" y="1039" on="1"/>
        <pt x="522" y="1086" on="0"/>
        <pt x="469" y="1149" on="0"/>
        <pt x="431" y="1149" on="1"/>
        <pt x="393" y="1149" on="0"/>
        <pt x="353" y="1095" on="0"/>
      </contour>
      <contour>
        <pt x="950" y="1400" on="1"/>
      </contour>
      <contour>
        <pt x="950" y="0" on="1"/>
      </contour>
    </TTGlyph>
    <TTGlyph name="glyph00036" xMin="120" yMin="-10" xMax="889" yMax="1400">
      <contour>
        <pt x="742" y="597" on="1"/>
        <pt x="495" y="597" on="0"/>
        <pt x="285" y="481" on="0"/>
        <pt x="285" y="354" on="1"/>
        <pt x="285" y="254" on="0"/>
        <pt x="419" y="134" on="0"/>
        <pt x="528" y="134" on="1"/>
        <pt x="692" y="134" on="0"/>
        <pt x="839" y="234" on="1"/>
        <pt x="889" y="87" on="1"/>
        <pt x="731" y="-10" on="0"/>
        <pt x="550" y="-10" on="1"/>
        <pt x="359" y="-10" on="0"/>
        <pt x="120" y="206" on="0"/>
        <pt x="120" y="375" on="1"/>
        <pt x="120" y="569" on="0"/>
        <pt x="283" y="669" on="1"/>
        <pt x="153" y="794" on="0"/>
        <pt x="153" y="943" on="1"/>
        <pt x="153" y="1109" on="0"/>
        <pt x="419" y="1284" on="0"/>
        <pt x="676" y="1284" on="1"/>
        <pt x="687" y="1139" on="1"/>
        <pt x="507" y="1139" on="0"/>
        <pt x="319" y="1030" on="0"/>
        <pt x="319" y="913" on="1"/>
        <pt x="319" y="802" on="0"/>
        <pt x="401" y="720" on="1"/>
        <pt x="533" y="762" on="0"/>
        <pt x="722" y="762" on="1"/>
      </contour>
      <contour>
        <pt x="540" y="1400" on="1"/>
      </contour>
      <contour>
        <pt x="530" y="0" on="1"/>
      </contour>
    </TTGlyph>
    <TTGlyph name="glyph00037" xMin="120" yMin="0" xMax="1048" yMax="1400">
      <contour>
        <pt x="883" y="221" on="1"/>
        <pt x="883" y="320" on="0"/>
        <pt x="888" y="337" on="1"/>
        <pt x="883" y="337" on="1"/>
        <pt x="739" y="260" on="0"/>
        <pt x="560" y="260" on="1"/>
        <pt x="367" y="260" on="0"/>
        <pt x="120" y="440" on="0"/>
        <pt x="120" y="585" on="1"/>
        <pt x="120" y="699" on="0"/>
        <pt x="298" y="863" on="0"/>
        <pt x="459" y="900" on="1"/>
        <pt x="261" y="1208" on="1"/>
        <pt x="395" y="1284" on="1"/>
        <pt x="692" y="757" on="1"/>
        <pt x="497" y="757" on="0"/>
        <pt x="285" y="658" on="0"/>
        <pt x="285" y="564" on="1"/>
        <pt x="285" y="489" on="0"/>
        <pt x="426" y="404" on="0"/>
        <pt x="538" y="404" on="1"/>
        <pt x="727" y="404" on="0"/>
        <pt x="883" y="512" on="1"/>
        <pt x="883" y="1274" on="1"/>
        <pt x="1048" y="1274" on="1"/>
        <pt x="1048" y="0" on="1"/>
        <pt x="883" y="0" on="1"/>
      </contour>
      <contour>
        <pt x="970" y="1400" on="1"/>
      </contour>
      <contour>
        <pt x="960" y="0" on="1"/>
      </contour>
    </TTGlyph>
    <TTGlyph name="glyph00038" xMin="90" yMin="0" xMax="1062" yMax="1400">
      <contour>
        <pt x="897" y="1089" on="1"/>
        <pt x="655" y="997" on="0"/>
        <pt x="475" y="851" on="1"/>
        <pt x="551" y="767" on="0"/>
        <pt x="618" y="603" on="0"/>
        <pt x="618" y="512" on="1"/>
        <pt x="618" y="395" on="0"/>
        <pt x="477" y="244" on="0"/>
        <pt x="363" y="244" on="1"/>
        <pt x="240" y="244" on="0"/>
        <pt x="90" y="399" on="0"/>
        <pt x="90" y="525" on="1"/>
        <pt x="90" y="657" on="0"/>
        <pt x="291" y="927" on="0"/>
        <pt x="678" y="1177" on="0"/>
        <pt x="942" y="1274" on="1"/>
        <pt x="1062" y="1274" on="1"/>
        <pt x="1062" y="0" on="1"/>
        <pt x="897" y="0" on="1"/>
        <pt x="897" y="954" on="1"/>
        <pt x="897" y="1049" on="0"/>
        <pt x="907" y="1089" on="1"/>
      </contour>
      <contour>
        <pt x="453" y="551" on="1"/>
        <pt x="453" y="669" on="0"/>
        <pt x="375" y="758" on="1"/>
        <pt x="255" y="625" on="0"/>
        <pt x="255" y="498" on="1"/>
        <pt x="255" y="450" on="0"/>
        <pt x="303" y="389" on="0"/>
        <pt x="345" y="389" on="1"/>
        <pt x="395" y="389" on="0"/>
        <pt x="453" y="475" on="0"/>
      </contour>
      <contour>
        <pt x="970" y="1400" on="1"/>
      </contour>
      <contour>
        <pt x="970" y="0" on="1"/>
      </contour>
    </TTGlyph>
    <TTGlyph name="glyph00039" xMin="160" yMin="0" xMax="937" yMax="1400">
      <contour>
        <pt x="532" y="385" on="1"/>
        <pt x="359" y="385" on="0"/>
        <pt x="160" y="592" on="0"/>
        <pt x="160" y="775" on="1"/>
        <pt x="160" y="1274" on="1"/>
        <pt x="325" y="1274" on="1"/>
        <pt x="325" y="755" on="1"/>
        <pt x="325" y="644" on="0"/>
        <pt x="425" y="529" on="0"/>
        <pt x="517" y="529" on="1"/>
        <pt x="581" y="529" on="0"/>
        <pt x="721" y="602" on="0"/>
        <pt x="772" y="661" on="1"/>
        <pt x="772" y="1274" on="1"/>
        <pt x="937" y="1274" on="1"/>
        <pt x="937" y="0" on="1"/>
        <pt x="772" y="0" on="1"/>
        <pt x="772" y="292" on="1"/>
        <pt x="772" y="428" on="0"/>
        <pt x="777" y="463" on="1"/>
        <pt x="772" y="463" on="1"/>
        <pt x="734" y="431" on="0"/>
        <pt x="604" y="385" on="0"/>
      </contour>
      <contour>
        <pt x="860" y="1400" on="1"/>
      </contour>
      <contour>
        <pt x="860" y="0" on="1"/>
      </contour>
    </TTGlyph>
    <TTGlyph name="glyph00040" xMin="94" yMin="-50" xMax="1269" yMax="1400">
      <contour>
        <pt x="1269" y="195" on="1"/>
        <pt x="1269" y="85" on="0"/>
        <pt x="1069" y="-50" on="0"/>
        <pt x="917" y="-50" on="1"/>
        <pt x="725" y="-50" on="0"/>
        <pt x="292" y="206" on="0"/>
        <pt x="94" y="430" on="1"/>
        <pt x="218" y="503" on="1"/>
        <pt x="444" y="633" on="0"/>
        <pt x="537" y="724" on="1"/>
        <pt x="286" y="884" on="0"/>
        <pt x="286" y="1071" on="1"/>
        <pt x="286" y="1165" on="0"/>
        <pt x="415" y="1284" on="0"/>
        <pt x="519" y="1284" on="1"/>
        <pt x="608" y="1284" on="0"/>
        <pt x="750" y="1199" on="0"/>
        <pt x="828" y="1052" on="0"/>
        <pt x="828" y="969" on="1"/>
        <pt x="828" y="856" on="0"/>
        <pt x="762" y="752" on="1"/>
        <pt x="879" y="701" on="0"/>
        <pt x="996" y="667" on="1"/>
        <pt x="996" y="1274" on="1"/>
        <pt x="1161" y="1274" on="1"/>
        <pt x="1161" y="526" on="1"/>
        <pt x="1115" y="492" on="1"/>
        <pt x="860" y="560" on="0"/>
        <pt x="679" y="647" on="1"/>
        <pt x="559" y="521" on="0"/>
        <pt x="320" y="388" on="1"/>
        <pt x="400" y="305" on="0"/>
        <pt x="616" y="154" on="0"/>
        <pt x="813" y="75" on="0"/>
        <pt x="886" y="75" on="1"/>
        <pt x="898" y="75" on="1"/>
        <pt x="814" y="152" on="0"/>
        <pt x="814" y="248" on="1"/>
        <pt x="814" y="327" on="0"/>
        <pt x="929" y="438" on="0"/>
        <pt x="1013" y="438" on="1"/>
        <pt x="1123" y="438" on="0"/>
        <pt x="1269" y="297" on="0"/>
      </contour>
      <contour>
        <pt x="451" y="1051" on="1"/>
        <pt x="451" y="934" on="0"/>
        <pt x="619" y="827" on="1"/>
        <pt x="663" y="902" on="0"/>
        <pt x="663" y="987" on="1"/>
        <pt x="663" y="1052" on="0"/>
        <pt x="591" y="1139" on="0"/>
        <pt x="535" y="1139" on="1"/>
        <pt x="498" y="1139" on="0"/>
        <pt x="451" y="1093" on="0"/>
      </contour>
      <contour>
        <pt x="959" y="216" on="1"/>
        <pt x="959" y="155" on="0"/>
        <pt x="1019" y="97" on="1"/>
        <pt x="1114" y="134" on="0"/>
        <pt x="1114" y="215" on="1"/>
        <pt x="1114" y="249" on="0"/>
        <pt x="1068" y="293" on="0"/>
        <pt x="1033" y="293" on="1"/>
        <pt x="1001" y="293" on="0"/>
        <pt x="959" y="250" on="0"/>
      </contour>
      <contour>
        <pt x="1070" y="1400" on="1"/>
      </contour>
      <contour>
        <pt x="930" y="-20" on="1"/>
      </contour>
    </TTGlyph>
    <TTGlyph name="glyph00041" xMin="90" yMin="0" xMax="993" yMax="1400">
      <contour>
        <pt x="828" y="283" on="1"/>
        <pt x="828" y="382" on="0"/>
        <pt x="833" y="399" on="1"/>
        <pt x="828" y="399" on="1"/>
        <pt x="704" y="331" on="0"/>
        <pt x="550" y="331" on="1"/>
        <pt x="419" y="331" on="0"/>
        <pt x="207" y="442" on="0"/>
        <pt x="90" y="639" on="0"/>
        <pt x="90" y="757" on="1"/>
        <pt x="90" y="862" on="0"/>
        <pt x="203" y="1049" on="0"/>
        <pt x="396" y="1159" on="0"/>
        <pt x="506" y="1159" on="1"/>
        <pt x="559" y="1159" on="0"/>
        <pt x="652" y="1136" on="0"/>
        <pt x="712" y="1105" on="1"/>
        <pt x="657" y="975" on="1"/>
        <pt x="593" y="1002" on="0"/>
        <pt x="524" y="1002" on="1"/>
        <pt x="407" y="1002" on="0"/>
        <pt x="255" y="857" on="0"/>
        <pt x="255" y="742" on="1"/>
        <pt x="255" y="621" on="0"/>
        <pt x="410" y="476" on="0"/>
        <pt x="530" y="476" on="1"/>
        <pt x="698" y="476" on="0"/>
        <pt x="828" y="588" on="1"/>
        <pt x="828" y="1274" on="1"/>
        <pt x="993" y="1274" on="1"/>
        <pt x="993" y="0" on="1"/>
        <pt x="828" y="0" on="1"/>
      </contour>
      <contour>
        <pt x="910" y="1400" on="1"/>
      </contour>
      <contour>
        <pt x="910" y="0" on="1"/>
      </contour>
    </TTGlyph>
    <TTGlyph name="glyph00042" xMin="110" yMin="0" xMax="1141" yMax="1400">
      <contour>
        <pt x="978" y="1077" on="1"/>
        <pt x="785" y="978" on="0"/>
        <pt x="666" y="895" on="1"/>
        <pt x="737" y="698" on="0"/>
        <pt x="737" y="522" on="1"/>
        <pt x="737" y="381" on="0"/>
        <pt x="592" y="214" on="0"/>
        <pt x="472" y="214" on="1"/>
        <pt x="354" y="214" on="0"/>
        <pt x="199" y="381" on="0"/>
        <pt x="199" y="505" on="1"/>
        <pt x="199" y="727" on="0"/>
        <pt x="485" y="950" on="1"/>
        <pt x="442" y="1049" on="0"/>
        <pt x="382" y="1140" on="1"/>
        <pt x="282" y="1122" on="0"/>
        <pt x="150" y="1073" on="1"/>
        <pt x="110" y="1201" on="1"/>
        <pt x="314" y="1270" on="0"/>
        <pt x="467" y="1284" on="1"/>
        <pt x="554" y="1149" on="0"/>
        <pt x="607" y="1037" on="1"/>
        <pt x="769" y="1143" on="0"/>
        <pt x="1021" y="1274" on="1"/>
        <pt x="1141" y="1274" on="1"/>
        <pt x="1141" y="0" on="1"/>
        <pt x="976" y="0" on="1"/>
        <pt x="976" y="924" on="1"/>
        <pt x="976" y="1037" on="0"/>
        <pt x="981" y="1074" on="1"/>
      </contour>
      <contour>
        <pt x="572" y="561" on="1"/>
        <pt x="572" y="669" on="0"/>
        <pt x="540" y="795" on="1"/>
        <pt x="364" y="635" on="0"/>
        <pt x="364" y="478" on="1"/>
        <pt x="364" y="421" on="0"/>
        <pt x="412" y="359" on="0"/>
        <pt x="455" y="359" on="1"/>
        <pt x="509" y="359" on="0"/>
        <pt x="572" y="468" on="0"/>
      </contour>
      <contour>
        <pt x="1060" y="1400" on="1"/>
      </contour>
      <contour>
        <pt x="1040" y="0" on="1"/>
      </contour>
    </TTGlyph>
    <TTGlyph name="glyph00043" xMin="145" yMin="0" xMax="1056" yMax="1400">
      <contour>
        <pt x="262" y="1284" on="1"/>
        <pt x="399" y="1109" on="0"/>
        <pt x="492" y="941" on="1"/>
        <pt x="677" y="1033" on="0"/>
        <pt x="859" y="1174" on="0"/>
        <pt x="936" y="1274" on="1"/>
        <pt x="1056" y="1274" on="1"/>
        <pt x="1056" y="0" on="1"/>
        <pt x="891" y="0" on="1"/>
        <pt x="891" y="879" on="1"/>
        <pt x="891" y="987" on="0"/>
        <pt x="896" y="1014" on="1"/>
        <pt x="893" y="1017" on="1"/>
        <pt x="847" y="971" on="0"/>
        <pt x="720" y="887" on="0"/>
        <pt x="592" y="819" on="1"/>
        <pt x="561" y="802" on="1"/>
        <pt x="632" y="642" on="0"/>
        <pt x="632" y="522" on="1"/>
        <pt x="632" y="407" on="0"/>
        <pt x="505" y="274" on="0"/>
        <pt x="397" y="274" on="1"/>
        <pt x="291" y="274" on="0"/>
        <pt x="149" y="415" on="0"/>
        <pt x="149" y="530" on="1"/>
        <pt x="149" y="720" on="0"/>
        <pt x="370" y="869" on="1"/>
        <pt x="285" y="1021" on="0"/>
        <pt x="145" y="1198" on="1"/>
      </contour>
      <contour>
        <pt x="477" y="546" on="1"/>
        <pt x="477" y="619" on="0"/>
        <pt x="439" y="722" on="1"/>
        <pt x="314" y="624" on="0"/>
        <pt x="314" y="513" on="1"/>
        <pt x="314" y="468" on="0"/>
        <pt x="355" y="419" on="0"/>
        <pt x="390" y="419" on="1"/>
        <pt x="432" y="419" on="0"/>
        <pt x="477" y="492" on="0"/>
      </contour>
      <contour>
        <pt x="970" y="1400" on="1"/>
      </contour>
      <contour>
        <pt x="980" y="0" on="1"/>
      </contour>
    </TTGlyph>
    <TTGlyph name="glyph00044" xMin="90" yMin="-169" xMax="965" yMax="1400">
      <contour>
        <pt x="800" y="193" on="1"/>
        <pt x="800" y="289" on="0"/>
        <pt x="805" y="306" on="1"/>
        <pt x="800" y="309" on="1"/>
        <pt x="657" y="248" on="0"/>
        <pt x="514" y="248" on="1"/>
        <pt x="337" y="248" on="0"/>
        <pt x="90" y="430" on="0"/>
        <pt x="90" y="563" on="1"/>
        <pt x="90" y="621" on="0"/>
        <pt x="169" y="733" on="0"/>
        <pt x="251" y="795" on="1"/>
        <pt x="340" y="861" on="0"/>
        <pt x="412" y="946" on="0"/>
        <pt x="412" y="988" on="1"/>
        <pt x="412" y="1034" on="0"/>
        <pt x="371" y="1111" on="0"/>
        <pt x="285" y="1196" on="1"/>
        <pt x="383" y="1284" on="1"/>
        <pt x="501" y="1171" on="0"/>
        <pt x="577" y="1036" on="0"/>
        <pt x="577" y="961" on="1"/>
        <pt x="577" y="906" on="0"/>
        <pt x="497" y="800" on="0"/>
        <pt x="416" y="742" on="1"/>
        <pt x="334" y="684" on="0"/>
        <pt x="255" y="587" on="0"/>
        <pt x="255" y="538" on="1"/>
        <pt x="255" y="468" on="0"/>
        <pt x="380" y="393" on="0"/>
        <pt x="493" y="393" on="1"/>
        <pt x="657" y="393" on="0"/>
        <pt x="800" y="484" on="1"/>
        <pt x="800" y="1274" on="1"/>
        <pt x="965" y="1274" on="1"/>
        <pt x="965" y="0" on="1"/>
        <pt x="800" y="0" on="1"/>
      </contour>
      <contour>
        <pt x="370" y="-46" on="1"/>
        <pt x="370" y="12" on="0"/>
        <pt x="427" y="74" on="0"/>
        <pt x="480" y="74" on="1"/>
        <pt x="534" y="74" on="0"/>
        <pt x="593" y="12" on="0"/>
        <pt x="593" y="-46" on="1"/>
        <pt x="593" y="-104" on="0"/>
        <pt x="534" y="-169" on="0"/>
        <pt x="480" y="-169" on="1"/>
        <pt x="428" y="-169" on="0"/>
        <pt x="370" y="-104" on="0"/>
      </contour>
      <contour>
        <pt x="880" y="1400" on="1"/>
      </contour>
      <contour>
        <pt x="890" y="0" on="1"/>
      </contour>
    </TTGlyph>
    <TTGlyph name="glyph00045" xMin="70" yMin="0" xMax="757" yMax="1400">
      <contour>
        <pt x="70" y="758" on="1"/>
        <pt x="637" y="1274" on="1"/>
        <pt x="757" y="1274" on="1"/>
        <pt x="757" y="0" on="1"/>
        <pt x="592" y="0" on="1"/>
        <pt x="592" y="873" on="1"/>
        <pt x="592" y="998" on="0"/>
        <pt x="597" y="1023" on="1"/>
        <pt x="594" y="1025" on="1"/>
        <pt x="190" y="631" on="1"/>
      </contour>
      <contour>
        <pt x="680" y="1400" on="1"/>
      </contour>
      <contour>
        <pt x="660" y="0" on="1"/>
      </contour>
    </TTGlyph>
    <TTGlyph name="glyph00046" xMin="110" yMin="-10" xMax="1090" yMax="1400">
      <contour>
        <pt x="110" y="675" on="1"/>
        <pt x="110" y="849" on="0"/>
        <pt x="239" y="1135" on="0"/>
        <pt x="464" y="1284" on="0"/>
        <pt x="609" y="1284" on="1"/>
        <pt x="838" y="1284" on="0"/>
        <pt x="1090" y="936" on="0"/>
        <pt x="1090" y="620" on="1"/>
        <pt x="1090" y="319" on="0"/>
        <pt x="847" y="-10" on="0"/>
        <pt x="622" y="-10" on="1"/>
        <pt x="382" y="-10" on="0"/>
        <pt x="110" y="356" on="0"/>
      </contour>
      <contour>
        <pt x="275" y="613" on="1"/>
        <pt x="276" y="609" on="1"/>
        <pt x="343" y="645" on="0"/>
        <pt x="520" y="688" on="0"/>
        <pt x="596" y="688" on="1"/>
        <pt x="675" y="688" on="0"/>
        <pt x="824" y="650" on="0"/>
        <pt x="924" y="598" on="1"/>
        <pt x="924" y="613" on="1"/>
        <pt x="925" y="639" on="1"/>
        <pt x="925" y="893" on="0"/>
        <pt x="777" y="1139" on="0"/>
        <pt x="626" y="1139" on="1"/>
        <pt x="464" y="1139" on="0"/>
        <pt x="275" y="865" on="0"/>
        <pt x="275" y="624" on="1"/>
      </contour>
      <contour>
        <pt x="292" y="452" on="1"/>
        <pt x="312" y="308" on="0"/>
        <pt x="484" y="135" on="0"/>
        <pt x="602" y="135" on="1"/>
        <pt x="750" y="135" on="0"/>
        <pt x="915" y="310" on="0"/>
        <pt x="915" y="469" on="1"/>
        <pt x="771" y="544" on="0"/>
        <pt x="616" y="544" on="1"/>
        <pt x="536" y="544" on="0"/>
        <pt x="360" y="493" on="0"/>
      </contour>
      <contour>
        <pt x="600" y="1400" on="1"/>
      </contour>
      <contour>
        <pt x="610" y="0" on="1"/>
      </contour>
    </TTGlyph>
    <TTGlyph name="glyph00047" xMin="100" yMin="-133" xMax="1003" yMax="1400">
      <contour>
        <pt x="667" y="975" on="1"/>
        <pt x="603" y="1002" on="0"/>
        <pt x="534" y="1002" on="1"/>
        <pt x="417" y="1002" on="0"/>
        <pt x="265" y="857" on="0"/>
        <pt x="265" y="742" on="1"/>
        <pt x="265" y="621" on="0"/>
        <pt x="420" y="476" on="0"/>
        <pt x="540" y="476" on="1"/>
        <pt x="708" y="476" on="0"/>
        <pt x="838" y="588" on="1"/>
        <pt x="838" y="1274" on="1"/>
        <pt x="1003" y="1274" on="1"/>
        <pt x="1003" y="0" on="1"/>
        <pt x="838" y="0" on="1"/>
        <pt x="838" y="399" on="1"/>
        <pt x="714" y="331" on="0"/>
        <pt x="560" y="331" on="1"/>
        <pt x="429" y="331" on="0"/>
        <pt x="217" y="442" on="0"/>
        <pt x="100" y="639" on="0"/>
        <pt x="100" y="757" on="1"/>
        <pt x="100" y="862" on="0"/>
        <pt x="213" y="1049" on="0"/>
        <pt x="406" y="1159" on="0"/>
        <pt x="516" y="1159" on="1"/>
        <pt x="569" y="1159" on="0"/>
        <pt x="662" y="1136" on="0"/>
        <pt x="722" y="1105" on="1"/>
      </contour>
      <contour>
        <pt x="400" y="-10" on="1"/>
        <pt x="400" y="48" on="0"/>
        <pt x="457" y="110" on="0"/>
        <pt x="510" y="110" on="1"/>
        <pt x="564" y="110" on="0"/>
        <pt x="623" y="48" on="0"/>
        <pt x="623" y="-10" on="1"/>
        <pt x="623" y="-68" on="0"/>
        <pt x="564" y="-133" on="0"/>
        <pt x="510" y="-133" on="1"/>
        <pt x="458" y="-133" on="0"/>
        <pt x="400" y="-68" on="0"/>
      </contour>
      <contour>
        <pt x="910" y="1400" on="1"/>
      </contour>
      <contour>
        <pt x="920" y="0" on="1"/>
      </contour>
    </TTGlyph>
    <TTGlyph name="glyph00048" xMin="120" yMin="-22" xMax="1181" yMax="1400">
      <contour>
        <pt x="1016" y="438" on="1"/>
        <pt x="815" y="514" on="0"/>
        <pt x="719" y="557" on="1"/>
        <pt x="650" y="467" on="0"/>
        <pt x="547" y="411" on="1"/>
        <pt x="633" y="313" on="0"/>
        <pt x="799" y="76" on="1"/>
        <pt x="669" y="-22" on="1"/>
        <pt x="402" y="357" on="1"/>
        <pt x="358" y="347" on="0"/>
        <pt x="312" y="347" on="1"/>
        <pt x="233" y="347" on="0"/>
        <pt x="120" y="427" on="0"/>
        <pt x="120" y="488" on="1"/>
        <pt x="120" y="536" on="0"/>
        <pt x="188" y="592" on="0"/>
        <pt x="246" y="592" on="1"/>
        <pt x="337" y="592" on="0"/>
        <pt x="433" y="519" on="1"/>
        <pt x="518" y="559" on="0"/>
        <pt x="574" y="630" on="1"/>
        <pt x="408" y="725" on="0"/>
        <pt x="256" y="928" on="0"/>
        <pt x="256" y="1046" on="1"/>
        <pt x="256" y="1151" on="0"/>
        <pt x="394" y="1284" on="0"/>
        <pt x="509" y="1284" on="1"/>
        <pt x="660" y="1284" on="0"/>
        <pt x="828" y="1067" on="0"/>
        <pt x="828" y="879" on="1"/>
        <pt x="828" y="769" on="0"/>
        <pt x="786" y="670" on="1"/>
        <pt x="887" y="625" on="0"/>
        <pt x="1016" y="580" on="1"/>
        <pt x="1016" y="1274" on="1"/>
        <pt x="1181" y="1274" on="1"/>
        <pt x="1181" y="0" on="1"/>
        <pt x="1016" y="0" on="1"/>
      </contour>
      <contour>
        <pt x="421" y="1026" on="1"/>
        <pt x="421" y="873" on="0"/>
        <pt x="638" y="745" on="1"/>
        <pt x="663" y="814" on="0"/>
        <pt x="663" y="897" on="1"/>
        <pt x="663" y="1011" on="0"/>
        <pt x="590" y="1139" on="0"/>
        <pt x="525" y="1139" on="1"/>
        <pt x="473" y="1139" on="0"/>
        <pt x="421" y="1077" on="0"/>
      </contour>
      <contour>
        <pt x="1100" y="1400" on="1"/>
      </contour>
      <contour>
        <pt x="1090" y="0" on="1"/>
      </contour>
    </TTGlyph>
    <TTGlyph name="glyph00049" xMin="150" yMin="0" xMax="897" yMax="1400">
      <contour>
        <pt x="527" y="405" on="1"/>
        <pt x="352" y="405" on="0"/>
        <pt x="150" y="628" on="0"/>
        <pt x="150" y="821" on="1"/>
        <pt x="150" y="1274" on="1"/>
        <pt x="315" y="1274" on="1"/>
        <pt x="732" y="765" on="1"/>
        <pt x="732" y="1274" on="1"/>
        <pt x="897" y="1274" on="1"/>
        <pt x="897" y="0" on="1"/>
        <pt x="732" y="0" on="1"/>
        <pt x="732" y="302" on="1"/>
        <pt x="732" y="448" on="0"/>
        <pt x="737" y="473" on="1"/>
        <pt x="732" y="473" on="1"/>
        <pt x="700" y="445" on="0"/>
        <pt x="587" y="405" on="0"/>
      </contour>
      <contour>
        <pt x="502" y="549" on="1"/>
        <pt x="608" y="549" on="0"/>
        <pt x="700" y="636" on="1"/>
        <pt x="628" y="665" on="0"/>
        <pt x="581" y="726" on="1"/>
        <pt x="315" y="1061" on="1"/>
        <pt x="315" y="756" on="1"/>
        <pt x="315" y="650" on="0"/>
        <pt x="404" y="549" on="0"/>
      </contour>
      <contour>
        <pt x="820" y="1400" on="1"/>
      </contour>
      <contour>
        <pt x="810" y="0" on="1"/>
      </contour>
    </TTGlyph>
    <TTGlyph name="glyph00050" xMin="120" yMin="-22" xMax="1271" yMax="1400">
      <contour>
        <pt x="1106" y="564" on="1"/>
        <pt x="1050" y="550" on="0"/>
        <pt x="968" y="550" on="1"/>
        <pt x="843" y="550" on="0"/>
        <pt x="737" y="600" on="1"/>
        <pt x="664" y="527" on="0"/>
        <pt x="559" y="487" on="1"/>
        <pt x="621" y="407" on="0"/>
        <pt x="707" y="277" on="1"/>
        <pt x="853" y="57" on="1"/>
        <pt x="709" y="-22" on="1"/>
        <pt x="422" y="452" on="1"/>
        <pt x="342" y="447" on="1"/>
        <pt x="248" y="447" on="0"/>
        <pt x="120" y="537" on="0"/>
        <pt x="120" y="603" on="1"/>
        <pt x="120" y="651" on="0"/>
        <pt x="185" y="712" on="0"/>
        <pt x="246" y="712" on="1"/>
        <pt x="342" y="712" on="0"/>
        <pt x="452" y="608" on="1"/>
        <pt x="568" y="648" on="0"/>
        <pt x="683" y="799" on="0"/>
        <pt x="683" y="897" on="1"/>
        <pt x="683" y="1010" on="0"/>
        <pt x="559" y="1139" on="0"/>
        <pt x="456" y="1139" on="1"/>
        <pt x="417" y="1139" on="0"/>
        <pt x="347" y="1119" on="0"/>
        <pt x="285" y="1087" on="0"/>
        <pt x="224" y="1039" on="1"/>
        <pt x="136" y="1162" on="1"/>
        <pt x="282" y="1284" on="0"/>
        <pt x="445" y="1284" on="1"/>
        <pt x="563" y="1284" on="0"/>
        <pt x="746" y="1177" on="0"/>
        <pt x="848" y="990" on="0"/>
        <pt x="848" y="879" on="1"/>
        <pt x="848" y="786" on="0"/>
        <pt x="813" y="710" on="1"/>
        <pt x="877" y="690" on="0"/>
        <pt x="953" y="690" on="1"/>
        <pt x="1047" y="690" on="0"/>
        <pt x="1106" y="716" on="1"/>
        <pt x="1106" y="1274" on="1"/>
        <pt x="1271" y="1274" on="1"/>
        <pt x="1271" y="0" on="1"/>
        <pt x="1106" y="0" on="1"/>
      </contour>
      <contour>
        <pt x="1190" y="1400" on="1"/>
      </contour>
      <contour>
        <pt x="1180" y="0" on="1"/>
      </contour>
    </TTGlyph>
    <TTGlyph name="glyph00051" xMin="120" yMin="-185" xMax="946" yMax="1400">
      <contour>
        <pt x="526" y="466" on="1"/>
        <pt x="583" y="424" on="0"/>
        <pt x="659" y="424" on="1"/>
        <pt x="712" y="424" on="0"/>
        <pt x="782" y="506" on="0"/>
        <pt x="782" y="563" on="1"/>
        <pt x="782" y="627" on="0"/>
        <pt x="678" y="705" on="0"/>
        <pt x="585" y="705" on="1"/>
        <pt x="446" y="705" on="0"/>
        <pt x="285" y="565" on="0"/>
        <pt x="285" y="444" on="1"/>
        <pt x="285" y="364" on="0"/>
        <pt x="369" y="211" on="0"/>
        <pt x="556" y="49" on="0"/>
        <pt x="758" y="-75" on="1"/>
        <pt x="684" y="-185" on="1"/>
        <pt x="447" y="-41" on="0"/>
        <pt x="225" y="155" on="0"/>
        <pt x="120" y="352" on="0"/>
        <pt x="120" y="454" on="1"/>
        <pt x="120" y="550" on="0"/>
        <pt x="201" y="703" on="0"/>
        <pt x="270" y="755" on="1"/>
        <pt x="190" y="861" on="0"/>
        <pt x="190" y="974" on="1"/>
        <pt x="190" y="1124" on="0"/>
        <pt x="448" y="1284" on="0"/>
        <pt x="693" y="1284" on="1"/>
        <pt x="704" y="1139" on="1"/>
        <pt x="526" y="1139" on="0"/>
        <pt x="356" y="1046" on="0"/>
        <pt x="356" y="944" on="1"/>
        <pt x="356" y="875" on="0"/>
        <pt x="387" y="818" on="1"/>
        <pt x="479" y="850" on="0"/>
        <pt x="575" y="850" on="1"/>
        <pt x="683" y="850" on="0"/>
        <pt x="851" y="773" on="0"/>
        <pt x="946" y="631" on="0"/>
        <pt x="946" y="543" on="1"/>
        <pt x="946" y="426" on="0"/>
        <pt x="792" y="279" on="0"/>
        <pt x="679" y="279" on="1"/>
        <pt x="558" y="279" on="0"/>
        <pt x="462" y="373" on="1"/>
      </contour>
      <contour>
        <pt x="590" y="1400" on="1"/>
      </contour>
      <contour>
        <pt x="670" y="-130" on="1"/>
      </contour>
    </TTGlyph>
    <TTGlyph name="glyph00052" xMin="170" yMin="0" xMax="335" yMax="1400">
      <contour>
        <pt x="170" y="1274" on="1"/>
        <pt x="335" y="1274" on="1"/>
        <pt x="335" y="0" on="1"/>
        <pt x="170" y="0" on="1"/>
      </contour>
      <contour>
        <pt x="250" y="1400" on="1"/>
      </contour>
      <contour>
        <pt x="260" y="0" on="1"/>
      </contour>
    </TTGlyph>
    <TTGlyph name="glyph00053" xMin="180" yMin="0" xMax="1505" yMax="1785">
      <contour>
        <pt x="180" y="1204" on="1"/>
        <pt x="180" y="1490" on="0"/>
        <pt x="442" y="1785" on="0"/>
        <pt x="696" y="1785" on="1"/>
        <pt x="861" y="1785" on="0"/>
        <pt x="1248" y="1642" on="0"/>
        <pt x="1505" y="1473" on="1"/>
        <pt x="1438" y="1377" on="1"/>
        <pt x="1211" y="1521" on="0"/>
        <pt x="866" y="1640" on="0"/>
        <pt x="714" y="1640" on="1"/>
        <pt x="524" y="1640" on="0"/>
        <pt x="345" y="1412" on="0"/>
        <pt x="345" y="1184" on="1"/>
        <pt x="345" y="0" on="1"/>
        <pt x="180" y="0" on="1"/>
      </contour>
      <contour>
        <pt x="1440" y="1660" on="1"/>
      </contour>
    </TTGlyph>
    <TTGlyph name="glyph00054" xMin="-379" yMin="0" xMax="346" yMax="1868">
      <contour>
        <pt x="-379" y="1564" on="1"/>
        <pt x="-379" y="1696" on="0"/>
        <pt x="-205" y="1856" on="0"/>
        <pt x="-65" y="1856" on="1"/>
        <pt x="136" y="1856" on="0"/>
        <pt x="346" y="1542" on="0"/>
        <pt x="346" y="1244" on="1"/>
        <pt x="346" y="0" on="1"/>
        <pt x="181" y="0" on="1"/>
        <pt x="181" y="1274" on="1"/>
        <pt x="181" y="1501" on="0"/>
        <pt x="66" y="1711" on="0"/>
        <pt x="-45" y="1711" on="1"/>
        <pt x="-126" y="1711" on="0"/>
        <pt x="-214" y="1620" on="0"/>
        <pt x="-214" y="1544" on="1"/>
        <pt x="-214" y="1485" on="0"/>
        <pt x="-165" y="1391" on="0"/>
        <pt x="-131" y="1348" on="1"/>
        <pt x="-243" y="1274" on="1"/>
        <pt x="-308" y="1339" on="0"/>
        <pt x="-379" y="1487" on="0"/>
      </contour>
      <contour>
        <pt x="182" y="1868" on="1"/>
      </contour>
    </TTGlyph>
    <TTGlyph name="glyph00055" xMin="-1244" yMin="-462" xMax="-363" yMax="81">
      <contour>
        <pt x="-668" y="81" on="1"/>
        <pt x="-530" y="81" on="0"/>
        <pt x="-363" y="-66" on="0"/>
        <pt x="-363" y="-189" on="1"/>
        <pt x="-363" y="-314" on="0"/>
        <pt x="-539" y="-462" on="0"/>
        <pt x="-688" y="-462" on="1"/>
        <pt x="-792" y="-462" on="0"/>
        <pt x="-977" y="-381" on="0"/>
        <pt x="-1143" y="-242" on="0"/>
        <pt x="-1244" y="-116" on="1"/>
        <pt x="-1141" y="-32" on="1"/>
        <pt x="-1035" y="-155" on="0"/>
        <pt x="-913" y="-255" on="0"/>
        <pt x="-779" y="-317" on="0"/>
        <pt x="-704" y="-317" on="1"/>
        <pt x="-625" y="-317" on="0"/>
        <pt x="-528" y="-238" on="0"/>
        <pt x="-528" y="-172" on="1"/>
        <pt x="-528" y="-100" on="0"/>
        <pt x="-647" y="-20" on="0"/>
        <pt x="-757" y="-20" on="1"/>
        <pt x="-757" y="81" on="1"/>
      </contour>
      <contour>
        <pt x="-770" y="-10" on="1"/>
      </contour>
    </TTGlyph>
    <TTGlyph name="glyph00056" xMin="-883" yMin="-543" xMax="-50" yMax="10">
      <contour>
        <pt x="-159" y="-543" on="1"/>
        <pt x="-197" y="-468" on="1"/>
        <pt x="-367" y="-135" on="0"/>
        <pt x="-581" y="-135" on="1"/>
        <pt x="-647" y="-135" on="0"/>
        <pt x="-718" y="-199" on="0"/>
        <pt x="-718" y="-247" on="1"/>
        <pt x="-718" y="-303" on="0"/>
        <pt x="-619" y="-368" on="0"/>
        <pt x="-539" y="-370" on="1"/>
        <pt x="-563" y="-491" on="1"/>
        <pt x="-702" y="-491" on="0"/>
        <pt x="-883" y="-343" on="0"/>
        <pt x="-883" y="-230" on="1"/>
        <pt x="-883" y="-121" on="0"/>
        <pt x="-726" y="10" on="0"/>
        <pt x="-597" y="10" on="1"/>
        <pt x="-516" y="10" on="0"/>
        <pt x="-381" y="-44" on="0"/>
        <pt x="-271" y="-130" on="0"/>
        <pt x="-183" y="-240" on="0"/>
        <pt x="-115" y="-350" on="0"/>
        <pt x="-67" y="-452" on="0"/>
        <pt x="-50" y="-488" on="1"/>
      </contour>
      <contour>
        <pt x="-585" y="0" on="1"/>
      </contour>
    </TTGlyph>
    <TTGlyph name="glyph00057" xMin="-1090" yMin="1380" xMax="-161" yMax="1856">
      <contour>
        <pt x="-1019" y="1856" on="1"/>
        <pt x="-161" y="1489" on="1"/>
        <pt x="-214" y="1380" on="1"/>
        <pt x="-1090" y="1708" on="1"/>
      </contour>
      <contour>
        <pt x="-300" y="1400" on="1"/>
      </contour>
      <contour>
        <pt x="-260" y="1640" on="1"/>
      </contour>
    </TTGlyph>
    <TTGlyph name="glyph00058" xMin="-1090" yMin="1380" xMax="-161" yMax="2097">
      <contour>
        <pt x="-214" y="1380" on="1"/>
        <pt x="-1090" y="1708" on="1"/>
        <pt x="-1019" y="1856" on="1"/>
        <pt x="-465" y="1619" on="1"/>
        <pt x="-389" y="1586" on="0"/>
        <pt x="-294" y="1527" on="1"/>
        <pt x="-286" y="1535" on="1"/>
        <pt x="-316" y="1593" on="0"/>
        <pt x="-417" y="1713" on="0"/>
        <pt x="-549" y="1840" on="1"/>
        <pt x="-702" y="1989" on="1"/>
        <pt x="-590" y="2097" on="1"/>
        <pt x="-401" y="1908" on="0"/>
        <pt x="-199" y="1627" on="0"/>
        <pt x="-161" y="1489" on="1"/>
      </contour>
      <contour>
        <pt x="-300" y="1400" on="1"/>
      </contour>
      <contour>
        <pt x="-186" y="1944" on="1"/>
      </contour>
    </TTGlyph>
    <TTGlyph name="glyph00059" xMin="-630" yMin="0" xMax="341" yMax="1856">
      <contour>
        <pt x="176" y="1274" on="1"/>
        <pt x="341" y="1274" on="1"/>
        <pt x="341" y="0" on="1"/>
        <pt x="176" y="0" on="1"/>
      </contour>
      <contour>
        <pt x="-559" y="1856" on="1"/>
        <pt x="299" y="1489" on="1"/>
        <pt x="246" y="1380" on="1"/>
        <pt x="-630" y="1708" on="1"/>
      </contour>
      <contour>
        <pt x="245" y="1604" on="1"/>
      </contour>
    </TTGlyph>
    <TTGlyph name="glyph00060" xMin="-650" yMin="0" xMax="325" yMax="2097">
      <contour>
        <pt x="226" y="1380" on="1"/>
        <pt x="-650" y="1708" on="1"/>
        <pt x="-579" y="1856" on="1"/>
        <pt x="-25" y="1619" on="1"/>
        <pt x="51" y="1586" on="0"/>
        <pt x="146" y="1527" on="1"/>
        <pt x="154" y="1535" on="1"/>
        <pt x="124" y="1593" on="0"/>
        <pt x="23" y="1713" on="0"/>
        <pt x="-109" y="1840" on="1"/>
        <pt x="-262" y="1989" on="1"/>
        <pt x="-150" y="2097" on="1"/>
        <pt x="39" y="1908" on="0"/>
        <pt x="241" y="1627" on="0"/>
        <pt x="279" y="1489" on="1"/>
      </contour>
      <contour>
        <pt x="160" y="1274" on="1"/>
        <pt x="325" y="1274" on="1"/>
        <pt x="325" y="0" on="1"/>
        <pt x="160" y="0" on="1"/>
      </contour>
      <contour>
        <pt x="214" y="1987" on="1"/>
      </contour>
    </TTGlyph>
    <TTGlyph name="glyph00061" xMin="149" yMin="-572" xMax="746" yMax="0">
      <contour>
        <pt x="241" y="-134" on="1"/>
        <pt x="746" y="-462" on="1"/>
        <pt x="676" y="-572" on="1"/>
        <pt x="149" y="-272" on="1"/>
      </contour>
      <contour>
        <pt x="300" y="0" on="1"/>
      </contour>
    </TTGlyph>
    <TTGlyph name="glyph00062" xMin="-330" yMin="-410" xMax="-107" yMax="0">
      <contour>
        <pt x="-330" y="-287" on="1"/>
        <pt x="-330" y="-229" on="0"/>
        <pt x="-273" y="-167" on="0"/>
        <pt x="-220" y="-167" on="1"/>
        <pt x="-166" y="-167" on="0"/>
        <pt x="-107" y="-229" on="0"/>
        <pt x="-107" y="-287" on="1"/>
        <pt x="-107" y="-345" on="0"/>
        <pt x="-166" y="-410" on="0"/>
        <pt x="-220" y="-410" on="1"/>
        <pt x="-272" y="-410" on="0"/>
        <pt x="-330" y="-345" on="0"/>
      </contour>
      <contour>
        <pt x="-230" y="0" on="1"/>
      </contour>
    </TTGlyph>
    <TTGlyph name="glyph00063" xMin="160" yMin="294" xMax="866" yMax="998">
      <contour>
        <pt x="509" y="998" on="1"/>
        <pt x="612" y="998" on="0"/>
        <pt x="776" y="904" on="0"/>
        <pt x="866" y="739" on="0"/>
        <pt x="866" y="642" on="1"/>
        <pt x="866" y="551" on="0"/>
        <pt x="778" y="388" on="0"/>
        <pt x="624" y="294" on="0"/>
        <pt x="524" y="294" on="1"/>
        <pt x="370" y="294" on="0"/>
        <pt x="160" y="496" on="0"/>
        <pt x="160" y="654" on="1"/>
        <pt x="160" y="805" on="0"/>
        <pt x="357" y="998" on="0"/>
      </contour>
      <contour>
        <pt x="518" y="853" on="1"/>
        <pt x="425" y="853" on="0"/>
        <pt x="325" y="739" on="0"/>
        <pt x="325" y="644" on="1"/>
        <pt x="325" y="541" on="0"/>
        <pt x="424" y="439" on="0"/>
        <pt x="514" y="439" on="1"/>
        <pt x="600" y="439" on="0"/>
        <pt x="701" y="542" on="0"/>
        <pt x="701" y="652" on="1"/>
        <pt x="701" y="853" on="0"/>
      </contour>
    </TTGlyph>
    <TTGlyph name="glyph00064" xMin="120" yMin="-10" xMax="2150" yMax="1113">
      <contour>
        <pt x="943" y="921" on="1"/>
        <pt x="628" y="775" on="0"/>
        <pt x="450" y="601" on="1"/>
        <pt x="692" y="440" on="0"/>
        <pt x="692" y="247" on="1"/>
        <pt x="692" y="137" on="0"/>
        <pt x="537" y="-10" on="0"/>
        <pt x="424" y="-10" on="1"/>
        <pt x="284" y="-10" on="0"/>
        <pt x="120" y="155" on="0"/>
        <pt x="120" y="295" on="1"/>
        <pt x="120" y="492" on="0"/>
        <pt x="570" y="916" on="0"/>
        <pt x="990" y="1113" on="1"/>
        <pt x="1108" y="1113" on="1"/>
        <pt x="1108" y="421" on="1"/>
        <pt x="1108" y="316" on="0"/>
        <pt x="1164" y="198" on="0"/>
        <pt x="1279" y="145" on="0"/>
        <pt x="1409" y="145" on="1"/>
        <pt x="2150" y="145" on="1"/>
        <pt x="2150" y="0" on="1"/>
        <pt x="1419" y="0" on="1"/>
        <pt x="1178" y="0" on="0"/>
        <pt x="943" y="215" on="0"/>
        <pt x="943" y="443" on="1"/>
      </contour>
      <contour>
        <pt x="527" y="257" on="1"/>
        <pt x="527" y="327" on="0"/>
        <pt x="437" y="436" on="0"/>
        <pt x="356" y="490" on="1"/>
        <pt x="285" y="384" on="0"/>
        <pt x="285" y="285" on="1"/>
        <pt x="285" y="218" on="0"/>
        <pt x="354" y="135" on="0"/>
        <pt x="414" y="135" on="1"/>
        <pt x="462" y="135" on="0"/>
        <pt x="527" y="196" on="0"/>
      </contour>
    </TTGlyph>
    <TTGlyph name="glyph00065" xMin="120" yMin="-10" xMax="2150" yMax="1113">
      <contour>
        <pt x="943" y="921" on="1"/>
        <pt x="628" y="775" on="0"/>
        <pt x="450" y="601" on="1"/>
        <pt x="692" y="440" on="0"/>
        <pt x="692" y="247" on="1"/>
        <pt x="692" y="137" on="0"/>
        <pt x="537" y="-10" on="0"/>
        <pt x="424" y="-10" on="1"/>
        <pt x="284" y="-10" on="0"/>
        <pt x="120" y="155" on="0"/>
        <pt x="120" y="295" on="1"/>
        <pt x="120" y="492" on="0"/>
        <pt x="570" y="916" on="0"/>
        <pt x="990" y="1113" on="1"/>
        <pt x="1108" y="1113" on="1"/>
        <pt x="1108" y="421" on="1"/>
        <pt x="1108" y="316" on="0"/>
        <pt x="1164" y="198" on="0"/>
        <pt x="1279" y="145" on="0"/>
        <pt x="1409" y="145" on="1"/>
        <pt x="2150" y="145" on="1"/>
        <pt x="2150" y="0" on="1"/>
        <pt x="1419" y="0" on="1"/>
        <pt x="1178" y="0" on="0"/>
        <pt x="943" y="215" on="0"/>
        <pt x="943" y="443" on="1"/>
      </contour>
      <contour>
        <pt x="527" y="257" on="1"/>
        <pt x="527" y="327" on="0"/>
        <pt x="437" y="436" on="0"/>
        <pt x="356" y="490" on="1"/>
        <pt x="285" y="384" on="0"/>
        <pt x="285" y="285" on="1"/>
        <pt x="285" y="218" on="0"/>
        <pt x="354" y="135" on="0"/>
        <pt x="414" y="135" on="1"/>
        <pt x="462" y="135" on="0"/>
        <pt x="527" y="196" on="0"/>
      </contour>
    </TTGlyph>
    <TTGlyph name="glyph00066" xMin="180" yMin="-60" xMax="325" yMax="1334">
      <contour>
        <pt x="180" y="1334" on="1"/>
        <pt x="325" y="1334" on="1"/>
        <pt x="325" y="-60" on="1"/>
        <pt x="180" y="-60" on="1"/>
      </contour>
    </TTGlyph>
    <TTGlyph name="glyph00067" xMin="180" yMin="-60" xMax="725" yMax="1334">
      <contour>
        <pt x="180" y="1334" on="1"/>
        <pt x="325" y="1334" on="1"/>
        <pt x="325" y="-60" on="1"/>
        <pt x="180" y="-60" on="1"/>
      </contour>
      <contour>
        <pt x="580" y="1334" on="1"/>
        <pt x="725" y="1334" on="1"/>
        <pt x="725" y="-60" on="1"/>
        <pt x="580" y="-60" on="1"/>
      </contour>
    </TTGlyph>
    <TTGlyph name="glyph00068" xMin="95" yMin="0" xMax="1851" yMax="1859">
      <contour>
        <pt x="892" y="951" on="1"/>
        <pt x="892" y="855" on="0"/>
        <pt x="887" y="815" on="1"/>
        <pt x="892" y="815" on="1"/>
        <pt x="999" y="911" on="0"/>
        <pt x="1131" y="911" on="1"/>
        <pt x="1266" y="911" on="0"/>
        <pt x="1429" y="735" on="0"/>
        <pt x="1429" y="591" on="1"/>
        <pt x="1429" y="391" on="0"/>
        <pt x="1320" y="151" on="1"/>
        <pt x="1163" y="202" on="1"/>
        <pt x="1264" y="432" on="0"/>
        <pt x="1264" y="611" on="1"/>
        <pt x="1264" y="766" on="0"/>
        <pt x="1146" y="766" on="1"/>
        <pt x="1089" y="766" on="0"/>
        <pt x="969" y="691" on="0"/>
        <pt x="892" y="603" on="1"/>
        <pt x="892" y="0" on="1"/>
        <pt x="727" y="0" on="1"/>
        <pt x="727" y="322" on="1"/>
        <pt x="727" y="421" on="0"/>
        <pt x="732" y="438" on="1"/>
        <pt x="727" y="438" on="1"/>
        <pt x="602" y="340" on="0"/>
        <pt x="459" y="340" on="1"/>
        <pt x="360" y="340" on="0"/>
        <pt x="192" y="429" on="0"/>
        <pt x="95" y="585" on="0"/>
        <pt x="95" y="678" on="1"/>
        <pt x="95" y="814" on="0"/>
        <pt x="300" y="991" on="0"/>
        <pt x="452" y="991" on="1"/>
        <pt x="598" y="991" on="0"/>
        <pt x="727" y="904" on="1"/>
        <pt x="727" y="1244" on="1"/>
        <pt x="727" y="1536" on="0"/>
        <pt x="1021" y="1856" on="0"/>
        <pt x="1280" y="1856" on="1"/>
        <pt x="1546" y="1856" on="0"/>
        <pt x="1851" y="1513" on="0"/>
        <pt x="1851" y="1214" on="1"/>
        <pt x="1851" y="0" on="1"/>
        <pt x="1686" y="0" on="1"/>
        <pt x="1686" y="1234" on="1"/>
        <pt x="1686" y="1472" on="0"/>
        <pt x="1489" y="1711" on="0"/>
        <pt x="1300" y="1711" on="1"/>
        <pt x="1098" y="1711" on="0"/>
        <pt x="892" y="1456" on="0"/>
        <pt x="892" y="1214" on="1"/>
      </contour>
      <contour>
        <pt x="439" y="484" on="1"/>
        <pt x="584" y="484" on="0"/>
        <pt x="727" y="637" on="1"/>
        <pt x="727" y="779" on="1"/>
        <pt x="598" y="846" on="0"/>
        <pt x="472" y="846" on="1"/>
        <pt x="380" y="846" on="0"/>
        <pt x="260" y="740" on="0"/>
        <pt x="260" y="658" on="1"/>
        <pt x="260" y="581" on="0"/>
        <pt x="362" y="484" on="0"/>
      </contour>
      <contour>
        <pt x="1631" y="1859" on="1"/>
      </contour>
    </TTGlyph>
    <TTGlyph name="glyph00069" xMin="95" yMin="-462" xMax="1429" yMax="1400">
      <contour>
        <pt x="892" y="211" on="1"/>
        <pt x="892" y="139" on="0"/>
        <pt x="882" y="76" on="1"/>
        <pt x="995" y="58" on="0"/>
        <pt x="1121" y="-84" on="0"/>
        <pt x="1121" y="-189" on="1"/>
        <pt x="1121" y="-314" on="0"/>
        <pt x="945" y="-462" on="0"/>
        <pt x="796" y="-462" on="1"/>
        <pt x="692" y="-462" on="0"/>
        <pt x="507" y="-381" on="0"/>
        <pt x="341" y="-242" on="0"/>
        <pt x="240" y="-116" on="1"/>
        <pt x="343" y="-32" on="1"/>
        <pt x="449" y="-155" on="0"/>
        <pt x="571" y="-255" on="0"/>
        <pt x="705" y="-317" on="0"/>
        <pt x="780" y="-317" on="1"/>
        <pt x="859" y="-317" on="0"/>
        <pt x="956" y="-238" on="0"/>
        <pt x="956" y="-172" on="1"/>
        <pt x="956" y="-100" on="0"/>
        <pt x="837" y="-20" on="0"/>
        <pt x="727" y="-20" on="1"/>
        <pt x="727" y="322" on="1"/>
        <pt x="727" y="421" on="0"/>
        <pt x="732" y="438" on="1"/>
        <pt x="727" y="438" on="1"/>
        <pt x="602" y="340" on="0"/>
        <pt x="459" y="340" on="1"/>
        <pt x="360" y="340" on="0"/>
        <pt x="192" y="429" on="0"/>
        <pt x="95" y="585" on="0"/>
        <pt x="95" y="678" on="1"/>
        <pt x="95" y="814" on="0"/>
        <pt x="300" y="991" on="0"/>
        <pt x="452" y="991" on="1"/>
        <pt x="598" y="991" on="0"/>
        <pt x="727" y="904" on="1"/>
        <pt x="727" y="1274" on="1"/>
        <pt x="892" y="1274" on="1"/>
        <pt x="892" y="951" on="1"/>
        <pt x="892" y="855" on="0"/>
        <pt x="887" y="815" on="1"/>
        <pt x="892" y="815" on="1"/>
        <pt x="999" y="911" on="0"/>
        <pt x="1131" y="911" on="1"/>
        <pt x="1266" y="911" on="0"/>
        <pt x="1429" y="735" on="0"/>
        <pt x="1429" y="591" on="1"/>
        <pt x="1429" y="391" on="0"/>
        <pt x="1320" y="151" on="1"/>
        <pt x="1163" y="202" on="1"/>
        <pt x="1264" y="432" on="0"/>
        <pt x="1264" y="611" on="1"/>
        <pt x="1264" y="766" on="0"/>
        <pt x="1146" y="766" on="1"/>
        <pt x="1089" y="766" on="0"/>
        <pt x="969" y="691" on="0"/>
        <pt x="892" y="603" on="1"/>
      </contour>
      <contour>
        <pt x="439" y="484" on="1"/>
        <pt x="584" y="484" on="0"/>
        <pt x="727" y="637" on="1"/>
        <pt x="727" y="779" on="1"/>
        <pt x="598" y="846" on="0"/>
        <pt x="472" y="846" on="1"/>
        <pt x="380" y="846" on="0"/>
        <pt x="260" y="740" on="0"/>
        <pt x="260" y="658" on="1"/>
        <pt x="260" y="581" on="0"/>
        <pt x="362" y="484" on="0"/>
      </contour>
      <contour>
        <pt x="820" y="1400" on="1"/>
      </contour>
    </TTGlyph>
    <TTGlyph name="glyph00070" xMin="95" yMin="-543" xMax="1429" yMax="1400">
      <contour>
        <pt x="1198" y="-543" on="1"/>
        <pt x="1160" y="-468" on="1"/>
        <pt x="990" y="-135" on="0"/>
        <pt x="776" y="-135" on="1"/>
        <pt x="710" y="-135" on="0"/>
        <pt x="639" y="-199" on="0"/>
        <pt x="639" y="-247" on="1"/>
        <pt x="639" y="-303" on="0"/>
        <pt x="738" y="-368" on="0"/>
        <pt x="818" y="-370" on="1"/>
        <pt x="794" y="-491" on="1"/>
        <pt x="655" y="-491" on="0"/>
        <pt x="474" y="-343" on="0"/>
        <pt x="474" y="-230" on="1"/>
        <pt x="474" y="-130" on="0"/>
        <pt x="608" y="-1" on="0"/>
        <pt x="727" y="9" on="1"/>
        <pt x="727" y="322" on="1"/>
        <pt x="727" y="421" on="0"/>
        <pt x="732" y="438" on="1"/>
        <pt x="727" y="438" on="1"/>
        <pt x="602" y="340" on="0"/>
        <pt x="459" y="340" on="1"/>
        <pt x="303" y="340" on="0"/>
        <pt x="95" y="533" on="0"/>
        <pt x="95" y="678" on="1"/>
        <pt x="95" y="814" on="0"/>
        <pt x="299" y="991" on="0"/>
        <pt x="452" y="991" on="1"/>
        <pt x="598" y="991" on="0"/>
        <pt x="727" y="904" on="1"/>
        <pt x="727" y="1274" on="1"/>
        <pt x="892" y="1274" on="1"/>
        <pt x="892" y="951" on="1"/>
        <pt x="892" y="855" on="0"/>
        <pt x="887" y="815" on="1"/>
        <pt x="892" y="815" on="1"/>
        <pt x="999" y="911" on="0"/>
        <pt x="1131" y="911" on="1"/>
        <pt x="1266" y="911" on="0"/>
        <pt x="1429" y="735" on="0"/>
        <pt x="1429" y="591" on="1"/>
        <pt x="1429" y="391" on="0"/>
        <pt x="1320" y="151" on="1"/>
        <pt x="1163" y="202" on="1"/>
        <pt x="1264" y="432" on="0"/>
        <pt x="1264" y="611" on="1"/>
        <pt x="1264" y="766" on="0"/>
        <pt x="1146" y="766" on="1"/>
        <pt x="1089" y="766" on="0"/>
        <pt x="969" y="691" on="0"/>
        <pt x="892" y="603" on="1"/>
        <pt x="892" y="-11" on="1"/>
        <pt x="1007" y="-48" on="0"/>
        <pt x="1209" y="-272" on="0"/>
        <pt x="1307" y="-488" on="1"/>
      </contour>
      <contour>
        <pt x="439" y="484" on="1"/>
        <pt x="584" y="484" on="0"/>
        <pt x="727" y="637" on="1"/>
        <pt x="727" y="779" on="1"/>
        <pt x="598" y="846" on="0"/>
        <pt x="472" y="846" on="1"/>
        <pt x="384" y="846" on="0"/>
        <pt x="260" y="741" on="0"/>
        <pt x="260" y="658" on="1"/>
        <pt x="260" y="578" on="0"/>
        <pt x="359" y="484" on="0"/>
      </contour>
      <contour>
        <pt x="820" y="1400" on="1"/>
      </contour>
    </TTGlyph>
    <TTGlyph name="glyph00071" xMin="145" yMin="-462" xMax="1285" yMax="1400">
      <contour>
        <pt x="891" y="879" on="1"/>
        <pt x="891" y="987" on="0"/>
        <pt x="896" y="1014" on="1"/>
        <pt x="893" y="1017" on="1"/>
        <pt x="843" y="965" on="0"/>
        <pt x="728" y="888" on="0"/>
        <pt x="611" y="829" on="1"/>
        <pt x="561" y="802" on="1"/>
        <pt x="632" y="642" on="0"/>
        <pt x="632" y="522" on="1"/>
        <pt x="632" y="407" on="0"/>
        <pt x="505" y="274" on="0"/>
        <pt x="397" y="274" on="1"/>
        <pt x="291" y="274" on="0"/>
        <pt x="149" y="415" on="0"/>
        <pt x="149" y="530" on="1"/>
        <pt x="149" y="720" on="0"/>
        <pt x="370" y="869" on="1"/>
        <pt x="285" y="1021" on="0"/>
        <pt x="145" y="1198" on="1"/>
        <pt x="262" y="1284" on="1"/>
        <pt x="399" y="1109" on="0"/>
        <pt x="492" y="941" on="1"/>
        <pt x="677" y="1033" on="0"/>
        <pt x="859" y="1174" on="0"/>
        <pt x="936" y="1274" on="1"/>
        <pt x="1056" y="1274" on="1"/>
        <pt x="1056" y="211" on="1"/>
        <pt x="1056" y="139" on="0"/>
        <pt x="1046" y="76" on="1"/>
        <pt x="1159" y="58" on="0"/>
        <pt x="1285" y="-84" on="0"/>
        <pt x="1285" y="-189" on="1"/>
        <pt x="1285" y="-314" on="0"/>
        <pt x="1109" y="-462" on="0"/>
        <pt x="960" y="-462" on="1"/>
        <pt x="856" y="-462" on="0"/>
        <pt x="671" y="-381" on="0"/>
        <pt x="505" y="-242" on="0"/>
        <pt x="404" y="-116" on="1"/>
        <pt x="507" y="-32" on="1"/>
        <pt x="613" y="-155" on="0"/>
        <pt x="735" y="-255" on="0"/>
        <pt x="869" y="-317" on="0"/>
        <pt x="944" y="-317" on="1"/>
        <pt x="1023" y="-317" on="0"/>
        <pt x="1120" y="-238" on="0"/>
        <pt x="1120" y="-172" on="1"/>
        <pt x="1120" y="-100" on="0"/>
        <pt x="1001" y="-20" on="0"/>
        <pt x="891" y="-20" on="1"/>
      </contour>
      <contour>
        <pt x="477" y="546" on="1"/>
        <pt x="477" y="619" on="0"/>
        <pt x="439" y="722" on="1"/>
        <pt x="314" y="624" on="0"/>
        <pt x="314" y="513" on="1"/>
        <pt x="314" y="468" on="0"/>
        <pt x="355" y="419" on="0"/>
        <pt x="390" y="419" on="1"/>
        <pt x="432" y="419" on="0"/>
        <pt x="477" y="492" on="0"/>
      </contour>
      <contour>
        <pt x="990" y="1400" on="1"/>
      </contour>
    </TTGlyph>
    <TTGlyph name="glyph00072" xMin="145" yMin="-543" xMax="1421" yMax="1400">
      <contour>
        <pt x="1312" y="-543" on="1"/>
        <pt x="1274" y="-468" on="1"/>
        <pt x="1104" y="-135" on="0"/>
        <pt x="890" y="-135" on="1"/>
        <pt x="824" y="-135" on="0"/>
        <pt x="753" y="-199" on="0"/>
        <pt x="753" y="-247" on="1"/>
        <pt x="753" y="-303" on="0"/>
        <pt x="852" y="-368" on="0"/>
        <pt x="932" y="-370" on="1"/>
        <pt x="908" y="-491" on="1"/>
        <pt x="769" y="-491" on="0"/>
        <pt x="588" y="-343" on="0"/>
        <pt x="588" y="-230" on="1"/>
        <pt x="588" y="-121" on="0"/>
        <pt x="745" y="10" on="0"/>
        <pt x="874" y="10" on="1"/>
        <pt x="891" y="9" on="1"/>
        <pt x="891" y="879" on="1"/>
        <pt x="891" y="987" on="0"/>
        <pt x="896" y="1014" on="1"/>
        <pt x="893" y="1017" on="1"/>
        <pt x="843" y="965" on="0"/>
        <pt x="728" y="888" on="0"/>
        <pt x="611" y="829" on="1"/>
        <pt x="561" y="802" on="1"/>
        <pt x="632" y="642" on="0"/>
        <pt x="632" y="522" on="1"/>
        <pt x="632" y="407" on="0"/>
        <pt x="505" y="274" on="0"/>
        <pt x="397" y="274" on="1"/>
        <pt x="291" y="274" on="0"/>
        <pt x="149" y="415" on="0"/>
        <pt x="149" y="530" on="1"/>
        <pt x="149" y="720" on="0"/>
        <pt x="370" y="869" on="1"/>
        <pt x="285" y="1021" on="0"/>
        <pt x="145" y="1198" on="1"/>
        <pt x="262" y="1284" on="1"/>
        <pt x="399" y="1109" on="0"/>
        <pt x="492" y="941" on="1"/>
        <pt x="677" y="1033" on="0"/>
        <pt x="859" y="1174" on="0"/>
        <pt x="936" y="1274" on="1"/>
        <pt x="1056" y="1274" on="1"/>
        <pt x="1056" y="191" on="1"/>
        <pt x="1056" y="63" on="0"/>
        <pt x="1034" y="-4" on="1"/>
        <pt x="1029" y="-19" on="1"/>
        <pt x="1102" y="-48" on="0"/>
        <pt x="1238" y="-166" on="0"/>
        <pt x="1350" y="-336" on="0"/>
        <pt x="1421" y="-488" on="1"/>
      </contour>
      <contour>
        <pt x="477" y="546" on="1"/>
        <pt x="477" y="619" on="0"/>
        <pt x="439" y="722" on="1"/>
        <pt x="314" y="624" on="0"/>
        <pt x="314" y="513" on="1"/>
        <pt x="314" y="468" on="0"/>
        <pt x="355" y="419" on="0"/>
        <pt x="390" y="419" on="1"/>
        <pt x="432" y="419" on="0"/>
        <pt x="477" y="492" on="0"/>
      </contour>
      <contour>
        <pt x="980" y="1400" on="1"/>
      </contour>
    </TTGlyph>
    <TTGlyph name="glyph00073" xMin="110" yMin="-462" xMax="1370" yMax="1400">
      <contour>
        <pt x="1141" y="211" on="1"/>
        <pt x="1141" y="139" on="0"/>
        <pt x="1131" y="76" on="1"/>
        <pt x="1244" y="58" on="0"/>
        <pt x="1370" y="-84" on="0"/>
        <pt x="1370" y="-189" on="1"/>
        <pt x="1370" y="-314" on="0"/>
        <pt x="1194" y="-462" on="0"/>
        <pt x="1045" y="-462" on="1"/>
        <pt x="941" y="-462" on="0"/>
        <pt x="756" y="-381" on="0"/>
        <pt x="590" y="-242" on="0"/>
        <pt x="489" y="-116" on="1"/>
        <pt x="592" y="-32" on="1"/>
        <pt x="698" y="-155" on="0"/>
        <pt x="820" y="-255" on="0"/>
        <pt x="954" y="-317" on="0"/>
        <pt x="1029" y="-317" on="1"/>
        <pt x="1108" y="-317" on="0"/>
        <pt x="1205" y="-238" on="0"/>
        <pt x="1205" y="-172" on="1"/>
        <pt x="1205" y="-100" on="0"/>
        <pt x="1086" y="-20" on="0"/>
        <pt x="976" y="-20" on="1"/>
        <pt x="976" y="924" on="1"/>
        <pt x="976" y="1037" on="0"/>
        <pt x="981" y="1074" on="1"/>
        <pt x="976" y="1074" on="1"/>
        <pt x="852" y="992" on="1"/>
        <pt x="758" y="938" on="0"/>
        <pt x="672" y="878" on="1"/>
        <pt x="737" y="694" on="0"/>
        <pt x="737" y="522" on="1"/>
        <pt x="737" y="381" on="0"/>
        <pt x="592" y="214" on="0"/>
        <pt x="472" y="214" on="1"/>
        <pt x="354" y="214" on="0"/>
        <pt x="199" y="373" on="0"/>
        <pt x="199" y="495" on="1"/>
        <pt x="199" y="709" on="0"/>
        <pt x="488" y="944" on="1"/>
        <pt x="449" y="1037" on="0"/>
        <pt x="382" y="1140" on="1"/>
        <pt x="282" y="1122" on="0"/>
        <pt x="150" y="1073" on="1"/>
        <pt x="110" y="1201" on="1"/>
        <pt x="314" y="1270" on="0"/>
        <pt x="467" y="1284" on="1"/>
        <pt x="557" y="1144" on="0"/>
        <pt x="609" y="1033" on="1"/>
        <pt x="767" y="1141" on="0"/>
        <pt x="1021" y="1274" on="1"/>
        <pt x="1141" y="1274" on="1"/>
      </contour>
      <contour>
        <pt x="572" y="561" on="1"/>
        <pt x="572" y="666" on="0"/>
        <pt x="544" y="778" on="1"/>
        <pt x="364" y="614" on="0"/>
        <pt x="364" y="468" on="1"/>
        <pt x="364" y="417" on="0"/>
        <pt x="409" y="359" on="0"/>
        <pt x="450" y="359" on="1"/>
        <pt x="505" y="359" on="0"/>
        <pt x="572" y="464" on="0"/>
      </contour>
      <contour>
        <pt x="1060" y="1400" on="1"/>
      </contour>
    </TTGlyph>
    <TTGlyph name="glyph00074" xMin="110" yMin="-543" xMax="1505" yMax="1400">
      <contour>
        <pt x="1396" y="-543" on="1"/>
        <pt x="1358" y="-468" on="1"/>
        <pt x="1188" y="-135" on="0"/>
        <pt x="974" y="-135" on="1"/>
        <pt x="908" y="-135" on="0"/>
        <pt x="837" y="-199" on="0"/>
        <pt x="837" y="-247" on="1"/>
        <pt x="837" y="-303" on="0"/>
        <pt x="936" y="-368" on="0"/>
        <pt x="1016" y="-370" on="1"/>
        <pt x="992" y="-491" on="1"/>
        <pt x="853" y="-491" on="0"/>
        <pt x="672" y="-343" on="0"/>
        <pt x="672" y="-230" on="1"/>
        <pt x="672" y="-121" on="0"/>
        <pt x="829" y="10" on="0"/>
        <pt x="958" y="10" on="1"/>
        <pt x="976" y="9" on="1"/>
        <pt x="976" y="924" on="1"/>
        <pt x="976" y="1037" on="0"/>
        <pt x="981" y="1074" on="1"/>
        <pt x="976" y="1074" on="1"/>
        <pt x="852" y="992" on="1"/>
        <pt x="758" y="938" on="0"/>
        <pt x="672" y="878" on="1"/>
        <pt x="737" y="694" on="0"/>
        <pt x="737" y="522" on="1"/>
        <pt x="737" y="381" on="0"/>
        <pt x="592" y="214" on="0"/>
        <pt x="472" y="214" on="1"/>
        <pt x="354" y="214" on="0"/>
        <pt x="199" y="373" on="0"/>
        <pt x="199" y="495" on="1"/>
        <pt x="199" y="709" on="0"/>
        <pt x="488" y="944" on="1"/>
        <pt x="449" y="1037" on="0"/>
        <pt x="382" y="1140" on="1"/>
        <pt x="282" y="1122" on="0"/>
        <pt x="150" y="1073" on="1"/>
        <pt x="110" y="1201" on="1"/>
        <pt x="314" y="1270" on="0"/>
        <pt x="467" y="1284" on="1"/>
        <pt x="557" y="1144" on="0"/>
        <pt x="609" y="1033" on="1"/>
        <pt x="767" y="1141" on="0"/>
        <pt x="1021" y="1274" on="1"/>
        <pt x="1141" y="1274" on="1"/>
        <pt x="1141" y="191" on="1"/>
        <pt x="1141" y="65" on="0"/>
        <pt x="1114" y="-20" on="1"/>
        <pt x="1197" y="-53" on="0"/>
        <pt x="1329" y="-179" on="0"/>
        <pt x="1432" y="-332" on="0"/>
        <pt x="1505" y="-488" on="1"/>
      </contour>
      <contour>
        <pt x="572" y="561" on="1"/>
        <pt x="572" y="666" on="0"/>
        <pt x="544" y="778" on="1"/>
        <pt x="364" y="614" on="0"/>
        <pt x="364" y="468" on="1"/>
        <pt x="364" y="417" on="0"/>
        <pt x="409" y="359" on="0"/>
        <pt x="450" y="359" on="1"/>
        <pt x="505" y="359" on="0"/>
        <pt x="572" y="464" on="0"/>
      </contour>
      <contour>
        <pt x="1060" y="1400" on="1"/>
      </contour>
    </TTGlyph>
    <TTGlyph name="glyph00075" xMin="70" yMin="-462" xMax="975" yMax="1400">
      <contour>
        <pt x="746" y="211" on="1"/>
        <pt x="746" y="139" on="0"/>
        <pt x="736" y="76" on="1"/>
        <pt x="849" y="58" on="0"/>
        <pt x="975" y="-84" on="0"/>
        <pt x="975" y="-189" on="1"/>
        <pt x="975" y="-314" on="0"/>
        <pt x="799" y="-462" on="0"/>
        <pt x="650" y="-462" on="1"/>
        <pt x="546" y="-462" on="0"/>
        <pt x="361" y="-381" on="0"/>
        <pt x="195" y="-242" on="0"/>
        <pt x="94" y="-116" on="1"/>
        <pt x="197" y="-32" on="1"/>
        <pt x="303" y="-155" on="0"/>
        <pt x="425" y="-255" on="0"/>
        <pt x="559" y="-317" on="0"/>
        <pt x="634" y="-317" on="1"/>
        <pt x="713" y="-317" on="0"/>
        <pt x="810" y="-238" on="0"/>
        <pt x="810" y="-172" on="1"/>
        <pt x="810" y="-100" on="0"/>
        <pt x="691" y="-20" on="0"/>
        <pt x="581" y="-20" on="1"/>
        <pt x="581" y="770" on="1"/>
        <pt x="581" y="986" on="0"/>
        <pt x="586" y="1023" on="1"/>
        <pt x="581" y="1023" on="1"/>
        <pt x="457" y="882" on="1"/>
        <pt x="179" y="631" on="1"/>
        <pt x="70" y="766" on="1"/>
        <pt x="626" y="1274" on="1"/>
        <pt x="746" y="1274" on="1"/>
      </contour>
      <contour>
        <pt x="670" y="1400" on="1"/>
      </contour>
    </TTGlyph>
    <TTGlyph name="glyph00076" xMin="70" yMin="-543" xMax="1111" yMax="1400">
      <contour>
        <pt x="1002" y="-543" on="1"/>
        <pt x="964" y="-468" on="1"/>
        <pt x="794" y="-135" on="0"/>
        <pt x="580" y="-135" on="1"/>
        <pt x="509" y="-135" on="0"/>
        <pt x="423" y="-200" on="0"/>
        <pt x="423" y="-256" on="1"/>
        <pt x="423" y="-319" on="0"/>
        <pt x="530" y="-387" on="0"/>
        <pt x="622" y="-389" on="1"/>
        <pt x="598" y="-510" on="1"/>
        <pt x="455" y="-510" on="0"/>
        <pt x="258" y="-353" on="0"/>
        <pt x="258" y="-239" on="1"/>
        <pt x="258" y="-129" on="0"/>
        <pt x="431" y="10" on="0"/>
        <pt x="564" y="10" on="1"/>
        <pt x="581" y="9" on="1"/>
        <pt x="581" y="770" on="1"/>
        <pt x="581" y="986" on="0"/>
        <pt x="586" y="1023" on="1"/>
        <pt x="581" y="1023" on="1"/>
        <pt x="457" y="882" on="1"/>
        <pt x="179" y="631" on="1"/>
        <pt x="70" y="766" on="1"/>
        <pt x="626" y="1274" on="1"/>
        <pt x="746" y="1274" on="1"/>
        <pt x="746" y="191" on="1"/>
        <pt x="746" y="63" on="0"/>
        <pt x="724" y="-4" on="1"/>
        <pt x="719" y="-19" on="1"/>
        <pt x="792" y="-48" on="0"/>
        <pt x="928" y="-166" on="0"/>
        <pt x="1040" y="-336" on="0"/>
        <pt x="1111" y="-488" on="1"/>
      </contour>
      <contour>
        <pt x="670" y="1400" on="1"/>
      </contour>
    </TTGlyph>
    <TTGlyph name="glyph00077" xMin="130" yMin="-462" xMax="1556" yMax="1400">
      <contour>
        <pt x="1162" y="332" on="1"/>
        <pt x="1162" y="468" on="0"/>
        <pt x="1167" y="503" on="1"/>
        <pt x="1162" y="503" on="1"/>
        <pt x="1130" y="475" on="0"/>
        <pt x="1027" y="435" on="0"/>
        <pt x="967" y="435" on="1"/>
        <pt x="810" y="435" on="0"/>
        <pt x="725" y="522" on="1"/>
        <pt x="720" y="522" on="1"/>
        <pt x="678" y="484" on="0"/>
        <pt x="542" y="435" on="0"/>
        <pt x="467" y="435" on="1"/>
        <pt x="130" y="435" on="0"/>
        <pt x="130" y="821" on="1"/>
        <pt x="130" y="1274" on="1"/>
        <pt x="295" y="1274" on="1"/>
        <pt x="295" y="756" on="1"/>
        <pt x="295" y="661" on="0"/>
        <pt x="355" y="579" on="0"/>
        <pt x="432" y="579" on="1"/>
        <pt x="548" y="579" on="0"/>
        <pt x="644" y="680" on="1"/>
        <pt x="630" y="745" on="0"/>
        <pt x="630" y="821" on="1"/>
        <pt x="630" y="1274" on="1"/>
        <pt x="795" y="1274" on="1"/>
        <pt x="795" y="756" on="1"/>
        <pt x="795" y="661" on="0"/>
        <pt x="855" y="579" on="0"/>
        <pt x="932" y="579" on="1"/>
        <pt x="1056" y="579" on="0"/>
        <pt x="1162" y="701" on="1"/>
        <pt x="1162" y="1274" on="1"/>
        <pt x="1327" y="1274" on="1"/>
        <pt x="1327" y="211" on="1"/>
        <pt x="1327" y="139" on="0"/>
        <pt x="1317" y="76" on="1"/>
        <pt x="1430" y="58" on="0"/>
        <pt x="1556" y="-84" on="0"/>
        <pt x="1556" y="-189" on="1"/>
        <pt x="1556" y="-314" on="0"/>
        <pt x="1380" y="-462" on="0"/>
        <pt x="1231" y="-462" on="1"/>
        <pt x="1127" y="-462" on="0"/>
        <pt x="942" y="-381" on="0"/>
        <pt x="776" y="-242" on="0"/>
        <pt x="675" y="-116" on="1"/>
        <pt x="778" y="-32" on="1"/>
        <pt x="884" y="-155" on="0"/>
        <pt x="1006" y="-255" on="0"/>
        <pt x="1140" y="-317" on="0"/>
        <pt x="1215" y="-317" on="1"/>
        <pt x="1294" y="-317" on="0"/>
        <pt x="1391" y="-238" on="0"/>
        <pt x="1391" y="-172" on="1"/>
        <pt x="1391" y="-100" on="0"/>
        <pt x="1272" y="-20" on="0"/>
        <pt x="1162" y="-20" on="1"/>
      </contour>
      <contour>
        <pt x="1240" y="1400" on="1"/>
      </contour>
    </TTGlyph>
    <TTGlyph name="glyph00078" xMin="130" yMin="-543" xMax="1692" yMax="1400">
      <contour>
        <pt x="1583" y="-543" on="1"/>
        <pt x="1545" y="-468" on="1"/>
        <pt x="1375" y="-135" on="0"/>
        <pt x="1161" y="-135" on="1"/>
        <pt x="1095" y="-135" on="0"/>
        <pt x="1024" y="-199" on="0"/>
        <pt x="1024" y="-247" on="1"/>
        <pt x="1024" y="-303" on="0"/>
        <pt x="1123" y="-368" on="0"/>
        <pt x="1203" y="-370" on="1"/>
        <pt x="1179" y="-491" on="1"/>
        <pt x="1040" y="-491" on="0"/>
        <pt x="859" y="-343" on="0"/>
        <pt x="859" y="-230" on="1"/>
        <pt x="859" y="-121" on="0"/>
        <pt x="1016" y="10" on="0"/>
        <pt x="1145" y="10" on="1"/>
        <pt x="1162" y="9" on="1"/>
        <pt x="1162" y="332" on="1"/>
        <pt x="1162" y="468" on="0"/>
        <pt x="1167" y="503" on="1"/>
        <pt x="1162" y="503" on="1"/>
        <pt x="1130" y="475" on="0"/>
        <pt x="1027" y="435" on="0"/>
        <pt x="967" y="435" on="1"/>
        <pt x="810" y="435" on="0"/>
        <pt x="725" y="522" on="1"/>
        <pt x="720" y="522" on="1"/>
        <pt x="678" y="484" on="0"/>
        <pt x="542" y="435" on="0"/>
        <pt x="467" y="435" on="1"/>
        <pt x="130" y="435" on="0"/>
        <pt x="130" y="821" on="1"/>
        <pt x="130" y="1274" on="1"/>
        <pt x="295" y="1274" on="1"/>
        <pt x="295" y="756" on="1"/>
        <pt x="295" y="661" on="0"/>
        <pt x="355" y="579" on="0"/>
        <pt x="432" y="579" on="1"/>
        <pt x="548" y="579" on="0"/>
        <pt x="644" y="680" on="1"/>
        <pt x="630" y="745" on="0"/>
        <pt x="630" y="821" on="1"/>
        <pt x="630" y="1274" on="1"/>
        <pt x="795" y="1274" on="1"/>
        <pt x="795" y="756" on="1"/>
        <pt x="795" y="661" on="0"/>
        <pt x="855" y="579" on="0"/>
        <pt x="932" y="579" on="1"/>
        <pt x="1056" y="579" on="0"/>
        <pt x="1162" y="701" on="1"/>
        <pt x="1162" y="1274" on="1"/>
        <pt x="1327" y="1274" on="1"/>
        <pt x="1327" y="191" on="1"/>
        <pt x="1327" y="63" on="0"/>
        <pt x="1305" y="-4" on="1"/>
        <pt x="1300" y="-19" on="1"/>
        <pt x="1373" y="-48" on="0"/>
        <pt x="1509" y="-166" on="0"/>
        <pt x="1621" y="-336" on="0"/>
        <pt x="1692" y="-488" on="1"/>
      </contour>
      <contour>
        <pt x="1240" y="1400" on="1"/>
      </contour>
    </TTGlyph>
    <TTGlyph name="glyph00079" xMin="160" yMin="0" xMax="1457" yMax="1859">
      <contour>
        <pt x="907" y="0" on="1"/>
        <pt x="742" y="0" on="1"/>
        <pt x="742" y="302" on="1"/>
        <pt x="742" y="438" on="0"/>
        <pt x="747" y="473" on="1"/>
        <pt x="742" y="473" on="1"/>
        <pt x="710" y="445" on="0"/>
        <pt x="597" y="405" on="0"/>
        <pt x="537" y="405" on="1"/>
        <pt x="362" y="405" on="0"/>
        <pt x="160" y="628" on="0"/>
        <pt x="160" y="821" on="1"/>
        <pt x="160" y="1274" on="1"/>
        <pt x="325" y="1274" on="1"/>
        <pt x="325" y="756" on="1"/>
        <pt x="325" y="650" on="0"/>
        <pt x="414" y="549" on="0"/>
        <pt x="512" y="549" on="1"/>
        <pt x="636" y="549" on="0"/>
        <pt x="742" y="671" on="1"/>
        <pt x="742" y="1274" on="1"/>
        <pt x="742" y="1796" on="0"/>
        <pt x="1098" y="1796" on="1"/>
        <pt x="1282" y="1796" on="0"/>
        <pt x="1457" y="1519" on="0"/>
        <pt x="1457" y="1224" on="1"/>
        <pt x="1457" y="0" on="1"/>
        <pt x="1292" y="0" on="1"/>
        <pt x="1292" y="1254" on="1"/>
        <pt x="1292" y="1474" on="0"/>
        <pt x="1209" y="1651" on="0"/>
        <pt x="1108" y="1651" on="1"/>
        <pt x="1005" y="1651" on="0"/>
        <pt x="907" y="1453" on="0"/>
        <pt x="907" y="1244" on="1"/>
      </contour>
      <contour>
        <pt x="1225" y="1859" on="1"/>
      </contour>
    </TTGlyph>
    <TTGlyph name="glyph00080" xMin="160" yMin="-462" xMax="1136" yMax="1400">
      <contour>
        <pt x="742" y="302" on="1"/>
        <pt x="742" y="426" on="0"/>
        <pt x="752" y="473" on="1"/>
        <pt x="742" y="473" on="1"/>
        <pt x="710" y="445" on="0"/>
        <pt x="597" y="405" on="0"/>
        <pt x="537" y="405" on="1"/>
        <pt x="362" y="405" on="0"/>
        <pt x="160" y="628" on="0"/>
        <pt x="160" y="821" on="1"/>
        <pt x="160" y="1274" on="1"/>
        <pt x="325" y="1274" on="1"/>
        <pt x="325" y="756" on="1"/>
        <pt x="325" y="650" on="0"/>
        <pt x="414" y="549" on="0"/>
        <pt x="512" y="549" on="1"/>
        <pt x="636" y="549" on="0"/>
        <pt x="742" y="671" on="1"/>
        <pt x="742" y="1274" on="1"/>
        <pt x="907" y="1274" on="1"/>
        <pt x="907" y="211" on="1"/>
        <pt x="907" y="139" on="0"/>
        <pt x="897" y="76" on="1"/>
        <pt x="1010" y="58" on="0"/>
        <pt x="1136" y="-84" on="0"/>
        <pt x="1136" y="-189" on="1"/>
        <pt x="1136" y="-314" on="0"/>
        <pt x="960" y="-462" on="0"/>
        <pt x="811" y="-462" on="1"/>
        <pt x="707" y="-462" on="0"/>
        <pt x="522" y="-381" on="0"/>
        <pt x="356" y="-242" on="0"/>
        <pt x="255" y="-116" on="1"/>
        <pt x="358" y="-32" on="1"/>
        <pt x="464" y="-155" on="0"/>
        <pt x="586" y="-255" on="0"/>
        <pt x="720" y="-317" on="0"/>
        <pt x="795" y="-317" on="1"/>
        <pt x="874" y="-317" on="0"/>
        <pt x="971" y="-238" on="0"/>
        <pt x="971" y="-172" on="1"/>
        <pt x="971" y="-100" on="0"/>
        <pt x="852" y="-20" on="0"/>
        <pt x="742" y="-20" on="1"/>
      </contour>
      <contour>
        <pt x="810" y="1400" on="1"/>
      </contour>
    </TTGlyph>
    <TTGlyph name="glyph00081" xMin="160" yMin="-543" xMax="1273" yMax="1400">
      <contour>
        <pt x="1164" y="-543" on="1"/>
        <pt x="1126" y="-468" on="1"/>
        <pt x="956" y="-135" on="0"/>
        <pt x="742" y="-135" on="1"/>
        <pt x="676" y="-135" on="0"/>
        <pt x="605" y="-199" on="0"/>
        <pt x="605" y="-247" on="1"/>
        <pt x="605" y="-303" on="0"/>
        <pt x="704" y="-368" on="0"/>
        <pt x="784" y="-370" on="1"/>
        <pt x="760" y="-491" on="1"/>
        <pt x="621" y="-491" on="0"/>
        <pt x="440" y="-343" on="0"/>
        <pt x="440" y="-230" on="1"/>
        <pt x="440" y="-121" on="0"/>
        <pt x="597" y="10" on="0"/>
        <pt x="726" y="10" on="1"/>
        <pt x="742" y="9" on="1"/>
        <pt x="742" y="302" on="1"/>
        <pt x="742" y="426" on="0"/>
        <pt x="752" y="473" on="1"/>
        <pt x="742" y="473" on="1"/>
        <pt x="710" y="445" on="0"/>
        <pt x="597" y="405" on="0"/>
        <pt x="537" y="405" on="1"/>
        <pt x="362" y="405" on="0"/>
        <pt x="160" y="628" on="0"/>
        <pt x="160" y="821" on="1"/>
        <pt x="160" y="1274" on="1"/>
        <pt x="325" y="1274" on="1"/>
        <pt x="325" y="756" on="1"/>
        <pt x="325" y="650" on="0"/>
        <pt x="414" y="549" on="0"/>
        <pt x="512" y="549" on="1"/>
        <pt x="636" y="549" on="0"/>
        <pt x="742" y="671" on="1"/>
        <pt x="742" y="1274" on="1"/>
        <pt x="907" y="1274" on="1"/>
        <pt x="907" y="191" on="1"/>
        <pt x="907" y="117" on="0"/>
        <pt x="887" y="-12" on="0"/>
        <pt x="880" y="-19" on="1"/>
        <pt x="938" y="-42" on="0"/>
        <pt x="1039" y="-119" on="0"/>
        <pt x="1126" y="-218" on="0"/>
        <pt x="1210" y="-352" on="0"/>
        <pt x="1273" y="-488" on="1"/>
      </contour>
      <contour>
        <pt x="810" y="1400" on="1"/>
      </contour>
    </TTGlyph>
    <TTGlyph name="glyph00082" xMin="120" yMin="-462" xMax="1500" yMax="1400">
      <contour>
        <pt x="1271" y="211" on="1"/>
        <pt x="1271" y="139" on="0"/>
        <pt x="1261" y="76" on="1"/>
        <pt x="1374" y="58" on="0"/>
        <pt x="1500" y="-84" on="0"/>
        <pt x="1500" y="-189" on="1"/>
        <pt x="1500" y="-314" on="0"/>
        <pt x="1324" y="-462" on="0"/>
        <pt x="1175" y="-462" on="1"/>
        <pt x="1071" y="-462" on="0"/>
        <pt x="886" y="-381" on="0"/>
        <pt x="720" y="-242" on="0"/>
        <pt x="619" y="-116" on="1"/>
        <pt x="722" y="-32" on="1"/>
        <pt x="828" y="-155" on="0"/>
        <pt x="950" y="-255" on="0"/>
        <pt x="1084" y="-317" on="0"/>
        <pt x="1159" y="-317" on="1"/>
        <pt x="1238" y="-317" on="0"/>
        <pt x="1335" y="-238" on="0"/>
        <pt x="1335" y="-172" on="1"/>
        <pt x="1335" y="-100" on="0"/>
        <pt x="1216" y="-20" on="0"/>
        <pt x="1106" y="-20" on="1"/>
        <pt x="1106" y="595" on="1"/>
        <pt x="1055" y="580" on="0"/>
        <pt x="978" y="580" on="1"/>
        <pt x="865" y="580" on="0"/>
        <pt x="763" y="630" on="1"/>
        <pt x="689" y="537" on="0"/>
        <pt x="560" y="487" on="1"/>
        <pt x="608" y="424" on="0"/>
        <pt x="704" y="282" on="0"/>
        <pt x="755" y="210" on="1"/>
        <pt x="611" y="131" on="1"/>
        <pt x="421" y="452" on="1"/>
        <pt x="342" y="447" on="1"/>
        <pt x="248" y="447" on="0"/>
        <pt x="120" y="537" on="0"/>
        <pt x="120" y="603" on="1"/>
        <pt x="120" y="651" on="0"/>
        <pt x="185" y="712" on="0"/>
        <pt x="246" y="712" on="1"/>
        <pt x="347" y="712" on="0"/>
        <pt x="454" y="609" on="1"/>
        <pt x="568" y="649" on="0"/>
        <pt x="683" y="797" on="0"/>
        <pt x="683" y="897" on="1"/>
        <pt x="683" y="1010" on="0"/>
        <pt x="559" y="1139" on="0"/>
        <pt x="456" y="1139" on="1"/>
        <pt x="417" y="1139" on="0"/>
        <pt x="347" y="1119" on="0"/>
        <pt x="285" y="1087" on="0"/>
        <pt x="224" y="1039" on="1"/>
        <pt x="136" y="1162" on="1"/>
        <pt x="282" y="1284" on="0"/>
        <pt x="445" y="1284" on="1"/>
        <pt x="563" y="1284" on="0"/>
        <pt x="746" y="1177" on="0"/>
        <pt x="848" y="990" on="0"/>
        <pt x="848" y="879" on="1"/>
        <pt x="848" y="806" on="0"/>
        <pt x="826" y="744" on="1"/>
        <pt x="894" y="720" on="0"/>
        <pt x="963" y="720" on="1"/>
        <pt x="1042" y="720" on="0"/>
        <pt x="1106" y="750" on="1"/>
        <pt x="1106" y="1274" on="1"/>
        <pt x="1271" y="1274" on="1"/>
      </contour>
      <contour>
        <pt x="1180" y="1400" on="1"/>
      </contour>
    </TTGlyph>
    <TTGlyph name="glyph00083" xMin="120" yMin="-543" xMax="1636" yMax="1400">
      <contour>
        <pt x="1527" y="-543" on="1"/>
        <pt x="1489" y="-468" on="1"/>
        <pt x="1319" y="-135" on="0"/>
        <pt x="1105" y="-135" on="1"/>
        <pt x="1039" y="-135" on="0"/>
        <pt x="968" y="-199" on="0"/>
        <pt x="968" y="-247" on="1"/>
        <pt x="968" y="-303" on="0"/>
        <pt x="1067" y="-368" on="0"/>
        <pt x="1147" y="-370" on="1"/>
        <pt x="1123" y="-491" on="1"/>
        <pt x="984" y="-491" on="0"/>
        <pt x="803" y="-343" on="0"/>
        <pt x="803" y="-230" on="1"/>
        <pt x="803" y="-121" on="0"/>
        <pt x="960" y="10" on="0"/>
        <pt x="1089" y="10" on="1"/>
        <pt x="1106" y="9" on="1"/>
        <pt x="1106" y="595" on="1"/>
        <pt x="1055" y="580" on="0"/>
        <pt x="978" y="580" on="1"/>
        <pt x="865" y="580" on="0"/>
        <pt x="763" y="630" on="1"/>
        <pt x="688" y="536" on="0"/>
        <pt x="558" y="486" on="1"/>
        <pt x="621" y="406" on="0"/>
        <pt x="750" y="218" on="0"/>
        <pt x="816" y="123" on="1"/>
        <pt x="672" y="44" on="1"/>
        <pt x="423" y="452" on="1"/>
        <pt x="390" y="447" on="0"/>
        <pt x="342" y="447" on="1"/>
        <pt x="248" y="447" on="0"/>
        <pt x="120" y="537" on="0"/>
        <pt x="120" y="603" on="1"/>
        <pt x="120" y="651" on="0"/>
        <pt x="185" y="712" on="0"/>
        <pt x="246" y="712" on="1"/>
        <pt x="337" y="712" on="0"/>
        <pt x="449" y="607" on="1"/>
        <pt x="566" y="647" on="0"/>
        <pt x="683" y="796" on="0"/>
        <pt x="683" y="897" on="1"/>
        <pt x="683" y="1010" on="0"/>
        <pt x="559" y="1139" on="0"/>
        <pt x="456" y="1139" on="1"/>
        <pt x="417" y="1139" on="0"/>
        <pt x="347" y="1119" on="0"/>
        <pt x="285" y="1087" on="0"/>
        <pt x="224" y="1039" on="1"/>
        <pt x="136" y="1162" on="1"/>
        <pt x="282" y="1284" on="0"/>
        <pt x="445" y="1284" on="1"/>
        <pt x="563" y="1284" on="0"/>
        <pt x="746" y="1177" on="0"/>
        <pt x="848" y="990" on="0"/>
        <pt x="848" y="879" on="1"/>
        <pt x="848" y="806" on="0"/>
        <pt x="826" y="744" on="1"/>
        <pt x="894" y="720" on="0"/>
        <pt x="963" y="720" on="1"/>
        <pt x="1042" y="720" on="0"/>
        <pt x="1106" y="750" on="1"/>
        <pt x="1106" y="1274" on="1"/>
        <pt x="1271" y="1274" on="1"/>
        <pt x="1271" y="191" on="1"/>
        <pt x="1271" y="63" on="0"/>
        <pt x="1249" y="-4" on="1"/>
        <pt x="1244" y="-19" on="1"/>
        <pt x="1317" y="-48" on="0"/>
        <pt x="1453" y="-166" on="0"/>
        <pt x="1565" y="-336" on="0"/>
        <pt x="1636" y="-488" on="1"/>
      </contour>
      <contour>
        <pt x="1180" y="1400" on="1"/>
      </contour>
    </TTGlyph>
    <TTGlyph name="glyph00084" xMin="180" yMin="0" xMax="1263" yMax="1785">
      <contour>
        <pt x="180" y="1204" on="1"/>
        <pt x="180" y="1491" on="0"/>
        <pt x="411" y="1785" on="0"/>
        <pt x="637" y="1785" on="1"/>
        <pt x="746" y="1785" on="0"/>
        <pt x="942" y="1714" on="0"/>
        <pt x="1121" y="1596" on="0"/>
        <pt x="1263" y="1460" on="1"/>
        <pt x="1178" y="1374" on="1"/>
        <pt x="1043" y="1495" on="0"/>
        <pt x="901" y="1584" on="0"/>
        <pt x="744" y="1640" on="0"/>
        <pt x="655" y="1640" on="1"/>
        <pt x="498" y="1640" on="0"/>
        <pt x="345" y="1414" on="0"/>
        <pt x="345" y="1184" on="1"/>
        <pt x="345" y="0" on="1"/>
        <pt x="180" y="0" on="1"/>
      </contour>
      <contour>
        <pt x="1193" y="1660" on="1"/>
      </contour>
    </TTGlyph>
    <TTGlyph name="glyph00085" xMin="-1050" yMin="1380" xMax="74" yMax="2097">
      <contour>
        <pt x="-174" y="1380" on="1"/>
        <pt x="-1050" y="1708" on="1"/>
        <pt x="-979" y="1856" on="1"/>
        <pt x="-425" y="1619" on="1"/>
        <pt x="-349" y="1586" on="0"/>
        <pt x="-254" y="1527" on="1"/>
        <pt x="-246" y="1535" on="1"/>
        <pt x="-276" y="1593" on="0"/>
        <pt x="-377" y="1713" on="0"/>
        <pt x="-509" y="1840" on="1"/>
        <pt x="-662" y="1989" on="1"/>
        <pt x="-550" y="2097" on="1"/>
        <pt x="-361" y="1908" on="0"/>
        <pt x="-159" y="1627" on="0"/>
        <pt x="-121" y="1489" on="1"/>
      </contour>
      <contour>
        <pt x="-149" y="1852" on="1"/>
        <pt x="-149" y="1910" on="0"/>
        <pt x="-92" y="1972" on="0"/>
        <pt x="-39" y="1972" on="1"/>
        <pt x="15" y="1972" on="0"/>
        <pt x="74" y="1910" on="0"/>
        <pt x="74" y="1852" on="1"/>
        <pt x="74" y="1794" on="0"/>
        <pt x="15" y="1729" on="0"/>
        <pt x="-39" y="1729" on="1"/>
        <pt x="-91" y="1729" on="0"/>
        <pt x="-149" y="1794" on="0"/>
      </contour>
      <contour>
        <pt x="-300" y="1400" on="1"/>
      </contour>
      <contour>
        <pt x="-160" y="1640" on="1"/>
      </contour>
    </TTGlyph>
    <TTGlyph name="glyph00086" xMin="-1090" yMin="1380" xMax="3" yMax="1856">
      <contour>
        <pt x="-1019" y="1856" on="1"/>
        <pt x="-161" y="1489" on="1"/>
        <pt x="-214" y="1380" on="1"/>
        <pt x="-1090" y="1708" on="1"/>
      </contour>
      <contour>
        <pt x="-220" y="1723" on="1"/>
        <pt x="-220" y="1781" on="0"/>
        <pt x="-163" y="1843" on="0"/>
        <pt x="-110" y="1843" on="1"/>
        <pt x="-56" y="1843" on="0"/>
        <pt x="3" y="1781" on="0"/>
        <pt x="3" y="1723" on="1"/>
        <pt x="3" y="1665" on="0"/>
        <pt x="-56" y="1600" on="0"/>
        <pt x="-110" y="1600" on="1"/>
        <pt x="-162" y="1600" on="0"/>
        <pt x="-220" y="1665" on="0"/>
      </contour>
      <contour>
        <pt x="-300" y="1400" on="1"/>
      </contour>
      <contour>
        <pt x="-260" y="1640" on="1"/>
      </contour>
    </TTGlyph>
    <TTGlyph name="glyph00087" xMin="30" yMin="0" xMax="1805" yMax="1274">
      <contour>
        <pt x="30" y="452" on="1"/>
        <pt x="88" y="635" on="0"/>
        <pt x="205" y="828" on="0"/>
        <pt x="360" y="926" on="0"/>
        <pt x="454" y="926" on="1"/>
        <pt x="589" y="926" on="0"/>
        <pt x="715" y="825" on="1"/>
        <pt x="816" y="926" on="0"/>
        <pt x="950" y="926" on="1"/>
        <pt x="1083" y="926" on="0"/>
        <pt x="1207" y="829" on="1"/>
        <pt x="1306" y="926" on="0"/>
        <pt x="1438" y="926" on="1"/>
        <pt x="1542" y="926" on="0"/>
        <pt x="1640" y="867" on="1"/>
        <pt x="1640" y="1274" on="1"/>
        <pt x="1805" y="1274" on="1"/>
        <pt x="1805" y="0" on="1"/>
        <pt x="1640" y="0" on="1"/>
        <pt x="1640" y="722" on="1"/>
        <pt x="1556" y="781" on="0"/>
        <pt x="1468" y="781" on="1"/>
        <pt x="1383" y="781" on="0"/>
        <pt x="1247" y="634" on="0"/>
        <pt x="1193" y="481" on="1"/>
        <pt x="1164" y="401" on="1"/>
        <pt x="1014" y="452" on="1"/>
        <pt x="1054" y="571" on="0"/>
        <pt x="1087" y="650" on="0"/>
        <pt x="1115" y="706" on="0"/>
        <pt x="1133" y="734" on="1"/>
        <pt x="1053" y="781" on="0"/>
        <pt x="980" y="781" on="1"/>
        <pt x="895" y="781" on="0"/>
        <pt x="759" y="634" on="0"/>
        <pt x="705" y="481" on="1"/>
        <pt x="676" y="401" on="1"/>
        <pt x="526" y="452" on="1"/>
        <pt x="546" y="513" on="1"/>
        <pt x="584" y="637" on="0"/>
        <pt x="642" y="731" on="1"/>
        <pt x="562" y="781" on="0"/>
        <pt x="484" y="781" on="1"/>
        <pt x="399" y="781" on="0"/>
        <pt x="263" y="634" on="0"/>
        <pt x="209" y="481" on="1"/>
        <pt x="180" y="401" on="1"/>
      </contour>
    </TTGlyph>
    <TTGlyph name="glyph00088" xMin="80" yMin="0" xMax="1618" yMax="1859">
      <contour>
        <pt x="1068" y="0" on="1"/>
        <pt x="903" y="0" on="1"/>
        <pt x="903" y="1274" on="1"/>
        <pt x="903" y="1539" on="0"/>
        <pt x="1071" y="1796" on="0"/>
        <pt x="1259" y="1796" on="1"/>
        <pt x="1618" y="1796" on="0"/>
        <pt x="1618" y="1224" on="1"/>
        <pt x="1618" y="0" on="1"/>
        <pt x="1453" y="0" on="1"/>
        <pt x="1453" y="1254" on="1"/>
        <pt x="1453" y="1473" on="0"/>
        <pt x="1371" y="1651" on="0"/>
        <pt x="1269" y="1651" on="1"/>
        <pt x="1161" y="1651" on="0"/>
        <pt x="1068" y="1463" on="0"/>
        <pt x="1068" y="1244" on="1"/>
      </contour>
      <contour>
        <pt x="571" y="640" on="1"/>
        <pt x="571" y="758" on="0"/>
        <pt x="476" y="1032" on="0"/>
        <pt x="368" y="1202" on="1"/>
        <pt x="495" y="1274" on="1"/>
        <pt x="735" y="910" on="0"/>
        <pt x="735" y="605" on="1"/>
        <pt x="735" y="457" on="0"/>
        <pt x="572" y="268" on="0"/>
        <pt x="446" y="268" on="1"/>
        <pt x="341" y="268" on="0"/>
        <pt x="148" y="416" on="0"/>
        <pt x="80" y="549" on="1"/>
        <pt x="185" y="608" on="1"/>
        <pt x="234" y="519" on="0"/>
        <pt x="362" y="413" on="0"/>
        <pt x="421" y="413" on="1"/>
        <pt x="498" y="413" on="0"/>
        <pt x="571" y="537" on="0"/>
      </contour>
      <contour>
        <pt x="1398" y="1859" on="1"/>
      </contour>
    </TTGlyph>
    <TTGlyph name="glyph00089" xMin="80" yMin="-462" xMax="1297" yMax="1400">
      <contour>
        <pt x="1068" y="1274" on="1"/>
        <pt x="1068" y="211" on="1"/>
        <pt x="1068" y="139" on="0"/>
        <pt x="1058" y="76" on="1"/>
        <pt x="1171" y="58" on="0"/>
        <pt x="1297" y="-84" on="0"/>
        <pt x="1297" y="-189" on="1"/>
        <pt x="1297" y="-314" on="0"/>
        <pt x="1121" y="-462" on="0"/>
        <pt x="972" y="-462" on="1"/>
        <pt x="868" y="-462" on="0"/>
        <pt x="683" y="-381" on="0"/>
        <pt x="517" y="-242" on="0"/>
        <pt x="416" y="-116" on="1"/>
        <pt x="519" y="-32" on="1"/>
        <pt x="625" y="-155" on="0"/>
        <pt x="747" y="-255" on="0"/>
        <pt x="881" y="-317" on="0"/>
        <pt x="956" y="-317" on="1"/>
        <pt x="1035" y="-317" on="0"/>
        <pt x="1132" y="-238" on="0"/>
        <pt x="1132" y="-172" on="1"/>
        <pt x="1132" y="-100" on="0"/>
        <pt x="1013" y="-20" on="0"/>
        <pt x="903" y="-20" on="1"/>
        <pt x="903" y="1274" on="1"/>
      </contour>
      <contour>
        <pt x="571" y="640" on="1"/>
        <pt x="571" y="758" on="0"/>
        <pt x="476" y="1032" on="0"/>
        <pt x="368" y="1202" on="1"/>
        <pt x="495" y="1274" on="1"/>
        <pt x="735" y="910" on="0"/>
        <pt x="735" y="605" on="1"/>
        <pt x="735" y="457" on="0"/>
        <pt x="572" y="268" on="0"/>
        <pt x="446" y="268" on="1"/>
        <pt x="341" y="268" on="0"/>
        <pt x="148" y="416" on="0"/>
        <pt x="80" y="549" on="1"/>
        <pt x="185" y="608" on="1"/>
        <pt x="234" y="519" on="0"/>
        <pt x="362" y="413" on="0"/>
        <pt x="421" y="413" on="1"/>
        <pt x="498" y="413" on="0"/>
        <pt x="571" y="537" on="0"/>
      </contour>
      <contour>
        <pt x="980" y="1400" on="1"/>
      </contour>
    </TTGlyph>
    <TTGlyph name="glyph00090" xMin="80" yMin="-543" xMax="1433" yMax="1400">
      <contour>
        <pt x="1324" y="-543" on="1"/>
        <pt x="1286" y="-468" on="1"/>
        <pt x="1116" y="-135" on="0"/>
        <pt x="902" y="-135" on="1"/>
        <pt x="836" y="-135" on="0"/>
        <pt x="765" y="-199" on="0"/>
        <pt x="765" y="-247" on="1"/>
        <pt x="765" y="-303" on="0"/>
        <pt x="864" y="-368" on="0"/>
        <pt x="944" y="-370" on="1"/>
        <pt x="920" y="-491" on="1"/>
        <pt x="781" y="-491" on="0"/>
        <pt x="600" y="-343" on="0"/>
        <pt x="600" y="-230" on="1"/>
        <pt x="600" y="-121" on="0"/>
        <pt x="757" y="10" on="0"/>
        <pt x="886" y="10" on="1"/>
        <pt x="903" y="9" on="1"/>
        <pt x="903" y="1274" on="1"/>
        <pt x="1068" y="1274" on="1"/>
        <pt x="1068" y="191" on="1"/>
        <pt x="1068" y="63" on="0"/>
        <pt x="1046" y="-4" on="1"/>
        <pt x="1041" y="-19" on="1"/>
        <pt x="1114" y="-48" on="0"/>
        <pt x="1250" y="-166" on="0"/>
        <pt x="1362" y="-336" on="0"/>
        <pt x="1433" y="-488" on="1"/>
      </contour>
      <contour>
        <pt x="571" y="640" on="1"/>
        <pt x="571" y="758" on="0"/>
        <pt x="476" y="1032" on="0"/>
        <pt x="368" y="1202" on="1"/>
        <pt x="495" y="1274" on="1"/>
        <pt x="735" y="910" on="0"/>
        <pt x="735" y="605" on="1"/>
        <pt x="735" y="457" on="0"/>
        <pt x="572" y="268" on="0"/>
        <pt x="446" y="268" on="1"/>
        <pt x="341" y="268" on="0"/>
        <pt x="148" y="416" on="0"/>
        <pt x="80" y="549" on="1"/>
        <pt x="185" y="608" on="1"/>
        <pt x="234" y="519" on="0"/>
        <pt x="362" y="413" on="0"/>
        <pt x="421" y="413" on="1"/>
        <pt x="498" y="413" on="0"/>
        <pt x="571" y="537" on="0"/>
      </contour>
      <contour>
        <pt x="980" y="1400" on="1"/>
      </contour>
    </TTGlyph>
    <TTGlyph name="glyph00091" xMin="100" yMin="-413" xMax="1505" yMax="1400">
      <contour>
        <pt x="1340" y="562" on="1"/>
        <pt x="1000" y="562" on="1"/>
        <pt x="1000" y="0" on="1"/>
        <pt x="835" y="0" on="1"/>
        <pt x="835" y="562" on="1"/>
        <pt x="466" y="562" on="1"/>
        <pt x="409" y="459" on="0"/>
        <pt x="314" y="333" on="1"/>
        <pt x="403" y="180" on="0"/>
        <pt x="712" y="-123" on="0"/>
        <pt x="962" y="-297" on="1"/>
        <pt x="871" y="-413" on="1"/>
        <pt x="601" y="-234" on="0"/>
        <pt x="244" y="129" on="0"/>
        <pt x="100" y="371" on="1"/>
        <pt x="238" y="525" on="0"/>
        <pt x="332" y="668" on="0"/>
        <pt x="382" y="811" on="0"/>
        <pt x="382" y="889" on="1"/>
        <pt x="382" y="968" on="0"/>
        <pt x="320" y="1104" on="0"/>
        <pt x="236" y="1186" on="1"/>
        <pt x="323" y="1284" on="1"/>
        <pt x="443" y="1186" on="0"/>
        <pt x="547" y="986" on="0"/>
        <pt x="547" y="872" on="1"/>
        <pt x="547" y="781" on="0"/>
        <pt x="526" y="707" on="1"/>
        <pt x="835" y="707" on="1"/>
        <pt x="835" y="1274" on="1"/>
        <pt x="1000" y="1274" on="1"/>
        <pt x="1000" y="707" on="1"/>
        <pt x="1340" y="707" on="1"/>
        <pt x="1340" y="1274" on="1"/>
        <pt x="1505" y="1274" on="1"/>
        <pt x="1505" y="0" on="1"/>
        <pt x="1340" y="0" on="1"/>
      </contour>
      <contour>
        <pt x="1420" y="1400" on="1"/>
      </contour>
    </TTGlyph>
    <TTGlyph name="glyph00092" xMin="130" yMin="-296" xMax="1327" yMax="1400">
      <contour>
        <pt x="1327" y="261" on="1"/>
        <pt x="1327" y="0" on="0"/>
        <pt x="1055" y="-296" on="0"/>
        <pt x="816" y="-296" on="1"/>
        <pt x="670" y="-296" on="0"/>
        <pt x="341" y="-173" on="0"/>
        <pt x="145" y="-36" on="1"/>
        <pt x="228" y="75" on="1"/>
        <pt x="542" y="-151" on="0"/>
        <pt x="796" y="-151" on="1"/>
        <pt x="983" y="-151" on="0"/>
        <pt x="1162" y="62" on="0"/>
        <pt x="1162" y="278" on="1"/>
        <pt x="1162" y="466" on="0"/>
        <pt x="1167" y="503" on="1"/>
        <pt x="1164" y="506" on="1"/>
        <pt x="1135" y="477" on="0"/>
        <pt x="1024" y="435" on="0"/>
        <pt x="967" y="435" on="1"/>
        <pt x="810" y="435" on="0"/>
        <pt x="725" y="522" on="1"/>
        <pt x="720" y="522" on="1"/>
        <pt x="678" y="484" on="0"/>
        <pt x="542" y="435" on="0"/>
        <pt x="467" y="435" on="1"/>
        <pt x="311" y="435" on="0"/>
        <pt x="130" y="618" on="0"/>
        <pt x="130" y="772" on="1"/>
        <pt x="130" y="1274" on="1"/>
        <pt x="295" y="1274" on="1"/>
        <pt x="295" y="756" on="1"/>
        <pt x="295" y="579" on="0"/>
        <pt x="432" y="579" on="1"/>
        <pt x="548" y="579" on="0"/>
        <pt x="644" y="680" on="1"/>
        <pt x="630" y="745" on="0"/>
        <pt x="630" y="821" on="1"/>
        <pt x="630" y="1274" on="1"/>
        <pt x="795" y="1274" on="1"/>
        <pt x="795" y="756" on="1"/>
        <pt x="795" y="661" on="0"/>
        <pt x="855" y="579" on="0"/>
        <pt x="932" y="579" on="1"/>
        <pt x="1056" y="579" on="0"/>
        <pt x="1162" y="701" on="1"/>
        <pt x="1162" y="1274" on="1"/>
        <pt x="1327" y="1274" on="1"/>
      </contour>
      <contour>
        <pt x="1240" y="1400" on="1"/>
      </contour>
    </TTGlyph>
    <TTGlyph name="glyph00093" xMin="95" yMin="-330" xMax="1519" yMax="1400">
      <contour>
        <pt x="801" y="-330" on="1"/>
        <pt x="627" y="-330" on="0"/>
        <pt x="277" y="-172" on="0"/>
        <pt x="120" y="-25" on="1"/>
        <pt x="205" y="78" on="1"/>
        <pt x="390" y="-71" on="0"/>
        <pt x="659" y="-185" on="0"/>
        <pt x="791" y="-185" on="1"/>
        <pt x="959" y="-185" on="0"/>
        <pt x="1216" y="-34" on="0"/>
        <pt x="1354" y="243" on="0"/>
        <pt x="1354" y="421" on="1"/>
        <pt x="1354" y="588" on="0"/>
        <pt x="1248" y="766" on="0"/>
        <pt x="1146" y="766" on="1"/>
        <pt x="1089" y="766" on="0"/>
        <pt x="969" y="691" on="0"/>
        <pt x="892" y="603" on="1"/>
        <pt x="892" y="0" on="1"/>
        <pt x="727" y="0" on="1"/>
        <pt x="727" y="322" on="1"/>
        <pt x="727" y="421" on="0"/>
        <pt x="732" y="438" on="1"/>
        <pt x="727" y="438" on="1"/>
        <pt x="602" y="340" on="0"/>
        <pt x="459" y="340" on="1"/>
        <pt x="358" y="340" on="0"/>
        <pt x="190" y="430" on="0"/>
        <pt x="95" y="589" on="0"/>
        <pt x="95" y="683" on="1"/>
        <pt x="95" y="772" on="0"/>
        <pt x="188" y="913" on="0"/>
        <pt x="352" y="991" on="0"/>
        <pt x="452" y="991" on="1"/>
        <pt x="603" y="991" on="0"/>
        <pt x="727" y="904" on="1"/>
        <pt x="727" y="1274" on="1"/>
        <pt x="892" y="1274" on="1"/>
        <pt x="892" y="951" on="1"/>
        <pt x="892" y="855" on="0"/>
        <pt x="887" y="815" on="1"/>
        <pt x="892" y="815" on="1"/>
        <pt x="999" y="911" on="0"/>
        <pt x="1131" y="911" on="1"/>
        <pt x="1311" y="911" on="0"/>
        <pt x="1519" y="638" on="0"/>
        <pt x="1519" y="411" on="1"/>
        <pt x="1519" y="200" on="0"/>
        <pt x="1339" y="-143" on="0"/>
        <pt x="1014" y="-330" on="0"/>
      </contour>
      <contour>
        <pt x="439" y="484" on="1"/>
        <pt x="514" y="484" on="0"/>
        <pt x="647" y="551" on="0"/>
        <pt x="727" y="637" on="1"/>
        <pt x="727" y="779" on="1"/>
        <pt x="598" y="846" on="0"/>
        <pt x="472" y="846" on="1"/>
        <pt x="378" y="846" on="0"/>
        <pt x="260" y="743" on="0"/>
        <pt x="260" y="663" on="1"/>
        <pt x="260" y="582" on="0"/>
        <pt x="356" y="484" on="0"/>
      </contour>
      <contour>
        <pt x="810" y="1400" on="1"/>
      </contour>
    </TTGlyph>
    <TTGlyph name="glyph00094" xMin="80" yMin="-420" xMax="1075" yMax="1400">
      <contour>
        <pt x="910" y="1274" on="1"/>
        <pt x="1075" y="1274" on="1"/>
        <pt x="1075" y="80" on="1"/>
        <pt x="1075" y="-420" on="0"/>
        <pt x="625" y="-420" on="1"/>
        <pt x="502" y="-420" on="0"/>
        <pt x="249" y="-313" on="0"/>
        <pt x="101" y="-194" on="1"/>
        <pt x="187" y="-91" on="1"/>
        <pt x="307" y="-186" on="0"/>
        <pt x="513" y="-275" on="0"/>
        <pt x="615" y="-275" on="1"/>
        <pt x="768" y="-275" on="0"/>
        <pt x="910" y="-89" on="0"/>
        <pt x="910" y="100" on="1"/>
      </contour>
      <contour>
        <pt x="578" y="640" on="1"/>
        <pt x="578" y="735" on="0"/>
        <pt x="531" y="917" on="0"/>
        <pt x="455" y="1086" on="0"/>
        <pt x="375" y="1212" on="1"/>
        <pt x="506" y="1287" on="1"/>
        <pt x="742" y="929" on="0"/>
        <pt x="742" y="605" on="1"/>
        <pt x="742" y="504" on="0"/>
        <pt x="666" y="350" on="0"/>
        <pt x="532" y="268" on="0"/>
        <pt x="453" y="268" on="1"/>
        <pt x="352" y="268" on="0"/>
        <pt x="154" y="416" on="0"/>
        <pt x="80" y="542" on="1"/>
        <pt x="190" y="614" on="1"/>
        <pt x="322" y="413" on="0"/>
        <pt x="436" y="413" on="1"/>
        <pt x="505" y="413" on="0"/>
        <pt x="578" y="536" on="0"/>
      </contour>
      <contour>
        <pt x="990" y="1400" on="1"/>
      </contour>
    </TTGlyph>
    <TTGlyph name="glyph00095" xMin="-630" yMin="0" xMax="366" yMax="1856">
      <component glyphName="glyph00059" x="0" y="0" flags="0x204"/>
      <component glyphName="glyph00005" x="473" y="99" flags="0x4"/>
    </TTGlyph>
    <TTGlyph name="glyph00096" xMin="-650" yMin="0" xMax="466" yMax="2097">
      <component glyphName="glyph00060" x="0" y="0" flags="0x204"/>
      <component glyphName="glyph00005" x="573" y="199" flags="0x4"/>
    </TTGlyph>
    <TTGlyph name="glyph00097" xMin="130" yMin="0" xMax="1877" yMax="1859">
      <contour>
        <pt x="1327" y="0" on="1"/>
        <pt x="1162" y="0" on="1"/>
        <pt x="1162" y="332" on="1"/>
        <pt x="1162" y="468" on="0"/>
        <pt x="1167" y="503" on="1"/>
        <pt x="1162" y="503" on="1"/>
        <pt x="1130" y="475" on="0"/>
        <pt x="1027" y="435" on="0"/>
        <pt x="967" y="435" on="1"/>
        <pt x="810" y="435" on="0"/>
        <pt x="725" y="522" on="1"/>
        <pt x="720" y="522" on="1"/>
        <pt x="678" y="484" on="0"/>
        <pt x="542" y="435" on="0"/>
        <pt x="467" y="435" on="1"/>
        <pt x="311" y="435" on="0"/>
        <pt x="130" y="618" on="0"/>
        <pt x="130" y="772" on="1"/>
        <pt x="130" y="1274" on="1"/>
        <pt x="295" y="1274" on="1"/>
        <pt x="295" y="756" on="1"/>
        <pt x="295" y="579" on="0"/>
        <pt x="432" y="579" on="1"/>
        <pt x="548" y="579" on="0"/>
        <pt x="644" y="680" on="1"/>
        <pt x="630" y="745" on="0"/>
        <pt x="630" y="821" on="1"/>
        <pt x="630" y="1274" on="1"/>
        <pt x="795" y="1274" on="1"/>
        <pt x="795" y="756" on="1"/>
        <pt x="795" y="661" on="0"/>
        <pt x="855" y="579" on="0"/>
        <pt x="932" y="579" on="1"/>
        <pt x="1056" y="579" on="0"/>
        <pt x="1162" y="701" on="1"/>
        <pt x="1162" y="1274" on="1"/>
        <pt x="1162" y="1796" on="0"/>
        <pt x="1518" y="1796" on="1"/>
        <pt x="1702" y="1796" on="0"/>
        <pt x="1877" y="1519" on="0"/>
        <pt x="1877" y="1224" on="1"/>
        <pt x="1877" y="0" on="1"/>
        <pt x="1712" y="0" on="1"/>
        <pt x="1712" y="1254" on="1"/>
        <pt x="1712" y="1474" on="0"/>
        <pt x="1629" y="1651" on="0"/>
        <pt x="1528" y="1651" on="1"/>
        <pt x="1425" y="1651" on="0"/>
        <pt x="1327" y="1453" on="0"/>
        <pt x="1327" y="1244" on="1"/>
      </contour>
      <contour>
        <pt x="1658" y="1859" on="1"/>
      </contour>
    </TTGlyph>
    <TTGlyph name="glyph00098" xMin="70" yMin="0" xMax="1307" yMax="1859">
      <contour>
        <pt x="948" y="1796" on="1"/>
        <pt x="1307" y="1796" on="0"/>
        <pt x="1307" y="1224" on="1"/>
        <pt x="1307" y="0" on="1"/>
        <pt x="1142" y="0" on="1"/>
        <pt x="1142" y="1254" on="1"/>
        <pt x="1142" y="1473" on="0"/>
        <pt x="1060" y="1651" on="0"/>
        <pt x="958" y="1651" on="1"/>
        <pt x="850" y="1651" on="0"/>
        <pt x="757" y="1463" on="0"/>
        <pt x="757" y="1244" on="1"/>
        <pt x="757" y="0" on="1"/>
        <pt x="592" y="0" on="1"/>
        <pt x="592" y="873" on="1"/>
        <pt x="592" y="998" on="0"/>
        <pt x="597" y="1023" on="1"/>
        <pt x="594" y="1025" on="1"/>
        <pt x="190" y="631" on="1"/>
        <pt x="70" y="758" on="1"/>
        <pt x="610" y="1249" on="1"/>
        <pt x="610" y="1540" on="0"/>
        <pt x="772" y="1796" on="0"/>
      </contour>
      <contour>
        <pt x="1088" y="1859" on="1"/>
      </contour>
    </TTGlyph>
    <TTGlyph name="glyph00099" xMin="130" yMin="0" xMax="1807" yMax="1859">
      <contour>
        <pt x="1257" y="0" on="1"/>
        <pt x="1092" y="0" on="1"/>
        <pt x="1092" y="882" on="1"/>
        <pt x="1092" y="1017" on="0"/>
        <pt x="1008" y="1139" on="0"/>
        <pt x="927" y="1139" on="1"/>
        <pt x="853" y="1139" on="0"/>
        <pt x="773" y="1017" on="0"/>
        <pt x="773" y="903" on="1"/>
        <pt x="773" y="458" on="1"/>
        <pt x="773" y="291" on="0"/>
        <pt x="601" y="95" on="0"/>
        <pt x="453" y="95" on="1"/>
        <pt x="304" y="95" on="0"/>
        <pt x="130" y="298" on="0"/>
        <pt x="130" y="477" on="1"/>
        <pt x="131" y="1274" on="1"/>
        <pt x="296" y="1274" on="1"/>
        <pt x="296" y="467" on="1"/>
        <pt x="296" y="240" on="0"/>
        <pt x="443" y="240" on="1"/>
        <pt x="522" y="240" on="0"/>
        <pt x="608" y="353" on="0"/>
        <pt x="608" y="468" on="1"/>
        <pt x="608" y="913" on="1"/>
        <pt x="608" y="1284" on="0"/>
        <pt x="917" y="1284" on="1"/>
        <pt x="1019" y="1284" on="0"/>
        <pt x="1098" y="1218" on="1"/>
        <pt x="1092" y="1245" on="0"/>
        <pt x="1092" y="1274" on="1"/>
        <pt x="1092" y="1539" on="0"/>
        <pt x="1260" y="1796" on="0"/>
        <pt x="1448" y="1796" on="1"/>
        <pt x="1807" y="1796" on="0"/>
        <pt x="1807" y="1224" on="1"/>
        <pt x="1807" y="0" on="1"/>
        <pt x="1642" y="0" on="1"/>
        <pt x="1642" y="1254" on="1"/>
        <pt x="1642" y="1473" on="0"/>
        <pt x="1560" y="1651" on="0"/>
        <pt x="1458" y="1651" on="1"/>
        <pt x="1350" y="1651" on="0"/>
        <pt x="1257" y="1463" on="0"/>
        <pt x="1257" y="1244" on="1"/>
      </contour>
      <contour>
        <pt x="1588" y="1859" on="1"/>
      </contour>
    </TTGlyph>
    <TTGlyph name="glyph00100" xMin="130" yMin="-11" xMax="1858" yMax="1859">
      <contour>
        <pt x="617" y="1139" on="1"/>
        <pt x="470" y="1139" on="0"/>
        <pt x="319" y="1024" on="0"/>
        <pt x="319" y="913" on="1"/>
        <pt x="319" y="803" on="0"/>
        <pt x="400" y="722" on="1"/>
        <pt x="512" y="762" on="0"/>
        <pt x="652" y="762" on="1"/>
        <pt x="672" y="597" on="1"/>
        <pt x="489" y="597" on="0"/>
        <pt x="295" y="475" on="0"/>
        <pt x="295" y="364" on="1"/>
        <pt x="295" y="259" on="0"/>
        <pt x="461" y="134" on="0"/>
        <pt x="598" y="134" on="1"/>
        <pt x="852" y="134" on="0"/>
        <pt x="1023" y="301" on="1"/>
        <pt x="768" y="621" on="0"/>
        <pt x="768" y="914" on="1"/>
        <pt x="768" y="1090" on="0"/>
        <pt x="928" y="1284" on="0"/>
        <pt x="1069" y="1284" on="1"/>
        <pt x="1132" y="1284" on="0"/>
        <pt x="1187" y="1261" on="1"/>
        <pt x="1171" y="1313" on="0"/>
        <pt x="1171" y="1397" on="1"/>
        <pt x="1171" y="1581" on="0"/>
        <pt x="1342" y="1796" on="0"/>
        <pt x="1489" y="1796" on="1"/>
        <pt x="1679" y="1796" on="0"/>
        <pt x="1858" y="1506" on="0"/>
        <pt x="1858" y="1224" on="1"/>
        <pt x="1858" y="0" on="1"/>
        <pt x="1693" y="0" on="1"/>
        <pt x="1693" y="1254" on="1"/>
        <pt x="1693" y="1477" on="0"/>
        <pt x="1607" y="1651" on="0"/>
        <pt x="1499" y="1651" on="1"/>
        <pt x="1412" y="1651" on="0"/>
        <pt x="1318" y="1503" on="0"/>
        <pt x="1318" y="1374" on="1"/>
        <pt x="1318" y="1298" on="0"/>
        <pt x="1344" y="1175" on="0"/>
        <pt x="1376" y="1058" on="0"/>
        <pt x="1402" y="936" on="0"/>
        <pt x="1402" y="863" on="1"/>
        <pt x="1402" y="710" on="0"/>
        <pt x="1306" y="408" on="0"/>
        <pt x="1217" y="289" on="1"/>
        <pt x="1302" y="195" on="0"/>
        <pt x="1423" y="88" on="1"/>
        <pt x="1331" y="-11" on="1"/>
        <pt x="1227" y="76" on="0"/>
        <pt x="1124" y="184" on="1"/>
        <pt x="917" y="-10" on="0"/>
        <pt x="620" y="-10" on="1"/>
        <pt x="405" y="-10" on="0"/>
        <pt x="130" y="206" on="0"/>
        <pt x="130" y="385" on="1"/>
        <pt x="130" y="559" on="0"/>
        <pt x="287" y="665" on="1"/>
        <pt x="224" y="723" on="0"/>
        <pt x="153" y="866" on="0"/>
        <pt x="153" y="943" on="1"/>
        <pt x="153" y="1104" on="0"/>
        <pt x="389" y="1284" on="0"/>
        <pt x="606" y="1284" on="1"/>
      </contour>
      <contour>
        <pt x="933" y="904" on="1"/>
        <pt x="933" y="774" on="0"/>
        <pt x="1023" y="534" on="0"/>
        <pt x="1114" y="412" on="1"/>
        <pt x="1237" y="603" on="0"/>
        <pt x="1237" y="863" on="1"/>
        <pt x="1237" y="996" on="0"/>
        <pt x="1154" y="1139" on="0"/>
        <pt x="1079" y="1139" on="1"/>
        <pt x="1010" y="1139" on="0"/>
        <pt x="933" y="1017" on="0"/>
      </contour>
      <contour>
        <pt x="1638" y="1859" on="1"/>
      </contour>
    </TTGlyph>
    <TTGlyph name="glyph00101" xMin="120" yMin="-481" xMax="966" yMax="1400">
      <contour>
        <pt x="929" y="-203" on="1"/>
        <pt x="929" y="-327" on="0"/>
        <pt x="740" y="-481" on="0"/>
        <pt x="592" y="-481" on="1"/>
        <pt x="462" y="-481" on="0"/>
        <pt x="210" y="-336" on="0"/>
        <pt x="120" y="-214" on="1"/>
        <pt x="209" y="-134" on="1"/>
        <pt x="404" y="-336" on="0"/>
        <pt x="582" y="-336" on="1"/>
        <pt x="664" y="-336" on="0"/>
        <pt x="764" y="-267" on="0"/>
        <pt x="764" y="-193" on="1"/>
        <pt x="764" y="-145" on="0"/>
        <pt x="672" y="-59" on="0"/>
        <pt x="567" y="-8" on="1"/>
        <pt x="380" y="81" on="0"/>
        <pt x="223" y="204" on="0"/>
        <pt x="140" y="359" on="0"/>
        <pt x="140" y="454" on="1"/>
        <pt x="140" y="550" on="0"/>
        <pt x="221" y="703" on="0"/>
        <pt x="290" y="755" on="1"/>
        <pt x="210" y="861" on="0"/>
        <pt x="210" y="974" on="1"/>
        <pt x="210" y="1124" on="0"/>
        <pt x="468" y="1284" on="0"/>
        <pt x="713" y="1284" on="1"/>
        <pt x="724" y="1139" on="1"/>
        <pt x="546" y="1139" on="0"/>
        <pt x="376" y="1046" on="0"/>
        <pt x="376" y="944" on="1"/>
        <pt x="376" y="875" on="0"/>
        <pt x="407" y="818" on="1"/>
        <pt x="499" y="850" on="0"/>
        <pt x="595" y="850" on="1"/>
        <pt x="703" y="850" on="0"/>
        <pt x="871" y="773" on="0"/>
        <pt x="966" y="631" on="0"/>
        <pt x="966" y="543" on="1"/>
        <pt x="966" y="426" on="0"/>
        <pt x="812" y="279" on="0"/>
        <pt x="699" y="279" on="1"/>
        <pt x="578" y="279" on="0"/>
        <pt x="482" y="373" on="1"/>
        <pt x="546" y="466" on="1"/>
        <pt x="603" y="424" on="0"/>
        <pt x="679" y="424" on="1"/>
        <pt x="732" y="424" on="0"/>
        <pt x="802" y="506" on="0"/>
        <pt x="802" y="563" on="1"/>
        <pt x="802" y="627" on="0"/>
        <pt x="698" y="705" on="0"/>
        <pt x="605" y="705" on="1"/>
        <pt x="466" y="705" on="0"/>
        <pt x="305" y="565" on="0"/>
        <pt x="305" y="444" on="1"/>
        <pt x="305" y="380" on="0"/>
        <pt x="359" y="283" on="0"/>
        <pt x="446" y="206" on="0"/>
        <pt x="558" y="143" on="0"/>
        <pt x="675" y="84" on="0"/>
        <pt x="788" y="24" on="0"/>
        <pt x="875" y="-50" on="0"/>
        <pt x="929" y="-142" on="0"/>
      </contour>
      <contour>
        <pt x="590" y="1400" on="1"/>
      </contour>
    </TTGlyph>
    <TTGlyph name="glyph00102" xMin="120" yMin="-483" xMax="1027" yMax="1400">
      <contour>
        <pt x="704" y="1139" on="1"/>
        <pt x="526" y="1139" on="0"/>
        <pt x="356" y="1046" on="0"/>
        <pt x="356" y="944" on="1"/>
        <pt x="356" y="875" on="0"/>
        <pt x="387" y="818" on="1"/>
        <pt x="479" y="850" on="0"/>
        <pt x="575" y="850" on="1"/>
        <pt x="683" y="850" on="0"/>
        <pt x="851" y="773" on="0"/>
        <pt x="946" y="631" on="0"/>
        <pt x="946" y="543" on="1"/>
        <pt x="946" y="426" on="0"/>
        <pt x="792" y="279" on="0"/>
        <pt x="679" y="279" on="1"/>
        <pt x="558" y="279" on="0"/>
        <pt x="462" y="373" on="1"/>
        <pt x="526" y="466" on="1"/>
        <pt x="583" y="424" on="0"/>
        <pt x="659" y="424" on="1"/>
        <pt x="712" y="424" on="0"/>
        <pt x="782" y="506" on="0"/>
        <pt x="782" y="563" on="1"/>
        <pt x="782" y="627" on="0"/>
        <pt x="678" y="705" on="0"/>
        <pt x="585" y="705" on="1"/>
        <pt x="446" y="705" on="0"/>
        <pt x="285" y="565" on="0"/>
        <pt x="285" y="444" on="1"/>
        <pt x="285" y="364" on="0"/>
        <pt x="354" y="226" on="0"/>
        <pt x="471" y="103" on="0"/>
        <pt x="622" y="-10" on="0"/>
        <pt x="787" y="-121" on="0"/>
        <pt x="954" y="-233" on="0"/>
        <pt x="1027" y="-293" on="1"/>
        <pt x="948" y="-381" on="1"/>
        <pt x="844" y="-303" on="1"/>
        <pt x="607" y="-125" on="0"/>
        <pt x="452" y="-125" on="1"/>
        <pt x="373" y="-125" on="0"/>
        <pt x="285" y="-188" on="0"/>
        <pt x="285" y="-242" on="1"/>
        <pt x="285" y="-290" on="0"/>
        <pt x="355" y="-338" on="0"/>
        <pt x="415" y="-338" on="1"/>
        <pt x="471" y="-338" on="0"/>
        <pt x="554" y="-309" on="0"/>
        <pt x="595" y="-284" on="1"/>
        <pt x="658" y="-414" on="1"/>
        <pt x="558" y="-483" on="0"/>
        <pt x="435" y="-483" on="1"/>
        <pt x="297" y="-483" on="0"/>
        <pt x="120" y="-340" on="0"/>
        <pt x="120" y="-228" on="1"/>
        <pt x="120" y="-123" on="0"/>
        <pt x="270" y="10" on="0"/>
        <pt x="395" y="19" on="1"/>
        <pt x="120" y="222" on="0"/>
        <pt x="120" y="454" on="1"/>
        <pt x="120" y="550" on="0"/>
        <pt x="201" y="703" on="0"/>
        <pt x="270" y="755" on="1"/>
        <pt x="190" y="861" on="0"/>
        <pt x="190" y="974" on="1"/>
        <pt x="190" y="1124" on="0"/>
        <pt x="448" y="1284" on="0"/>
        <pt x="693" y="1284" on="1"/>
      </contour>
      <contour>
        <pt x="570" y="1400" on="1"/>
      </contour>
    </TTGlyph>
    <TTGlyph name="glyph00103" xMin="120" yMin="-22" xMax="1821" yMax="1859">
      <contour>
        <pt x="1271" y="0" on="1"/>
        <pt x="1106" y="0" on="1"/>
        <pt x="1106" y="595" on="1"/>
        <pt x="1055" y="580" on="0"/>
        <pt x="978" y="580" on="1"/>
        <pt x="865" y="580" on="0"/>
        <pt x="763" y="630" on="1"/>
        <pt x="689" y="538" on="0"/>
        <pt x="559" y="487" on="1"/>
        <pt x="621" y="407" on="0"/>
        <pt x="707" y="277" on="1"/>
        <pt x="853" y="57" on="1"/>
        <pt x="709" y="-22" on="1"/>
        <pt x="422" y="452" on="1"/>
        <pt x="342" y="447" on="1"/>
        <pt x="248" y="447" on="0"/>
        <pt x="120" y="537" on="0"/>
        <pt x="120" y="603" on="1"/>
        <pt x="120" y="651" on="0"/>
        <pt x="185" y="712" on="0"/>
        <pt x="246" y="712" on="1"/>
        <pt x="342" y="712" on="0"/>
        <pt x="452" y="608" on="1"/>
        <pt x="568" y="648" on="0"/>
        <pt x="683" y="799" on="0"/>
        <pt x="683" y="897" on="1"/>
        <pt x="683" y="1010" on="0"/>
        <pt x="559" y="1139" on="0"/>
        <pt x="456" y="1139" on="1"/>
        <pt x="417" y="1139" on="0"/>
        <pt x="347" y="1119" on="0"/>
        <pt x="285" y="1087" on="0"/>
        <pt x="224" y="1039" on="1"/>
        <pt x="136" y="1162" on="1"/>
        <pt x="282" y="1284" on="0"/>
        <pt x="445" y="1284" on="1"/>
        <pt x="563" y="1284" on="0"/>
        <pt x="746" y="1177" on="0"/>
        <pt x="848" y="990" on="0"/>
        <pt x="848" y="879" on="1"/>
        <pt x="848" y="806" on="0"/>
        <pt x="826" y="744" on="1"/>
        <pt x="894" y="720" on="0"/>
        <pt x="963" y="720" on="1"/>
        <pt x="1042" y="720" on="0"/>
        <pt x="1106" y="750" on="1"/>
        <pt x="1106" y="1274" on="1"/>
        <pt x="1106" y="1530" on="0"/>
        <pt x="1294" y="1796" on="0"/>
        <pt x="1469" y="1796" on="1"/>
        <pt x="1652" y="1796" on="0"/>
        <pt x="1821" y="1506" on="0"/>
        <pt x="1821" y="1224" on="1"/>
        <pt x="1821" y="0" on="1"/>
        <pt x="1656" y="0" on="1"/>
        <pt x="1656" y="1254" on="1"/>
        <pt x="1656" y="1469" on="0"/>
        <pt x="1573" y="1651" on="0"/>
        <pt x="1479" y="1651" on="1"/>
        <pt x="1373" y="1651" on="0"/>
        <pt x="1271" y="1451" on="0"/>
        <pt x="1271" y="1244" on="1"/>
      </contour>
      <contour>
        <pt x="1601" y="1859" on="1"/>
      </contour>
    </TTGlyph>
    <TTGlyph name="glyph00104" xMin="60" yMin="-460" xMax="1208" yMax="1400">
      <contour>
        <pt x="814" y="318" on="1"/>
        <pt x="710" y="268" on="0"/>
        <pt x="570" y="268" on="1"/>
        <pt x="436" y="268" on="0"/>
        <pt x="179" y="414" on="0"/>
        <pt x="60" y="571" on="1"/>
        <pt x="174" y="663" on="1"/>
        <pt x="280" y="747" on="0"/>
        <pt x="382" y="892" on="0"/>
        <pt x="382" y="959" on="1"/>
        <pt x="382" y="1029" on="0"/>
        <pt x="303" y="1135" on="0"/>
        <pt x="236" y="1186" on="1"/>
        <pt x="323" y="1284" on="1"/>
        <pt x="447" y="1196" on="0"/>
        <pt x="547" y="1035" on="0"/>
        <pt x="547" y="942" on="1"/>
        <pt x="547" y="873" on="0"/>
        <pt x="489" y="749" on="0"/>
        <pt x="386" y="628" on="0"/>
        <pt x="274" y="533" on="1"/>
        <pt x="388" y="413" on="0"/>
        <pt x="549" y="413" on="1"/>
        <pt x="706" y="413" on="0"/>
        <pt x="814" y="495" on="1"/>
        <pt x="814" y="1274" on="1"/>
        <pt x="979" y="1274" on="1"/>
        <pt x="979" y="211" on="1"/>
        <pt x="979" y="140" on="0"/>
        <pt x="969" y="77" on="1"/>
        <pt x="1088" y="60" on="0"/>
        <pt x="1208" y="-75" on="0"/>
        <pt x="1208" y="-180" on="1"/>
        <pt x="1208" y="-308" on="0"/>
        <pt x="1029" y="-460" on="0"/>
        <pt x="873" y="-460" on="1"/>
        <pt x="731" y="-460" on="0"/>
        <pt x="416" y="-326" on="0"/>
        <pt x="276" y="-209" on="1"/>
        <pt x="354" y="-106" on="1"/>
        <pt x="513" y="-222" on="0"/>
        <pt x="747" y="-315" on="0"/>
        <pt x="857" y="-315" on="1"/>
        <pt x="948" y="-315" on="0"/>
        <pt x="1043" y="-230" on="0"/>
        <pt x="1043" y="-163" on="1"/>
        <pt x="1043" y="-20" on="0"/>
        <pt x="814" y="-20" on="1"/>
      </contour>
      <contour>
        <pt x="890" y="1400" on="1"/>
      </contour>
    </TTGlyph>
    <TTGlyph name="glyph00105" xMin="90" yMin="-462" xMax="1222" yMax="1400">
      <contour>
        <pt x="657" y="975" on="1"/>
        <pt x="593" y="1002" on="0"/>
        <pt x="524" y="1002" on="1"/>
        <pt x="407" y="1002" on="0"/>
        <pt x="255" y="857" on="0"/>
        <pt x="255" y="742" on="1"/>
        <pt x="255" y="621" on="0"/>
        <pt x="410" y="476" on="0"/>
        <pt x="530" y="476" on="1"/>
        <pt x="698" y="476" on="0"/>
        <pt x="828" y="588" on="1"/>
        <pt x="828" y="1274" on="1"/>
        <pt x="993" y="1274" on="1"/>
        <pt x="993" y="211" on="1"/>
        <pt x="993" y="139" on="0"/>
        <pt x="983" y="76" on="1"/>
        <pt x="1096" y="58" on="0"/>
        <pt x="1222" y="-84" on="0"/>
        <pt x="1222" y="-189" on="1"/>
        <pt x="1222" y="-314" on="0"/>
        <pt x="1046" y="-462" on="0"/>
        <pt x="897" y="-462" on="1"/>
        <pt x="793" y="-462" on="0"/>
        <pt x="608" y="-381" on="0"/>
        <pt x="442" y="-242" on="0"/>
        <pt x="341" y="-116" on="1"/>
        <pt x="444" y="-32" on="1"/>
        <pt x="550" y="-155" on="0"/>
        <pt x="672" y="-255" on="0"/>
        <pt x="806" y="-317" on="0"/>
        <pt x="881" y="-317" on="1"/>
        <pt x="960" y="-317" on="0"/>
        <pt x="1057" y="-238" on="0"/>
        <pt x="1057" y="-172" on="1"/>
        <pt x="1057" y="-100" on="0"/>
        <pt x="938" y="-20" on="0"/>
        <pt x="828" y="-20" on="1"/>
        <pt x="828" y="399" on="1"/>
        <pt x="704" y="331" on="0"/>
        <pt x="550" y="331" on="1"/>
        <pt x="419" y="331" on="0"/>
        <pt x="207" y="442" on="0"/>
        <pt x="90" y="639" on="0"/>
        <pt x="90" y="757" on="1"/>
        <pt x="90" y="862" on="0"/>
        <pt x="203" y="1049" on="0"/>
        <pt x="396" y="1159" on="0"/>
        <pt x="506" y="1159" on="1"/>
        <pt x="559" y="1159" on="0"/>
        <pt x="652" y="1136" on="0"/>
        <pt x="712" y="1105" on="1"/>
      </contour>
      <contour>
        <pt x="910" y="1400" on="1"/>
      </contour>
    </TTGlyph>
    <TTGlyph name="glyph00106" xMin="120" yMin="-185" xMax="1328" yMax="1859">
      <contour>
        <pt x="526" y="466" on="1"/>
        <pt x="583" y="424" on="0"/>
        <pt x="659" y="424" on="1"/>
        <pt x="712" y="424" on="0"/>
        <pt x="782" y="506" on="0"/>
        <pt x="782" y="563" on="1"/>
        <pt x="782" y="627" on="0"/>
        <pt x="678" y="705" on="0"/>
        <pt x="585" y="705" on="1"/>
        <pt x="446" y="705" on="0"/>
        <pt x="285" y="565" on="0"/>
        <pt x="285" y="444" on="1"/>
        <pt x="285" y="364" on="0"/>
        <pt x="369" y="211" on="0"/>
        <pt x="556" y="49" on="0"/>
        <pt x="758" y="-75" on="1"/>
        <pt x="684" y="-185" on="1"/>
        <pt x="447" y="-41" on="0"/>
        <pt x="225" y="155" on="0"/>
        <pt x="120" y="352" on="0"/>
        <pt x="120" y="454" on="1"/>
        <pt x="120" y="550" on="0"/>
        <pt x="201" y="703" on="0"/>
        <pt x="270" y="755" on="1"/>
        <pt x="190" y="861" on="0"/>
        <pt x="190" y="974" on="1"/>
        <pt x="190" y="1094" on="0"/>
        <pt x="366" y="1253" on="0"/>
        <pt x="552" y="1276" on="1"/>
        <pt x="541" y="1322" on="0"/>
        <pt x="541" y="1367" on="1"/>
        <pt x="541" y="1563" on="0"/>
        <pt x="745" y="1796" on="0"/>
        <pt x="919" y="1796" on="1"/>
        <pt x="1112" y="1796" on="0"/>
        <pt x="1328" y="1496" on="0"/>
        <pt x="1328" y="1224" on="1"/>
        <pt x="1328" y="0" on="1"/>
        <pt x="1163" y="0" on="1"/>
        <pt x="1163" y="1254" on="1"/>
        <pt x="1163" y="1459" on="0"/>
        <pt x="1050" y="1651" on="0"/>
        <pt x="929" y="1651" on="1"/>
        <pt x="815" y="1651" on="0"/>
        <pt x="688" y="1490" on="0"/>
        <pt x="688" y="1344" on="1"/>
        <pt x="688" y="1231" on="0"/>
        <pt x="704" y="1139" on="1"/>
        <pt x="526" y="1139" on="0"/>
        <pt x="356" y="1046" on="0"/>
        <pt x="356" y="944" on="1"/>
        <pt x="356" y="875" on="0"/>
        <pt x="387" y="818" on="1"/>
        <pt x="479" y="850" on="0"/>
        <pt x="575" y="850" on="1"/>
        <pt x="683" y="850" on="0"/>
        <pt x="851" y="773" on="0"/>
        <pt x="946" y="631" on="0"/>
        <pt x="946" y="543" on="1"/>
        <pt x="946" y="426" on="0"/>
        <pt x="792" y="279" on="0"/>
        <pt x="679" y="279" on="1"/>
        <pt x="558" y="279" on="0"/>
        <pt x="462" y="373" on="1"/>
      </contour>
      <contour>
        <pt x="1108" y="1859" on="1"/>
      </contour>
    </TTGlyph>
    <TTGlyph name="glyph00117" xMin="100" yMin="-14" xMax="1993" yMax="2097">
      <contour>
        <pt x="1656" y="1380" on="1"/>
        <pt x="780" y="1708" on="1"/>
        <pt x="851" y="1856" on="1"/>
        <pt x="1405" y="1619" on="1"/>
        <pt x="1481" y="1586" on="0"/>
        <pt x="1576" y="1527" on="1"/>
        <pt x="1584" y="1535" on="1"/>
        <pt x="1554" y="1593" on="0"/>
        <pt x="1453" y="1713" on="0"/>
        <pt x="1321" y="1840" on="1"/>
        <pt x="1168" y="1989" on="1"/>
        <pt x="1280" y="2097" on="1"/>
        <pt x="1469" y="1908" on="0"/>
        <pt x="1671" y="1627" on="0"/>
        <pt x="1709" y="1489" on="1"/>
      </contour>
      <contour>
        <pt x="1590" y="1274" on="1"/>
        <pt x="1755" y="1274" on="1"/>
        <pt x="1755" y="0" on="1"/>
        <pt x="1590" y="0" on="1"/>
      </contour>
      <contour>
        <pt x="1770" y="1633" on="1"/>
        <pt x="1770" y="1691" on="0"/>
        <pt x="1827" y="1753" on="0"/>
        <pt x="1880" y="1753" on="1"/>
        <pt x="1934" y="1753" on="0"/>
        <pt x="1993" y="1691" on="0"/>
        <pt x="1993" y="1633" on="1"/>
        <pt x="1993" y="1575" on="0"/>
        <pt x="1934" y="1510" on="0"/>
        <pt x="1880" y="1510" on="1"/>
        <pt x="1828" y="1510" on="0"/>
        <pt x="1770" y="1575" on="0"/>
      </contour>
      <contour>
        <pt x="936" y="138" on="1"/>
        <pt x="936" y="219" on="0"/>
        <pt x="1015" y="219" on="1"/>
        <pt x="1098" y="219" on="0"/>
        <pt x="1098" y="138" on="1"/>
        <pt x="1098" y="56" on="0"/>
        <pt x="1015" y="56" on="1"/>
        <pt x="936" y="56" on="0"/>
      </contour>
      <contour>
        <pt x="378" y="1114" on="1"/>
        <pt x="378" y="1195" on="0"/>
        <pt x="457" y="1195" on="1"/>
        <pt x="540" y="1195" on="0"/>
        <pt x="540" y="1114" on="1"/>
        <pt x="540" y="1032" on="0"/>
        <pt x="457" y="1032" on="1"/>
        <pt x="378" y="1032" on="0"/>
      </contour>
      <contour>
        <pt x="170" y="907" on="1"/>
        <pt x="170" y="988" on="0"/>
        <pt x="249" y="988" on="1"/>
        <pt x="332" y="988" on="0"/>
        <pt x="332" y="907" on="1"/>
        <pt x="332" y="825" on="0"/>
        <pt x="249" y="825" on="1"/>
        <pt x="170" y="825" on="0"/>
      </contour>
      <contour>
        <pt x="100" y="627" on="1"/>
        <pt x="100" y="708" on="0"/>
        <pt x="179" y="708" on="1"/>
        <pt x="262" y="708" on="0"/>
        <pt x="262" y="627" on="1"/>
        <pt x="262" y="545" on="0"/>
        <pt x="179" y="545" on="1"/>
        <pt x="100" y="545" on="0"/>
      </contour>
      <contour>
        <pt x="170" y="348" on="1"/>
        <pt x="170" y="429" on="0"/>
        <pt x="249" y="429" on="1"/>
        <pt x="332" y="429" on="0"/>
        <pt x="332" y="348" on="1"/>
        <pt x="332" y="266" on="0"/>
        <pt x="249" y="266" on="1"/>
        <pt x="170" y="266" on="0"/>
      </contour>
      <contour>
        <pt x="377" y="138" on="1"/>
        <pt x="377" y="219" on="0"/>
        <pt x="456" y="219" on="1"/>
        <pt x="539" y="219" on="0"/>
        <pt x="539" y="138" on="1"/>
        <pt x="539" y="56" on="0"/>
        <pt x="456" y="56" on="1"/>
        <pt x="377" y="56" on="0"/>
      </contour>
      <contour>
        <pt x="663" y="1193" on="1"/>
        <pt x="663" y="1274" on="0"/>
        <pt x="742" y="1274" on="1"/>
        <pt x="825" y="1274" on="0"/>
        <pt x="825" y="1193" on="1"/>
        <pt x="825" y="1111" on="0"/>
        <pt x="742" y="1111" on="1"/>
        <pt x="663" y="1111" on="0"/>
      </contour>
      <contour>
        <pt x="1144" y="906" on="1"/>
        <pt x="1144" y="987" on="0"/>
        <pt x="1223" y="987" on="1"/>
        <pt x="1306" y="987" on="0"/>
        <pt x="1306" y="906" on="1"/>
        <pt x="1306" y="824" on="0"/>
        <pt x="1223" y="824" on="1"/>
        <pt x="1144" y="824" on="0"/>
      </contour>
      <contour>
        <pt x="1143" y="346" on="1"/>
        <pt x="1143" y="427" on="0"/>
        <pt x="1222" y="427" on="1"/>
        <pt x="1305" y="427" on="0"/>
        <pt x="1305" y="346" on="1"/>
        <pt x="1305" y="264" on="0"/>
        <pt x="1222" y="264" on="1"/>
        <pt x="1143" y="264" on="0"/>
      </contour>
      <contour>
        <pt x="1215" y="626" on="1"/>
        <pt x="1215" y="707" on="0"/>
        <pt x="1294" y="707" on="1"/>
        <pt x="1377" y="707" on="0"/>
        <pt x="1377" y="626" on="1"/>
        <pt x="1377" y="544" on="0"/>
        <pt x="1294" y="544" on="1"/>
        <pt x="1215" y="544" on="0"/>
      </contour>
      <contour>
        <pt x="658" y="68" on="1"/>
        <pt x="658" y="149" on="0"/>
        <pt x="737" y="149" on="1"/>
        <pt x="820" y="149" on="0"/>
        <pt x="820" y="68" on="1"/>
        <pt x="820" y="-14" on="0"/>
        <pt x="737" y="-14" on="1"/>
        <pt x="658" y="-14" on="0"/>
      </contour>
      <contour>
        <pt x="936" y="1115" on="1"/>
        <pt x="936" y="1196" on="0"/>
        <pt x="1015" y="1196" on="1"/>
        <pt x="1098" y="1196" on="0"/>
        <pt x="1098" y="1115" on="1"/>
        <pt x="1098" y="1033" on="0"/>
        <pt x="1015" y="1033" on="1"/>
        <pt x="936" y="1033" on="0"/>
      </contour>
    </TTGlyph>
    <TTGlyph name="glyph00118" xMin="160" yMin="-204" xMax="942" yMax="1400">
      <contour>
        <pt x="160" y="265" on="1"/>
        <pt x="160" y="370" on="0"/>
        <pt x="257" y="520" on="0"/>
        <pt x="354" y="574" on="1"/>
        <pt x="262" y="619" on="0"/>
        <pt x="165" y="797" on="0"/>
        <pt x="165" y="925" on="1"/>
        <pt x="165" y="1274" on="1"/>
        <pt x="330" y="1274" on="1"/>
        <pt x="330" y="905" on="1"/>
        <pt x="330" y="794" on="0"/>
        <pt x="430" y="679" on="0"/>
        <pt x="522" y="679" on="1"/>
        <pt x="672" y="679" on="0"/>
        <pt x="777" y="761" on="1"/>
        <pt x="777" y="1274" on="1"/>
        <pt x="942" y="1274" on="1"/>
        <pt x="942" y="0" on="1"/>
        <pt x="777" y="0" on="1"/>
        <pt x="777" y="446" on="1"/>
        <pt x="777" y="551" on="0"/>
        <pt x="782" y="581" on="1"/>
        <pt x="778" y="584" on="1"/>
        <pt x="575" y="522" on="0"/>
        <pt x="405" y="432" on="0"/>
        <pt x="325" y="319" on="0"/>
        <pt x="325" y="238" on="1"/>
        <pt x="325" y="184" on="0"/>
        <pt x="353" y="91" on="0"/>
        <pt x="412" y="-8" on="0"/>
        <pt x="501" y="-123" on="1"/>
        <pt x="392" y="-204" on="1"/>
        <pt x="262" y="-48" on="0"/>
        <pt x="160" y="163" on="0"/>
      </contour>
      <contour>
        <pt x="860" y="1400" on="1"/>
      </contour>
      <contour>
        <pt x="859" y="0" on="1"/>
      </contour>
    </TTGlyph>
    <TTGlyph name="glyph00119" xMin="95" yMin="-400" xMax="1429" yMax="1400">
      <contour>
        <pt x="95" y="190" on="1"/>
        <pt x="95" y="252" on="0"/>
        <pt x="157" y="373" on="0"/>
        <pt x="217" y="424" on="1"/>
        <pt x="160" y="470" on="0"/>
        <pt x="95" y="600" on="0"/>
        <pt x="95" y="678" on="1"/>
        <pt x="95" y="814" on="0"/>
        <pt x="300" y="991" on="0"/>
        <pt x="452" y="991" on="1"/>
        <pt x="598" y="991" on="0"/>
        <pt x="727" y="904" on="1"/>
        <pt x="727" y="1274" on="1"/>
        <pt x="892" y="1274" on="1"/>
        <pt x="892" y="951" on="1"/>
        <pt x="892" y="855" on="0"/>
        <pt x="887" y="815" on="1"/>
        <pt x="892" y="815" on="1"/>
        <pt x="999" y="911" on="0"/>
        <pt x="1131" y="911" on="1"/>
        <pt x="1266" y="911" on="0"/>
        <pt x="1429" y="735" on="0"/>
        <pt x="1429" y="591" on="1"/>
        <pt x="1429" y="467" on="0"/>
        <pt x="1367" y="320" on="1"/>
        <pt x="1429" y="236" on="0"/>
        <pt x="1429" y="113" on="1"/>
        <pt x="1429" y="-87" on="0"/>
        <pt x="1320" y="-327" on="1"/>
        <pt x="1163" y="-276" on="1"/>
        <pt x="1264" y="-46" on="0"/>
        <pt x="1264" y="133" on="1"/>
        <pt x="1264" y="288" on="0"/>
        <pt x="1146" y="288" on="1"/>
        <pt x="1089" y="288" on="0"/>
        <pt x="969" y="213" on="0"/>
        <pt x="892" y="125" on="1"/>
        <pt x="892" y="-398" on="1"/>
        <pt x="727" y="-398" on="1"/>
        <pt x="727" y="-156" on="1"/>
        <pt x="727" y="-57" on="0"/>
        <pt x="732" y="-40" on="1"/>
        <pt x="727" y="-40" on="1"/>
        <pt x="602" y="-138" on="0"/>
        <pt x="459" y="-138" on="1"/>
        <pt x="304" y="-138" on="0"/>
        <pt x="95" y="48" on="0"/>
      </contour>
      <contour>
        <pt x="727" y="322" on="1"/>
        <pt x="727" y="421" on="0"/>
        <pt x="732" y="438" on="1"/>
        <pt x="727" y="438" on="1"/>
        <pt x="602" y="340" on="0"/>
        <pt x="459" y="340" on="1"/>
        <pt x="413" y="340" on="0"/>
        <pt x="366" y="351" on="1"/>
        <pt x="260" y="287" on="0"/>
        <pt x="260" y="170" on="1"/>
        <pt x="260" y="96" on="0"/>
        <pt x="357" y="6" on="0"/>
        <pt x="439" y="6" on="1"/>
        <pt x="584" y="6" on="0"/>
        <pt x="727" y="159" on="1"/>
      </contour>
      <contour>
        <pt x="439" y="484" on="1"/>
        <pt x="584" y="484" on="0"/>
        <pt x="727" y="637" on="1"/>
        <pt x="727" y="779" on="1"/>
        <pt x="598" y="846" on="0"/>
        <pt x="472" y="846" on="1"/>
        <pt x="380" y="846" on="0"/>
        <pt x="260" y="740" on="0"/>
        <pt x="260" y="658" on="1"/>
        <pt x="260" y="581" on="0"/>
        <pt x="362" y="484" on="0"/>
      </contour>
      <contour>
        <pt x="1131" y="433" on="1"/>
        <pt x="1172" y="433" on="0"/>
        <pt x="1222" y="421" on="1"/>
        <pt x="1264" y="520" on="0"/>
        <pt x="1264" y="611" on="1"/>
        <pt x="1264" y="684" on="0"/>
        <pt x="1201" y="766" on="0"/>
        <pt x="1146" y="766" on="1"/>
        <pt x="1035" y="766" on="0"/>
        <pt x="892" y="603" on="1"/>
        <pt x="892" y="473" on="1"/>
        <pt x="892" y="377" on="0"/>
        <pt x="887" y="337" on="1"/>
        <pt x="892" y="337" on="1"/>
        <pt x="999" y="433" on="0"/>
      </contour>
      <contour>
        <pt x="820" y="1400" on="1"/>
      </contour>
      <contour>
        <pt x="810" y="-400" on="1"/>
      </contour>
    </TTGlyph>
    <TTGlyph name="glyph00120" xMin="160" yMin="-10" xMax="939" yMax="1400">
      <contour>
        <pt x="160" y="120" on="1"/>
        <pt x="483" y="388" on="1"/>
        <pt x="331" y="405" on="0"/>
        <pt x="162" y="604" on="0"/>
        <pt x="162" y="775" on="1"/>
        <pt x="162" y="1274" on="1"/>
        <pt x="327" y="1274" on="1"/>
        <pt x="327" y="755" on="1"/>
        <pt x="327" y="644" on="0"/>
        <pt x="427" y="529" on="0"/>
        <pt x="519" y="529" on="1"/>
        <pt x="583" y="529" on="0"/>
        <pt x="723" y="602" on="0"/>
        <pt x="774" y="661" on="1"/>
        <pt x="774" y="1274" on="1"/>
        <pt x="939" y="1274" on="1"/>
        <pt x="939" y="0" on="1"/>
        <pt x="774" y="0" on="1"/>
        <pt x="774" y="292" on="1"/>
        <pt x="774" y="428" on="0"/>
        <pt x="779" y="463" on="1"/>
        <pt x="776" y="463" on="1"/>
        <pt x="271" y="-10" on="1"/>
      </contour>
      <contour>
        <pt x="860" y="1400" on="1"/>
      </contour>
      <contour>
        <pt x="859" y="0" on="1"/>
      </contour>
    </TTGlyph>
    <TTGlyph name="glyph00121" xMin="80" yMin="268" xMax="742" yMax="1287">
      <contour>
        <pt x="578" y="640" on="1"/>
        <pt x="578" y="735" on="0"/>
        <pt x="531" y="917" on="0"/>
        <pt x="455" y="1086" on="0"/>
        <pt x="375" y="1212" on="1"/>
        <pt x="506" y="1287" on="1"/>
        <pt x="742" y="929" on="0"/>
        <pt x="742" y="605" on="1"/>
        <pt x="742" y="504" on="0"/>
        <pt x="666" y="350" on="0"/>
        <pt x="532" y="268" on="0"/>
        <pt x="453" y="268" on="1"/>
        <pt x="352" y="268" on="0"/>
        <pt x="154" y="416" on="0"/>
        <pt x="80" y="542" on="1"/>
        <pt x="190" y="614" on="1"/>
        <pt x="322" y="413" on="0"/>
        <pt x="436" y="413" on="1"/>
        <pt x="505" y="413" on="0"/>
        <pt x="578" y="536" on="0"/>
      </contour>
    </TTGlyph>
    <TTGlyph name="glyph00122" xMin="140" yMin="-460" xMax="1297" yMax="1284">
      <contour>
        <pt x="903" y="277" on="1"/>
        <pt x="759" y="200" on="0"/>
        <pt x="580" y="200" on="1"/>
        <pt x="387" y="200" on="0"/>
        <pt x="140" y="380" on="0"/>
        <pt x="140" y="525" on="1"/>
        <pt x="140" y="682" on="0"/>
        <pt x="305" y="776" on="1"/>
        <pt x="173" y="883" on="0"/>
        <pt x="173" y="1003" on="1"/>
        <pt x="173" y="1284" on="0"/>
        <pt x="646" y="1284" on="1"/>
        <pt x="657" y="1139" on="1"/>
        <pt x="494" y="1139" on="0"/>
        <pt x="339" y="1058" on="0"/>
        <pt x="339" y="973" on="1"/>
        <pt x="339" y="898" on="0"/>
        <pt x="420" y="824" on="1"/>
        <pt x="542" y="862" on="0"/>
        <pt x="692" y="862" on="1"/>
        <pt x="712" y="697" on="1"/>
        <pt x="517" y="697" on="0"/>
        <pt x="305" y="598" on="0"/>
        <pt x="305" y="504" on="1"/>
        <pt x="305" y="429" on="0"/>
        <pt x="446" y="344" on="0"/>
        <pt x="558" y="344" on="1"/>
        <pt x="747" y="344" on="0"/>
        <pt x="903" y="452" on="1"/>
        <pt x="903" y="1274" on="1"/>
        <pt x="1068" y="1274" on="1"/>
        <pt x="1068" y="191" on="1"/>
        <pt x="1068" y="130" on="0"/>
        <pt x="1061" y="76" on="1"/>
        <pt x="1169" y="61" on="0"/>
        <pt x="1297" y="-68" on="0"/>
        <pt x="1297" y="-180" on="1"/>
        <pt x="1297" y="-308" on="0"/>
        <pt x="1118" y="-460" on="0"/>
        <pt x="962" y="-460" on="1"/>
        <pt x="820" y="-460" on="0"/>
        <pt x="505" y="-326" on="0"/>
        <pt x="365" y="-209" on="1"/>
        <pt x="443" y="-106" on="1"/>
        <pt x="602" y="-222" on="0"/>
        <pt x="836" y="-315" on="0"/>
        <pt x="946" y="-315" on="1"/>
        <pt x="1037" y="-315" on="0"/>
        <pt x="1132" y="-230" on="0"/>
        <pt x="1132" y="-163" on="1"/>
        <pt x="1132" y="-20" on="0"/>
        <pt x="903" y="-20" on="1"/>
      </contour>
    </TTGlyph>
    <TTGlyph name="glyph00123" xMin="140" yMin="-543" xMax="1432" yMax="1284">
      <contour>
        <pt x="1323" y="-543" on="1"/>
        <pt x="1285" y="-468" on="1"/>
        <pt x="1115" y="-135" on="0"/>
        <pt x="901" y="-135" on="1"/>
        <pt x="835" y="-135" on="0"/>
        <pt x="764" y="-199" on="0"/>
        <pt x="764" y="-247" on="1"/>
        <pt x="764" y="-303" on="0"/>
        <pt x="863" y="-368" on="0"/>
        <pt x="943" y="-370" on="1"/>
        <pt x="919" y="-491" on="1"/>
        <pt x="780" y="-491" on="0"/>
        <pt x="599" y="-343" on="0"/>
        <pt x="599" y="-230" on="1"/>
        <pt x="599" y="-121" on="0"/>
        <pt x="756" y="10" on="0"/>
        <pt x="885" y="10" on="1"/>
        <pt x="903" y="9" on="1"/>
        <pt x="903" y="277" on="1"/>
        <pt x="759" y="200" on="0"/>
        <pt x="580" y="200" on="1"/>
        <pt x="387" y="200" on="0"/>
        <pt x="140" y="380" on="0"/>
        <pt x="140" y="525" on="1"/>
        <pt x="140" y="682" on="0"/>
        <pt x="305" y="776" on="1"/>
        <pt x="173" y="883" on="0"/>
        <pt x="173" y="1003" on="1"/>
        <pt x="173" y="1284" on="0"/>
        <pt x="646" y="1284" on="1"/>
        <pt x="657" y="1139" on="1"/>
        <pt x="494" y="1139" on="0"/>
        <pt x="339" y="1058" on="0"/>
        <pt x="339" y="973" on="1"/>
        <pt x="339" y="898" on="0"/>
        <pt x="420" y="824" on="1"/>
        <pt x="542" y="862" on="0"/>
        <pt x="692" y="862" on="1"/>
        <pt x="712" y="697" on="1"/>
        <pt x="517" y="697" on="0"/>
        <pt x="305" y="598" on="0"/>
        <pt x="305" y="504" on="1"/>
        <pt x="305" y="429" on="0"/>
        <pt x="446" y="344" on="0"/>
        <pt x="558" y="344" on="1"/>
        <pt x="747" y="344" on="0"/>
        <pt x="903" y="452" on="1"/>
        <pt x="903" y="1274" on="1"/>
        <pt x="1068" y="1274" on="1"/>
        <pt x="1068" y="191" on="1"/>
        <pt x="1068" y="65" on="0"/>
        <pt x="1041" y="-20" on="1"/>
        <pt x="1124" y="-53" on="0"/>
        <pt x="1256" y="-179" on="0"/>
        <pt x="1359" y="-332" on="0"/>
        <pt x="1432" y="-488" on="1"/>
      </contour>
    </TTGlyph>
    <TTGlyph name="glyph00124" xMin="140" yMin="0" xMax="1618" yMax="1859">
      <contour>
        <pt x="712" y="697" on="1"/>
        <pt x="517" y="697" on="0"/>
        <pt x="305" y="598" on="0"/>
        <pt x="305" y="504" on="1"/>
        <pt x="305" y="429" on="0"/>
        <pt x="446" y="344" on="0"/>
        <pt x="558" y="344" on="1"/>
        <pt x="747" y="344" on="0"/>
        <pt x="903" y="452" on="1"/>
        <pt x="903" y="1274" on="1"/>
        <pt x="903" y="1539" on="0"/>
        <pt x="1071" y="1796" on="0"/>
        <pt x="1259" y="1796" on="1"/>
        <pt x="1618" y="1796" on="0"/>
        <pt x="1618" y="1224" on="1"/>
        <pt x="1618" y="0" on="1"/>
        <pt x="1453" y="0" on="1"/>
        <pt x="1453" y="1254" on="1"/>
        <pt x="1453" y="1473" on="0"/>
        <pt x="1371" y="1651" on="0"/>
        <pt x="1269" y="1651" on="1"/>
        <pt x="1161" y="1651" on="0"/>
        <pt x="1068" y="1463" on="0"/>
        <pt x="1068" y="1244" on="1"/>
        <pt x="1068" y="0" on="1"/>
        <pt x="903" y="0" on="1"/>
        <pt x="903" y="277" on="1"/>
        <pt x="759" y="200" on="0"/>
        <pt x="580" y="200" on="1"/>
        <pt x="387" y="200" on="0"/>
        <pt x="140" y="380" on="0"/>
        <pt x="140" y="525" on="1"/>
        <pt x="140" y="682" on="0"/>
        <pt x="305" y="776" on="1"/>
        <pt x="173" y="883" on="0"/>
        <pt x="173" y="1003" on="1"/>
        <pt x="173" y="1284" on="0"/>
        <pt x="646" y="1284" on="1"/>
        <pt x="657" y="1139" on="1"/>
        <pt x="494" y="1139" on="0"/>
        <pt x="339" y="1058" on="0"/>
        <pt x="339" y="973" on="1"/>
        <pt x="339" y="898" on="0"/>
        <pt x="420" y="824" on="1"/>
        <pt x="542" y="862" on="0"/>
        <pt x="692" y="862" on="1"/>
      </contour>
      <contour>
        <pt x="1398" y="1859" on="1"/>
      </contour>
    </TTGlyph>
    <TTGlyph name="glyph00125" xMin="140" yMin="-420" xMax="1114" yMax="1284">
      <contour>
        <pt x="1114" y="80" on="1"/>
        <pt x="1114" y="-420" on="0"/>
        <pt x="664" y="-420" on="1"/>
        <pt x="541" y="-420" on="0"/>
        <pt x="288" y="-313" on="0"/>
        <pt x="140" y="-194" on="1"/>
        <pt x="226" y="-91" on="1"/>
        <pt x="346" y="-186" on="0"/>
        <pt x="552" y="-275" on="0"/>
        <pt x="654" y="-275" on="1"/>
        <pt x="807" y="-275" on="0"/>
        <pt x="949" y="-89" on="0"/>
        <pt x="949" y="100" on="1"/>
        <pt x="949" y="277" on="1"/>
        <pt x="805" y="200" on="0"/>
        <pt x="626" y="200" on="1"/>
        <pt x="433" y="200" on="0"/>
        <pt x="186" y="380" on="0"/>
        <pt x="186" y="525" on="1"/>
        <pt x="186" y="682" on="0"/>
        <pt x="351" y="776" on="1"/>
        <pt x="219" y="883" on="0"/>
        <pt x="219" y="1003" on="1"/>
        <pt x="219" y="1284" on="0"/>
        <pt x="692" y="1284" on="1"/>
        <pt x="703" y="1139" on="1"/>
        <pt x="540" y="1139" on="0"/>
        <pt x="385" y="1058" on="0"/>
        <pt x="385" y="973" on="1"/>
        <pt x="385" y="898" on="0"/>
        <pt x="466" y="824" on="1"/>
        <pt x="588" y="862" on="0"/>
        <pt x="738" y="862" on="1"/>
        <pt x="758" y="697" on="1"/>
        <pt x="563" y="697" on="0"/>
        <pt x="351" y="598" on="0"/>
        <pt x="351" y="504" on="1"/>
        <pt x="351" y="429" on="0"/>
        <pt x="492" y="344" on="0"/>
        <pt x="604" y="344" on="1"/>
        <pt x="793" y="344" on="0"/>
        <pt x="949" y="452" on="1"/>
        <pt x="949" y="1274" on="1"/>
        <pt x="1114" y="1274" on="1"/>
      </contour>
    </TTGlyph>
</ttFont>
